<?xml version="1.0" standalone="no"?>
<!DOCTYPE svg PUBLIC "-//W3C//DTD SVG 20010904//EN"
 "http://www.w3.org/TR/2001/REC-SVG-20010904/DTD/svg10.dtd">
<svg version="1.0" xmlns="http://www.w3.org/2000/svg"
 width="120" height="120" viewBox="0 0 256.000000 256.000000"
 preserveAspectRatio="xMidYMid meet">

<g transform="translate(0.000000,256.000000) scale(0.100000,-0.100000)"
fill="#000000" stroke="none">
<path d="M1209 2197 c-37 -29 -188 -142 -337 -252 l-271 -200 0 -211 -1 -211
307 -229 c373 -279 370 -277 386 -267 14 8 241 176 495 365 l172 129 0 212 0
213 -87 64 c-49 36 -202 149 -340 252 -139 104 -254 188 -255 188 -2 -1 -33
-24 -69 -53z m251 -497 c96 -72 186 -139 200 -149 14 -10 23 -21 20 -23 -3 -3
-94 -70 -202 -151 l-197 -146 -202 150 c-110 83 -199 153 -196 155 12 13 393
294 397 294 3 0 84 -59 180 -130z"/>
<path d="M600 1022 l0 -210 331 -247 c182 -135 337 -249 344 -251 7 -3 164
107 349 245 l336 251 0 210 0 210 -77 -59 c-419 -314 -597 -441 -609 -437 -11
4 -595 436 -661 489 -10 7 -13 -34 -13 -201z"/>
</g>
</svg>
