<?xml version="1.0" standalone="no"?>
<!DOCTYPE svg PUBLIC "-//W3C//DTD SVG 20010904//EN"
 "http://www.w3.org/TR/2001/REC-SVG-20010904/DTD/svg10.dtd">
<svg version="1.0" xmlns="http://www.w3.org/2000/svg"
 width="63.931" height="63.931" viewBox="0 0 1076.000000 1075.000000"
 preserveAspectRatio="xMidYMid meet">

<g transform="translate(0.000000,1075.000000) scale(0.100000,-0.100000)"
fill="#000000" stroke="none">
<path d="M188 10742 c-9 -4 -32 -22 -52 -40 -20 -18 -39 -32 -43 -33 -14 -1
-53 -42 -53 -56 0 -8 -7 -24 -15 -37 -12 -19 -13 -29 -4 -52 6 -16 12 -39 14
-52 4 -38 21 -48 57 -34 30 11 34 10 68 -23 41 -40 88 -46 143 -20 58 26 231
95 241 95 5 0 24 -11 42 -25 40 -31 58 -31 78 -4 14 21 18 21 60 9 38 -10 46
-17 46 -36 0 -13 3 -25 8 -25 4 -1 17 -3 29 -4 13 -1 28 -7 35 -12 22 -16 95
-36 108 -28 11 7 90 -41 90 -55 0 -5 16 -18 36 -29 20 -12 38 -30 41 -41 3
-11 11 -20 19 -20 7 0 16 -12 20 -27 14 -66 26 -92 45 -98 10 -4 19 -15 19
-25 0 -29 11 -50 27 -50 9 0 12 -7 9 -17 -2 -10 -14 -56 -26 -102 -11 -46 -28
-98 -37 -115 -11 -21 -17 -57 -17 -108 -1 -55 -5 -78 -13 -78 -7 0 -14 -6 -14
-12 -1 -7 -3 -27 -5 -45 -3 -25 0 -31 11 -27 8 4 15 1 15 -5 0 -7 -7 -14 -15
-17 -8 -3 -17 -14 -20 -23 -3 -10 -15 -17 -27 -17 -22 1 -50 -38 -53 -74 -1
-8 -11 -34 -23 -57 -12 -23 -21 -52 -21 -65 0 -13 -7 -43 -16 -68 -9 -25 -17
-54 -18 -65 0 -11 -4 -25 -8 -31 -13 -16 -23 -121 -14 -141 5 -10 9 -33 9 -52
1 -34 1 -34 54 -38 55 -3 102 16 102 42 0 7 19 53 41 102 145 311 265 579 290
646 34 92 93 169 124 163 14 -3 26 5 40 27 11 18 33 38 48 45 15 7 27 18 27
24 0 5 -18 30 -40 55 -22 25 -40 51 -40 58 0 7 -6 15 -14 18 -14 6 -11 53 4
62 6 4 139 -142 160 -175 3 -4 16 -10 30 -11 18 -3 25 -10 25 -26 0 -24 176
-233 266 -318 l50 -47 -6 -74 c-6 -64 -5 -77 14 -107 11 -19 21 -41 21 -48 0
-8 18 -31 40 -52 25 -23 40 -46 40 -61 0 -33 38 -55 102 -59 29 -2 72 -12 95
-23 49 -22 212 -153 212 -171 1 -7 20 -25 44 -41 23 -17 49 -42 56 -56 8 -14
18 -26 22 -26 10 0 69 -81 69 -96 0 -7 -18 -32 -40 -56 -22 -23 -42 -51 -45
-60 -3 -9 -22 -27 -41 -38 -18 -12 -34 -25 -34 -30 0 -4 12 -27 27 -49 34 -53
48 -49 132 35 67 67 81 75 81 46 0 -24 31 -51 103 -91 100 -57 260 -232 288
-316 7 -22 34 -61 59 -86 25 -25 50 -52 55 -60 6 -8 21 -27 33 -44 12 -17 24
-50 26 -75 2 -24 9 -46 15 -48 7 -2 16 -14 21 -26 6 -18 14 -22 37 -19 25 4
30 0 45 -36 20 -45 86 -121 106 -121 23 0 103 -73 120 -110 11 -23 28 -38 48
-45 43 -14 56 -27 79 -78 11 -25 32 -53 47 -63 15 -10 29 -28 32 -39 6 -23 42
-74 95 -136 27 -31 40 -39 67 -39 43 0 100 -35 161 -100 26 -28 55 -50 66 -50
21 0 186 -160 242 -235 21 -27 45 -54 54 -59 29 -17 161 -156 161 -171 0 -7
10 -22 23 -32 12 -10 34 -35 50 -55 30 -41 124 -108 151 -108 9 0 55 -37 102
-82 46 -46 105 -101 130 -123 31 -28 48 -52 53 -75 5 -24 15 -39 34 -48 15 -7
27 -20 27 -28 0 -7 7 -14 15 -14 8 0 30 -14 49 -31 20 -17 49 -40 65 -52 17
-12 65 -47 108 -78 43 -32 119 -97 168 -145 74 -73 94 -98 107 -139 11 -37 23
-54 44 -65 16 -8 52 -39 79 -69 28 -29 89 -94 138 -145 48 -50 89 -98 92 -107
6 -18 66 -49 97 -49 19 0 148 -124 148 -142 0 -10 111 -142 124 -147 28 -11
108 -117 105 -138 -4 -21 2 -33 17 -33 8 0 13 -4 9 -10 -3 -5 28 -44 70 -87
47 -49 75 -86 75 -100 0 -12 11 -34 24 -50 23 -27 25 -27 44 -10 19 18 21 18
41 -4 21 -23 28 -49 13 -49 -5 0 -14 -11 -22 -24 -11 -21 -10 -27 3 -40 9 -9
20 -16 26 -16 6 0 18 -11 27 -25 9 -14 26 -25 38 -25 12 0 31 -7 42 -15 10 -8
30 -15 42 -15 31 0 114 -86 110 -115 -3 -27 46 -99 77 -113 14 -7 25 -15 25
-20 0 -5 28 -30 63 -55 35 -26 85 -73 113 -104 27 -32 74 -85 105 -118 55 -59
149 -189 149 -206 0 -5 -12 -4 -26 2 -24 8 -25 8 -14 -6 7 -8 23 -15 36 -15
18 0 32 -12 54 -47 17 -26 30 -50 30 -54 0 -5 15 -34 34 -66 21 -37 38 -83 45
-128 16 -91 36 -130 78 -150 39 -19 80 -13 118 16 36 29 31 42 -7 19 -39 -24
-91 -26 -108 -5 -9 11 -9 15 -1 15 8 0 7 8 -3 28 -7 15 -17 42 -21 59 -6 32
-6 33 22 27 17 -3 36 1 48 9 17 14 23 12 60 -18 22 -18 63 -44 92 -59 29 -14
57 -35 63 -46 8 -14 21 -20 45 -20 36 0 63 -18 210 -140 33 -28 80 -65 104
-82 48 -36 143 -129 179 -174 l23 -29 15 23 c21 29 34 28 34 -2 0 -17 9 -28
33 -39 49 -24 83 -63 141 -162 45 -78 56 -90 82 -93 64 -6 87 -4 95 9 8 11 14
9 32 -11 12 -14 38 -38 57 -54 19 -16 75 -67 124 -114 84 -80 90 -89 87 -123
-2 -47 17 -62 25 -20 4 17 10 31 14 31 4 0 27 -18 51 -40 24 -22 52 -40 61
-40 10 0 18 -4 18 -10 0 -5 25 -25 54 -44 30 -19 62 -46 71 -59 8 -13 37 -36
63 -50 60 -34 82 -51 82 -65 0 -6 6 -17 13 -24 7 -7 41 -44 77 -82 77 -84 137
-119 168 -98 18 12 21 11 27 -10 12 -38 40 -57 94 -64 44 -6 54 -11 72 -40 11
-19 25 -34 29 -34 5 0 17 -14 27 -30 9 -17 26 -30 36 -30 19 0 86 -45 100 -67
4 -7 15 -13 22 -13 13 0 15 74 15 533 l0 532 -69 43 c-37 23 -78 42 -89 42
-12 0 -27 10 -34 24 -7 13 -37 43 -67 67 -132 107 -166 130 -186 125 -28 -8
-65 31 -65 68 0 23 -12 42 -45 75 -44 44 -54 68 -36 86 13 13 41 152 35 170
-3 7 -1 22 5 33 6 11 15 53 21 93 6 41 23 119 36 174 14 55 32 129 40 165 9
36 45 154 81 263 54 162 73 209 109 257 61 84 81 134 89 226 6 69 4 88 -12
125 -11 24 -27 50 -36 58 -10 7 -17 20 -17 28 0 8 -14 33 -31 55 -17 21 -30
40 -28 42 2 2 20 9 39 14 54 17 171 61 218 83 l42 21 0 474 c0 372 -3 474 -12
475 -53 2 -103 11 -114 20 -9 7 -25 7 -53 -1 -22 -6 -52 -8 -67 -4 -23 6 -26
4 -21 -11 6 -14 3 -16 -17 -11 -15 4 -26 1 -29 -7 -4 -9 -8 -9 -15 2 -5 7 -14
11 -20 7 -5 -3 -29 1 -53 10 -24 8 -55 12 -67 9 -32 -8 -62 3 -62 21 0 13 2
13 16 0 26 -27 35 -8 9 20 -25 27 -59 30 -84 6 -10 -9 -17 -10 -24 -3 -16 16
-37 13 -31 -4 6 -16 -24 -14 -81 4 -33 10 -29 11 58 16 32 2 52 8 61 20 10 14
21 17 54 11 31 -4 43 -2 49 9 6 11 33 15 106 17 54 1 100 5 103 9 2 4 22 5 44
2 22 -3 46 -1 53 5 7 6 55 16 105 23 l93 12 -3 45 -3 46 -80 13 c-44 7 -165
24 -270 38 -104 14 -230 32 -280 40 -246 39 -549 85 -625 94 -68 8 -87 7 -95
-3 -8 -11 -13 -11 -22 -1 -7 7 -9 16 -6 19 4 3 -2 15 -11 25 -17 19 -17 20 4
31 14 7 19 17 15 29 -3 12 0 21 10 25 28 10 776 -110 1208 -195 174 -34 157
-32 157 -16 0 13 -12 16 -280 67 -187 35 -315 57 -435 75 -49 7 -135 20 -190
29 -55 8 -167 24 -250 36 -207 29 -219 32 -223 53 -5 25 35 23 287 -18 119
-19 234 -37 256 -40 106 -15 315 -51 558 -97 147 -28 271 -47 275 -44 10 11
-20 26 -53 27 -16 0 -46 7 -65 15 l-35 14 35 -5 c19 -2 55 -7 79 -11 39 -6 43
-5 39 12 -3 16 -21 22 -103 36 -55 9 -138 24 -185 32 -47 9 -146 25 -220 36
-74 11 -164 25 -200 30 -36 5 -119 14 -184 20 -66 6 -122 13 -125 15 -2 3 3 5
12 5 10 0 17 5 17 10 0 6 16 10 35 10 19 0 35 4 35 9 0 4 -58 10 -129 13 -71
3 -137 10 -147 16 -17 10 -16 11 8 12 49 0 282 -21 318 -30 32 -7 32 -8 8 -9
-50 -2 -29 -18 30 -24 31 -3 100 -13 152 -21 52 -9 115 -18 140 -20 71 -7 378
-56 458 -73 64 -13 95 -13 81 1 -5 5 -125 28 -348 65 -68 12 -131 26 -140 32
-20 12 47 4 129 -16 30 -8 82 -16 115 -19 81 -7 195 -23 223 -32 12 -3 22 -4
22 -1 0 8 -55 21 -150 37 -117 19 -262 48 -267 54 -9 9 103 -8 356 -54 30 -6
56 -8 59 -5 9 9 -21 36 -35 31 -8 -3 -11 -1 -8 4 3 6 15 10 26 10 32 0 19 34
-14 38 -28 3 -36 17 -14 25 6 2 -13 10 -43 17 -30 7 -59 16 -65 20 -14 10 -55
19 -55 13 0 -12 36 -32 58 -33 12 0 22 -4 22 -10 0 -13 -31 -13 -66 0 -36 14
-89 3 -74 -15 6 -8 28 -11 55 -10 25 2 45 -1 45 -6 0 -5 8 -9 19 -9 10 0 24
-7 32 -16 11 -14 8 -15 -32 -10 -71 9 -121 24 -130 37 -6 10 -11 10 -22 1 -11
-10 -17 -9 -27 3 -7 8 -29 15 -48 15 -55 0 -142 23 -142 37 0 7 -12 13 -26 13
-16 0 -23 -4 -18 -11 4 -8 -5 -9 -32 -5 -22 4 -61 8 -89 11 -79 6 -177 24
-218 40 -20 8 -64 15 -97 15 -32 0 -62 5 -65 11 -5 6 -11 4 -19 -7 -10 -13
-23 -16 -60 -12 -25 3 -49 2 -52 -3 -7 -12 -181 -4 -216 10 -33 12 -37 37 -8
46 12 4 19 14 18 23 -2 10 7 18 22 22 l25 7 -25 10 c-48 20 -89 25 -107 13
-16 -10 -16 -10 3 -5 11 3 28 -1 38 -8 16 -12 16 -14 -8 -40 -15 -16 -21 -29
-14 -33 6 -4 5 -10 -3 -15 -12 -8 -12 -10 -1 -18 11 -7 11 -9 -1 -14 -11 -4
-14 1 -12 19 2 22 -1 24 -24 19 -22 -5 -29 0 -44 25 -20 33 -51 39 -66 13 -7
-14 -4 -24 15 -44 20 -21 22 -28 11 -32 -8 -3 -25 4 -38 16 -28 26 -66 47 -85
47 -8 0 -31 9 -51 20 -21 11 -44 20 -51 20 -19 0 3 -37 28 -45 27 -9 26 -27
-2 -23 -11 2 -23 -3 -26 -11 -3 -10 1 -12 16 -9 12 4 26 0 33 -8 6 -8 18 -14
25 -14 8 0 14 -4 14 -10 0 -5 14 -10 31 -10 17 0 43 -8 57 -19 15 -10 40 -21
55 -25 15 -4 25 -11 22 -16 -4 -6 7 -10 24 -10 17 0 31 -4 31 -10 0 -6 -28
-10 -62 -10 -45 0 -59 -3 -48 -10 8 -5 25 -10 37 -10 23 0 56 -27 48 -39 -2
-5 -27 -6 -55 -3 -27 2 -50 2 -50 -1 0 -3 27 -14 60 -23 33 -9 57 -20 54 -25
-3 -5 2 -9 10 -9 21 0 20 -16 -1 -24 -14 -6 -14 -8 3 -21 10 -8 31 -15 46 -15
15 0 30 -4 33 -10 8 -14 4 -13 -141 15 -216 42 -315 57 -405 61 l-86 4 5 -25
c3 -18 0 -25 -12 -25 -9 0 -16 4 -16 10 0 13 -60 80 -72 80 -11 0 -38 25 -38
35 0 13 -86 86 -135 114 -50 29 -222 87 -286 96 -19 3 -67 8 -108 12 -67 6
-74 5 -68 -11 4 -11 1 -19 -11 -23 -9 -4 -19 -9 -22 -12 -3 -4 -18 -12 -35
-20 l-30 -13 30 -12 c42 -17 18 -30 -75 -40 -23 -3 -25 -7 -23 -45 1 -23 9
-56 17 -73 17 -33 13 -49 -6 -30 -18 18 -31 15 -24 -5 4 -11 -4 -7 -18 10 -14
15 -34 27 -44 27 -11 0 -24 6 -30 13 -10 12 -12 18 -12 37 0 6 -5 10 -11 10
-8 0 -9 -15 -4 -47 4 -27 7 -66 6 -88 -1 -23 2 -35 7 -28 4 7 13 9 21 4 9 -6
10 -11 2 -15 -8 -5 -7 -16 4 -36 11 -22 12 -29 2 -33 -8 -3 -2 -15 16 -35 16
-16 24 -32 19 -36 -14 -9 -50 36 -54 68 -2 16 -9 31 -16 34 -9 3 -10 -2 -3
-20 6 -15 5 -31 -1 -42 -8 -14 -7 -21 3 -27 12 -8 12 -10 0 -18 -9 -6 -10 -11
-2 -15 6 -4 11 -2 11 5 0 8 5 7 17 -3 10 -9 24 -13 31 -11 6 3 12 -3 12 -11 0
-9 11 -21 25 -26 14 -5 25 -14 25 -20 0 -17 -25 -11 -40 10 -17 23 -19 24 -43
6 -20 -16 -14 -38 20 -71 9 -10 17 -24 18 -34 3 -33 18 -64 96 -191 43 -72 79
-135 79 -140 0 -4 4 -10 9 -12 11 -4 97 -143 130 -209 13 -25 41 -68 63 -95
21 -27 56 -74 77 -104 45 -64 159 -175 286 -277 99 -81 274 -175 397 -216 138
-46 130 -47 264 28 205 115 216 127 235 240 7 38 5 55 -7 73 -8 12 -12 31 -9
41 4 13 -3 24 -20 35 -18 12 -24 23 -20 36 8 24 -25 43 -85 48 -41 3 -150 44
-150 56 0 2 15 0 32 -5 42 -12 51 -11 43 1 -3 6 3 10 14 10 12 0 21 -7 21 -15
0 -22 17 -18 23 5 4 14 10 18 22 14 10 -4 21 -1 26 7 7 11 9 11 9 -3 0 -19 15
-21 155 -23 69 -1 86 -5 100 -23 10 -13 43 -20 98 -21 16 -1 26 -5 22 -11 -7
-11 3 -13 55 -10 30 2 32 0 21 -14 -12 -14 -8 -16 40 -16 70 0 53 -18 -21 -22
-49 -3 -55 -5 -52 -24 2 -17 -2 -20 -25 -19 -15 1 -41 6 -58 10 -17 5 -27 4
-22 -1 5 -5 12 -9 15 -9 4 0 21 -5 37 -12 17 -6 39 -15 50 -19 11 -4 23 -6 28
-6 18 4 4 -41 -22 -70 -24 -27 -32 -31 -42 -21 -16 16 -43 17 -34 2 6 -9 -29
-43 -45 -44 -3 0 -13 -5 -24 -11 -12 -8 -15 -14 -7 -18 6 -4 11 -14 11 -23 0
-12 -7 -14 -37 -10 -27 5 -33 3 -25 -5 16 -16 15 -28 -3 -28 -8 0 -15 -7 -15
-15 0 -12 -78 -75 -93 -75 -3 0 -29 -16 -58 -36 -30 -20 -86 -51 -125 -69 -40
-18 -75 -38 -79 -44 -6 -11 38 4 61 21 6 5 54 4 105 -1 329 -35 365 -36 559
-14 36 5 84 8 107 8 24 0 43 3 43 6 0 14 63 18 104 7 37 -10 49 -9 80 6 39 19
70 11 80 -21 8 -25 26 -182 32 -278 3 -44 9 -104 15 -134 13 -77 11 -126 -6
-185 -8 -28 -31 -114 -49 -191 -72 -295 -128 -501 -143 -524 -11 -17 -12 -25
-4 -31 13 -8 4 -17 -40 -39 -30 -15 -58 -63 -40 -69 6 -2 -9 -23 -33 -48 -60
-61 -92 -60 -149 1 -24 25 -47 45 -52 45 -10 0 -60 37 -237 173 -41 31 -80 57
-86 57 -6 0 -15 6 -19 14 -4 8 -28 24 -53 37 -25 13 -69 48 -97 79 -44 46 -54
53 -64 40 -9 -13 -10 -12 -5 2 4 12 -10 30 -44 59 -28 23 -50 46 -50 50 0 5
-31 41 -70 81 -39 40 -70 77 -70 82 0 6 -19 29 -41 53 l-42 42 22 50 c11 27
21 67 20 88 l0 38 -13 -42 c-21 -65 -85 -163 -108 -163 -4 0 -8 14 -8 32 0 35
-20 98 -31 98 -4 0 -11 -4 -14 -10 -10 -16 -28 -12 -21 5 3 9 0 15 -8 15 -7 0
-18 11 -24 25 -6 14 -19 25 -28 25 -13 0 -14 -3 -4 -15 10 -12 10 -15 -4 -15
-9 0 -16 6 -16 14 0 8 -6 16 -12 18 -7 3 14 8 46 12 37 4 63 3 70 -4 14 -14
62 -13 73 3 6 6 10 34 10 60 0 34 -3 44 -9 33 -5 -9 -13 -14 -17 -11 -5 2 -11
-4 -14 -14 -3 -11 -16 -20 -35 -23 -26 -4 -32 -1 -37 19 -3 13 -3 28 0 33 4 6
2 10 -4 10 -5 0 -13 -9 -16 -20 -3 -11 -13 -20 -21 -20 -8 0 -14 -5 -14 -11 0
-6 -11 -8 -27 -5 -16 4 -41 8 -58 10 -80 11 -110 46 -39 46 31 0 34 3 34 29 0
22 10 38 42 65 23 20 39 36 35 36 -8 0 -90 -42 -97 -50 -3 -3 -30 -12 -60 -19
-30 -8 -60 -18 -66 -23 -15 -11 -47 19 -40 38 3 8 0 11 -10 7 -8 -3 -22 1 -32
9 -25 22 -71 31 -88 17 -8 -7 -17 -9 -21 -6 -3 4 -11 0 -17 -9 -12 -16 -46
-10 -46 8 0 6 7 8 15 5 23 -10 28 11 5 25 -11 7 -20 18 -20 25 0 7 -7 13 -15
13 -7 0 -18 6 -22 13 -12 19 -69 57 -86 57 -8 0 -30 26 -50 58 -34 56 -77 104
-77 87 0 -5 -9 1 -20 13 -12 12 -25 22 -29 22 -5 0 -7 8 -5 17 5 21 -127 163
-151 163 -8 0 -15 6 -15 13 0 8 -35 47 -77 88 -62 60 -119 123 -190 209 -2 2
-8 -2 -13 -10 -8 -12 -10 -11 -10 5 0 11 -14 29 -30 40 -16 11 -30 25 -30 31
0 6 -12 22 -27 36 -16 13 -92 96 -169 184 -78 87 -153 170 -168 183 -14 14
-26 31 -26 38 0 8 -13 22 -30 31 -16 9 -30 20 -30 24 0 3 -12 21 -26 38 -21
24 -29 28 -36 18 -7 -9 -8 -8 -4 6 5 13 -14 41 -71 105 -43 47 -80 88 -83 91
-4 3 -19 23 -36 45 -16 22 -54 65 -84 97 -30 31 -59 63 -65 71 -38 55 -84 108
-107 121 -34 21 -36 20 -41 -6 -2 -13 -3 -9 -2 7 2 26 -12 44 -99 131 -55 56
-123 116 -151 134 -27 18 -70 51 -95 72 -56 49 -63 54 -75 56 -5 1 -10 6 -10
11 0 15 -134 136 -146 132 -7 -2 -9 1 -5 7 3 5 -6 18 -20 27 -15 9 -40 33 -57
52 -29 33 -32 34 -45 16 -14 -17 -14 -17 -9 5 4 19 1 22 -24 22 -20 0 -39 11
-66 41 -21 22 -42 48 -47 57 -24 45 -70 93 -83 88 -8 -3 -11 -1 -8 4 3 6 1 10
-4 10 -6 0 -11 -5 -11 -12 0 -12 -15 -2 -15 10 -1 14 -29 59 -62 97 -19 22
-38 45 -43 52 -5 6 -34 16 -63 23 -61 12 -83 32 -116 103 -13 26 -27 47 -32
47 -5 0 -9 6 -9 14 0 19 -51 76 -70 77 -35 2 -116 55 -132 87 -9 18 -23 41
-32 51 -9 10 -16 25 -16 34 0 9 -6 17 -13 17 -18 0 -87 75 -131 143 -20 32
-51 66 -68 75 -18 10 -42 28 -55 41 -23 24 -24 29 -17 117 l7 91 -74 59 c-41
32 -99 81 -130 109 -68 61 -116 99 -174 137 -45 30 -132 127 -168 186 -10 18
-27 32 -38 32 -10 0 -23 9 -29 20 -6 12 -21 25 -33 30 -12 6 -30 16 -40 22
-14 11 -19 10 -26 -1 -12 -19 -108 109 -121 163 -18 68 -29 91 -57 111 -15 11
-41 32 -58 46 -16 14 -45 34 -62 43 -18 9 -49 32 -68 52 -19 19 -40 32 -45 29
-6 -3 -10 0 -10 8 0 8 -11 25 -26 38 -14 13 -39 44 -56 68 -17 24 -53 67 -79
95 -28 29 -49 61 -49 73 0 25 -30 93 -41 93 -4 0 -19 23 -33 50 -33 64 -70
105 -105 120 -16 6 -38 25 -51 42 -28 38 -79 60 -121 51 -22 -4 -30 -3 -26 5
7 10 -40 64 -79 92 -12 8 -29 31 -39 50 -10 19 -35 55 -55 80 -47 57 -56 74
-65 130 -9 58 -36 101 -89 145 -55 45 -70 45 -26 0 19 -19 30 -35 25 -35 -12
0 -61 45 -123 114 -18 20 -39 36 -47 36 -8 0 -15 6 -15 14 0 8 -9 18 -20 21
-11 3 -20 10 -20 14 0 8 -115 123 -178 177 -23 20 -50 50 -59 65 -10 16 -21
29 -25 29 -4 0 -40 34 -81 75 l-75 75 -195 0 c-120 0 -198 -4 -202 -10 -3 -5
-11 -10 -16 -10 -6 0 -7 4 -4 10 7 11 -1239 13 -1267 2z m1412 -89 c0 -5 -11
-9 -25 -9 -14 -1 -25 2 -25 7 0 5 11 9 25 9 14 0 25 -3 25 -7z m-34 -71 c-4
-4 -13 1 -20 10 -9 13 -16 14 -24 6 -6 -6 -18 -7 -29 -3 -15 6 -10 10 22 20
36 11 41 11 49 -6 5 -11 6 -23 2 -27z m-106 -242 c0 -5 -7 -7 -15 -4 -8 4 -15
8 -15 10 0 2 7 4 15 4 8 0 15 -4 15 -10z m-128 -51 c-5 -48 -26 -139 -32 -139
-9 0 -50 57 -50 70 0 5 9 10 21 10 16 0 19 4 14 20 -7 21 23 71 40 66 6 -1 9
-14 7 -27z m1048 -60 c0 -6 -4 -7 -10 -4 -5 3 -10 11 -10 16 0 6 5 7 10 4 6
-3 10 -11 10 -16z m-986 -156 c-9 -7 -21 -10 -26 -7 -14 9 1 23 23 21 19 -1
19 -2 3 -14z m176 -23 c0 -5 -7 -10 -16 -10 -8 0 -12 5 -9 10 3 6 10 10 16 10
5 0 9 -4 9 -10z m-300 -169 c0 -6 -4 -13 -10 -16 -5 -3 -10 1 -10 9 0 9 5 16
10 16 6 0 10 -4 10 -9z m160 -16 c0 -8 -9 -15 -20 -15 -25 0 -26 17 -2 23 9 3
18 5 20 6 1 0 2 -6 2 -14z m-10 -55 c0 -5 -7 -10 -16 -10 -8 0 -12 5 -9 10 3
6 10 10 16 10 5 0 9 -4 9 -10z m-50 -155 c0 -14 -4 -25 -9 -25 -4 0 -6 11 -3
25 2 14 6 25 8 25 2 0 4 -11 4 -25z m-79 -46 c-12 -19 -21 -42 -21 -51 0 -9
-5 -20 -11 -23 -19 -12 -22 3 -5 27 9 12 16 28 16 36 0 18 33 67 38 54 1 -5
-6 -25 -17 -43z m854 -229 c3 -5 1 -10 -4 -10 -6 0 -11 5 -11 10 0 6 2 10 4
10 3 0 8 -4 11 -10z m-1012 -72 c-19 -33 -40 -39 -35 -10 4 18 29 42 45 42 5
0 1 -14 -10 -32z m-133 -247 c0 -10 -7 -24 -15 -31 -16 -13 -18 -8 -9 28 8 27
24 29 24 3z m4052 -1796 c16 -14 27 -25 23 -25 -12 0 -65 34 -65 42 0 13 11 9
42 -17z m163 -196 c11 -17 -1 -21 -15 -4 -8 9 -8 15 -2 15 6 0 14 -5 17 -11z
m60 -29 c-3 -5 -12 -7 -20 -3 -21 7 -19 13 6 13 11 0 18 -4 14 -10z m5 -40 c0
-5 -7 -10 -15 -10 -8 0 -15 5 -15 10 0 6 7 10 15 10 8 0 15 -4 15 -10z m300
-270 c0 -5 -2 -10 -4 -10 -3 0 -8 5 -11 10 -3 6 -1 10 4 10 6 0 11 -4 11 -10z
m410 -320 c0 -5 -4 -10 -10 -10 -5 0 -10 5 -10 10 0 6 5 10 10 10 6 0 10 -4
10 -10z m3040 -42 c0 -5 -7 -3 -15 6 -8 8 -15 18 -15 22 0 3 7 1 15 -6 8 -7
15 -17 15 -22z m-1013 -10 c15 -6 38 -10 51 -9 12 1 22 -2 22 -7 0 -9 -119
-26 -127 -18 -5 5 15 46 22 46 2 0 16 -5 32 -12z m-1967 -8 c0 -5 -2 -10 -4
-10 -3 0 -8 5 -11 10 -3 6 -1 10 4 10 6 0 11 -4 11 -10z m3755 -19 c40 -9 40
-9 -15 -9 -30 0 -64 3 -75 8 -16 7 -13 9 15 9 19 0 53 -4 75 -8z m82 -17 c-3
-3 -12 -4 -19 -1 -8 3 -5 6 6 6 11 1 17 -2 13 -5z m-113 -20 c28 -2 55 -9 60
-15 15 -15 -134 -1 -189 17 l-40 14 60 -6 c33 -3 82 -8 109 -10z m285 -10 c9
-8 -55 -2 -74 6 -13 6 -5 7 25 3 25 -3 47 -7 49 -9z m-124 -15 c13 -6 4 -7
-30 -3 -27 4 -52 8 -54 10 -9 8 65 2 84 -7z m178 4 c-7 -2 -19 -2 -25 0 -7 3
-2 5 12 5 14 0 19 -2 13 -5z m-586 -9 c-3 -3 -12 -4 -19 -1 -8 3 -5 6 6 6 11
1 17 -2 13 -5z m491 -11 c-10 -2 -28 -2 -40 0 -13 2 -5 4 17 4 22 1 32 -1 23
-4z m255 0 c-7 -2 -19 -2 -25 0 -7 3 -2 5 12 5 14 0 19 -2 13 -5z m-45 -23
c14 -8 11 -9 -11 -4 -16 4 -63 10 -105 15 l-77 8 88 -4 c48 -2 95 -9 105 -15z
m-4011 -22 c-3 -8 -6 -5 -6 6 -1 11 2 17 5 13 3 -3 4 -12 1 -19z m3978 -7 c23
-8 13 -9 -40 -5 -39 2 -84 9 -100 14 -23 8 -14 9 40 5 39 -3 84 -9 100 -14z
m-1451 -108 c4 -4 36 -6 70 -5 71 4 180 -14 213 -34 14 -9 34 -12 50 -8 23 4
25 3 13 -6 -12 -10 -11 -11 8 -7 13 3 29 -1 37 -10 9 -8 22 -12 31 -9 8 3 12
2 9 -4 -6 -9 53 -29 90 -31 11 0 15 -3 8 -5 -7 -3 -92 6 -190 20 -98 15 -193
28 -212 31 -18 2 -39 12 -46 22 -9 12 -24 16 -49 15 -26 -2 -36 1 -36 12 0 8
-6 17 -12 19 -7 3 -8 6 -2 6 6 1 14 -2 18 -6z m-201 -70 c-13 -2 -33 -2 -45 0
-13 2 -3 4 22 4 25 0 35 -2 23 -4z m992 -83 c28 -6 173 -26 324 -45 245 -30
306 -43 289 -60 -3 -3 -38 -1 -79 5 -41 5 -157 19 -259 30 -171 20 -329 42
-390 56 l-25 6 25 13 c14 8 34 12 45 10 11 -2 43 -9 70 -15z m-1715 -5 c0 -9
11 -20 25 -25 18 -7 25 -17 25 -35 0 -35 -11 -31 -40 15 -14 22 -28 40 -32 40
-5 0 -8 5 -8 10 0 6 7 10 15 10 8 0 15 -7 15 -15z m922 -29 c56 -13 143 -29
192 -37 49 -7 84 -15 77 -17 -33 -11 -363 48 -385 69 -15 14 2 11 116 -15z
m-932 -136 c0 -5 -7 -10 -16 -10 -8 0 -12 5 -9 10 3 6 10 10 16 10 5 0 9 -4 9
-10z m1731 -21 c19 -6 52 -19 74 -29 22 -10 54 -21 70 -23 17 -3 68 -19 115
-35 l85 -31 -52 3 c-29 2 -59 8 -66 14 -14 12 -128 9 -148 -4 -7 -4 -40 -7
-73 -6 -44 1 -55 -1 -41 -8 18 -8 17 -9 -9 -9 -29 -1 -29 -1 -10 -22 l19 -22
-47 7 c-39 6 -48 4 -48 -8 0 -8 8 -19 17 -25 29 -16 9 -22 -36 -12 -24 5 -43
5 -47 0 -3 -5 -22 -8 -43 -7 -21 0 -43 -2 -49 -6 -7 -4 -12 -2 -12 3 0 6 6 11
14 11 9 0 12 7 9 20 -5 19 -32 26 -84 21 -9 -1 -19 5 -22 14 -4 8 -19 16 -34
16 -27 2 -27 2 -3 6 13 3 34 12 45 20 19 14 17 15 -25 9 -25 -3 -75 -9 -112
-13 -38 -3 -68 -10 -68 -15 0 -5 12 -8 28 -6 17 2 26 -2 25 -10 -2 -6 2 -12 7
-12 6 0 10 -9 10 -20 0 -11 6 -20 13 -20 29 0 87 -22 82 -31 -10 -14 -41 -11
-56 7 -9 11 -24 15 -50 11 -21 -3 -41 -1 -47 5 -6 6 -22 2 -43 -11 -19 -12
-28 -21 -21 -21 18 0 15 -18 -6 -29 -11 -6 -32 -5 -60 2 -39 10 -57 27 -29 27
9 0 9 2 -1 9 -10 6 -8 10 9 14 13 4 20 9 16 13 -4 4 1 13 11 20 15 12 12 13
-23 14 -22 0 -47 -5 -55 -10 -13 -8 -13 -10 0 -10 10 0 7 -5 -8 -16 -12 -8
-27 -12 -32 -9 -6 3 -10 -1 -10 -9 0 -9 7 -16 15 -16 8 0 15 5 15 10 0 6 7 10
15 10 29 0 14 -29 -21 -40 -19 -7 -36 -10 -37 -8 -1 1 -8 18 -14 37 -16 44 0
57 80 66 61 7 80 19 47 30 -11 3 -36 -1 -55 -11 -20 -9 -38 -14 -41 -12 -11
11 60 69 90 74 17 3 54 9 81 14 165 31 245 41 313 40 110 -2 111 -2 129 20 15
17 30 20 94 20 42 0 91 -5 110 -11z m224 -109 c3 -5 -1 -10 -9 -10 -9 0 -16 5
-16 10 0 6 4 10 9 10 6 0 13 -4 16 -10z m149 -25 c3 -8 12 -12 20 -9 8 3 32 0
53 -7 l38 -12 -29 -8 c-19 -5 -38 -3 -55 5 -14 7 -31 12 -36 10 -6 -3 -11 5
-11 16 0 23 11 26 20 5z m-99 -17 c-4 -12 -1 -18 9 -18 8 0 18 -4 21 -10 4 -6
-19 -10 -62 -9 -37 1 -57 4 -43 6 53 10 45 24 -12 21 -47 -2 -55 -5 -45 -17
10 -12 8 -13 -13 -6 -14 4 -30 12 -37 17 -7 5 -16 7 -21 5 -4 -3 -14 -2 -22 3
-10 6 -6 10 16 15 16 4 34 8 39 10 6 2 47 3 93 3 75 -1 82 -3 77 -20z m-250
-36 c-3 -3 -11 0 -18 7 -9 10 -8 11 6 5 10 -3 15 -9 12 -12z m-755 -6 c0 -3
-4 -8 -10 -11 -5 -3 -10 -1 -10 4 0 6 5 11 10 11 6 0 10 -2 10 -4z m1265 -16
c3 -5 -1 -10 -9 -10 -8 0 -18 5 -21 10 -3 6 1 10 9 10 8 0 18 -4 21 -10z
m-125 -30 c12 -8 12 -10 -5 -10 -11 0 -27 5 -35 10 -12 8 -12 10 5 10 11 0 27
-5 35 -10z m-787 -27 c-7 -2 -19 -2 -25 0 -7 3 -2 5 12 5 14 0 19 -2 13 -5z
m123 -5 c-4 7 -1 12 8 12 21 0 20 -17 -1 -29 -16 -9 -16 -10 5 -11 12 0 22 -5
22 -10 0 -6 -10 -8 -22 -5 -13 3 -41 9 -63 13 l-40 9 33 7 c17 4 32 12 32 18
0 6 7 5 17 -3 11 -10 14 -10 9 -1z m281 6 c-3 -3 -12 -4 -19 -1 -8 3 -5 6 6 6
11 1 17 -2 13 -5z m-745 -26 c-7 -7 -12 -8 -12 -2 0 14 12 26 19 19 2 -3 -1
-11 -7 -17z m1775 8 c4 -3 -8 -6 -25 -6 -17 0 -34 4 -37 10 -6 10 51 7 62 -4z
m-1734 -27 c-18 -11 -38 -17 -44 -13 -14 8 27 33 56 33 16 1 14 -3 -12 -20z
m-183 -19 c0 -5 -5 -10 -11 -10 -5 0 -7 5 -4 10 3 6 8 10 11 10 2 0 4 -4 4
-10z m775 -30 c8 -13 -35 -13 -55 0 -11 7 -7 10 17 10 17 0 35 -4 38 -10z m63
3 c-10 -2 -26 -2 -35 0 -10 3 -2 5 17 5 19 0 27 -2 18 -5z m-671 -19 c-3 -3
-12 -4 -19 -1 -8 3 -5 6 6 6 11 1 17 -2 13 -5z m323 -64 c0 -5 -5 -10 -11 -10
-5 0 -7 5 -4 10 3 6 8 10 11 10 2 0 4 -4 4 -10z m-1935 -200 c4 -6 -5 -10 -20
-10 -15 0 -24 4 -20 10 3 6 12 10 20 10 8 0 17 -4 20 -10z m425 -460 c0 -5 -2
-10 -4 -10 -3 0 -8 5 -11 10 -3 6 -1 10 4 10 6 0 11 -4 11 -10z m270 -320 c0
-5 -4 -10 -10 -10 -5 0 -10 5 -10 10 0 6 5 10 10 10 6 0 10 -4 10 -10z m64 -5
c3 -8 1 -15 -3 -15 -5 0 -11 7 -15 15 -3 8 -1 15 3 15 5 0 11 -7 15 -15z m306
-315 c-20 -13 -40 -13 -40 0 0 6 12 10 28 10 21 0 24 -2 12 -10z m194 -38 c4
-3 2 -8 -5 -13 -12 -8 -11 -11 1 -19 8 -5 23 -7 33 -4 11 3 17 0 17 -10 0 -15
-53 -32 -70 -21 -5 3 -10 -1 -10 -10 0 -11 -7 -15 -22 -13 -32 4 -29 32 4 38
l27 5 -20 25 c-12 14 -18 19 -14 13 3 -7 1 -13 -4 -13 -6 0 -11 7 -11 16 0 11
8 15 33 13 17 -2 36 -5 41 -7z m-94 -42 c0 -13 -11 -13 -30 0 -12 8 -11 10 8
10 12 0 22 -4 22 -10z m-31 -19 c12 -8 9 -11 -12 -17 -30 -7 -43 -1 -32 15 8
13 25 14 44 2z m141 -31 c-8 -5 -19 -10 -25 -10 -5 0 -3 5 5 10 8 5 20 10 25
10 6 0 3 -5 -5 -10z m136 1 c-3 -5 -17 -8 -31 -8 -14 0 -25 3 -25 8 0 5 14 9
31 9 16 0 28 -4 25 -9z m-187 -34 c8 -11 5 -19 -15 -38 -22 -21 -24 -21 -18
-4 4 11 12 23 18 27 6 4 7 10 3 14 -4 4 -13 2 -19 -4 -16 -16 -28 -15 -28 3 0
19 43 20 59 2z m-79 -23 c0 -16 -32 -35 -48 -28 -15 6 -14 8 6 11 12 3 22 9
22 14 0 5 5 9 10 9 6 0 10 -3 10 -6z m30 -43 c0 -5 -9 -11 -20 -14 -11 -3 -20
-1 -20 3 0 5 8 11 18 13 9 3 18 5 20 6 1 0 2 -3 2 -8z m118 -121 c-7 -10 -14
-17 -17 -15 -4 4 18 35 25 35 2 0 -1 -9 -8 -20z m-171 -236 c-3 -3 -12 -4 -19
-1 -8 3 -5 6 6 6 11 1 17 -2 13 -5z m803 -44 c0 -5 -2 -10 -4 -10 -3 0 -8 5
-11 10 -3 6 -1 10 4 10 6 0 11 -4 11 -10z m120 -84 c0 -3 -4 -8 -10 -11 -5 -3
-10 -1 -10 4 0 6 5 11 10 11 6 0 10 -2 10 -4z m335 -346 c3 -5 2 -10 -4 -10
-5 0 -13 5 -16 10 -3 6 -2 10 4 10 5 0 13 -4 16 -10z"/>
<path d="M8885 5561 c-10 -17 12 -21 25 -6 10 12 10 15 -3 15 -9 0 -18 -4 -22
-9z"/>
<path d="M7525 8093 c-22 -3 -45 -9 -52 -15 -7 -5 -22 -7 -35 -3 -15 4 -18 3
-10 -3 9 -6 1 -12 -27 -22 -33 -10 -43 -11 -56 0 -18 15 -65 5 -65 -14 0 -8
-17 -20 -37 -26 -21 -7 -42 -16 -47 -21 -6 -5 -22 -9 -37 -9 -16 0 -33 -9 -45
-25 -10 -14 -24 -23 -31 -21 -7 3 -18 -3 -26 -14 -9 -13 -17 -16 -27 -9 -25
15 -40 10 -52 -16 -6 -13 -15 -22 -19 -19 -5 3 -9 0 -9 -5 0 -6 -7 -11 -15
-11 -7 0 -18 -8 -24 -17 -8 -14 -12 -15 -22 -6 -9 9 -16 10 -26 1 -8 -6 -27
-11 -43 -10 -17 0 -30 -3 -30 -8 0 -5 -14 -17 -30 -27 -17 -10 -33 -28 -36
-40 -4 -13 -9 -23 -13 -24 -51 -5 -77 -11 -85 -19 -6 -6 -8 -10 -6 -11 3 0 48
-8 100 -18 104 -18 124 -37 61 -57 l-34 -11 36 -7 c39 -7 42 -12 28 -35 -8
-13 -24 -13 -118 2 -59 9 -173 19 -253 22 -169 7 -268 22 -289 42 -17 18 -70
12 -102 -10 -20 -14 -18 -16 33 -31 29 -9 107 -27 173 -42 387 -83 595 -147
667 -204 20 -17 41 -30 47 -30 6 0 20 -13 33 -30 12 -16 27 -30 33 -30 6 0 22
-11 35 -25 13 -14 27 -25 32 -25 5 0 25 -16 45 -35 37 -36 53 -43 53 -24 0 27
202 -164 246 -233 26 -41 38 -49 31 -20 -3 9 -8 35 -12 56 -6 35 -5 38 9 27 8
-7 19 -10 25 -7 13 8 62 -11 88 -36 26 -24 63 -17 63 13 0 36 38 3 46 -39 4
-20 11 -45 15 -54 7 -13 5 -16 -10 -15 -11 1 -24 11 -30 24 -6 13 -15 23 -20
23 -18 0 3 -36 39 -67 26 -22 40 -28 55 -23 11 5 31 6 45 2 23 -5 24 -4 11 12
-9 10 -21 14 -34 10 -22 -7 -37 10 -37 44 0 20 10 27 33 23 4 -1 3 8 -3 19
-13 24 -3 70 16 70 18 0 18 14 -1 50 l-15 30 47 -7 c60 -7 95 -25 117 -57 10
-16 26 -26 41 -26 27 0 33 18 13 39 -11 11 -9 12 7 7 11 -3 27 -1 34 4 12 7 8
10 -15 16 -30 8 -104 52 -104 63 0 4 9 15 21 24 11 10 18 25 15 33 -3 8 -2 13
2 12 48 -24 62 -34 62 -49 0 -11 11 -20 30 -24 16 -4 32 -11 35 -16 9 -13 22
-11 40 8 10 9 34 17 54 17 20 1 43 5 51 10 8 6 28 9 45 8 21 -2 38 4 49 17 10
11 24 17 31 15 7 -3 16 -1 20 5 3 6 14 11 23 11 12 0 10 -5 -9 -17 -26 -16
-26 -16 -7 -35 27 -27 50 -19 60 20 10 36 19 39 42 16 19 -18 22 -4 4 15 -11
11 -10 13 5 7 10 -3 23 -6 28 -6 5 0 9 -7 9 -15 0 -9 6 -12 17 -8 13 5 15 2
10 -11 -7 -17 -3 -20 46 -30 22 -5 27 -3 27 14 0 17 3 19 19 8 11 -7 17 -16
15 -20 -3 -4 5 -8 18 -8 13 0 29 -4 37 -9 11 -7 10 -11 -5 -19 -17 -10 -17
-11 6 -16 31 -6 150 -14 150 -9 0 2 -10 8 -22 13 -20 7 -17 9 17 9 22 0 74 -4
115 -10 41 -6 89 -12 105 -14 17 -1 44 -6 60 -10 34 -9 32 -7 -40 51 -27 22
-67 48 -87 58 -21 9 -38 23 -38 31 0 8 -4 15 -9 15 -13 0 -129 98 -226 191
-44 42 -98 92 -120 110 -22 19 -50 43 -62 54 -29 27 -133 156 -133 165 0 4
-33 39 -72 78 -191 185 -298 246 -505 285 -83 16 -242 26 -308 20z m-175 -204
c0 -5 -9 -9 -20 -9 -19 0 -27 20 -13 33 7 8 33 -11 33 -24z m693 -324 c34 -32
34 -35 -3 -35 -23 0 -33 6 -39 23 -17 43 2 48 42 12z m-1173 -40 c10 -13 9
-15 -8 -15 -22 0 -36 13 -25 24 10 10 20 7 33 -9z m1171 -15 c25 -14 25 -30
-1 -23 -24 6 -49 33 -31 33 7 0 21 -5 32 -10z m-910 -127 c27 -14 49 -30 49
-34 0 -9 -72 19 -80 30 -3 4 -14 13 -25 19 -12 7 -14 12 -6 12 7 0 35 -12 62
-27z m284 -15 c4 -13 23 -40 43 -60 20 -21 30 -38 23 -38 -18 0 -115 56 -131
75 -19 23 -4 45 29 45 22 0 31 -6 36 -22z m620 -82 c1 -14 -4 -26 -10 -26 -18
0 -35 23 -35 47 0 19 3 21 23 14 15 -6 22 -17 22 -35z m-619 -54 c-9 -9 -37 8
-31 18 5 8 11 7 21 -1 8 -6 12 -14 10 -17z m88 -78 c4 -9 4 -19 2 -21 -8 -8
-26 8 -26 23 0 19 16 18 24 -2z m1289 -41 c-7 -2 -21 -2 -30 0 -10 3 -4 5 12
5 17 0 24 -2 18 -5z m-1103 -28 c0 -1 -9 -5 -19 -8 -13 -3 -18 -1 -14 9 4 10
33 10 33 -1z m-258 -60 c11 -20 11 -20 -11 0 -13 11 -28 29 -33 40 -11 20 -11
20 11 0 13 -11 28 -29 33 -40z"/>
<path d="M8471 7083 c0 -11 3 -13 6 -5 4 10 8 10 21 0 13 -11 14 -11 10 2 -7
23 -38 25 -37 3z"/>
<path d="M8008 7073 c7 -3 16 -2 19 1 4 3 -2 6 -13 5 -11 0 -14 -3 -6 -6z"/>
<path d="M8523 7062 c-33 -25 -16 -45 31 -37 20 4 39 11 42 16 3 5 14 9 25 9
10 0 19 6 19 14 0 21 -89 19 -117 -2z"/>
<path d="M7833 7005 c-1 -25 5 -38 22 -49 18 -12 25 -12 28 -3 3 9 9 8 23 -3
10 -8 -1 8 -25 35 -25 28 -45 51 -46 52 0 1 -1 -13 -2 -32z"/>
<path d="M8763 7007 c-37 -13 -43 -26 -13 -34 11 -3 20 -9 20 -14 0 -15 -57
-10 -70 6 -18 22 -56 18 -79 -7 -18 -18 -24 -20 -46 -10 -26 12 -107 1 -130
-18 -5 -4 -38 -8 -72 -8 -47 0 -63 3 -63 14 0 9 -11 14 -29 14 -32 0 -50 -15
-29 -23 7 -3 3 -6 -9 -6 -13 -1 -23 -7 -23 -14 0 -6 -13 -18 -30 -25 -29 -13
-29 -14 -15 -43 18 -34 30 -37 46 -8 10 20 12 20 27 4 13 -13 14 -19 5 -22
-21 -8 -15 -32 6 -26 11 3 21 -2 24 -11 4 -9 11 -16 17 -16 17 0 11 26 -10 45
-30 27 -10 37 32 17 42 -19 48 -37 17 -47 l-21 -7 21 -14 c21 -15 77 -13 74 2
-1 5 -4 26 -8 47 -5 23 -3 37 3 37 6 0 12 -6 15 -12 2 -7 8 -10 12 -6 4 4 2
14 -5 23 -16 19 -10 19 26 0 16 -8 32 -11 37 -6 5 5 22 5 38 1 16 -5 32 -9 34
-9 3 -1 21 -7 40 -16 32 -13 38 -13 55 3 29 24 77 25 83 0 3 -11 0 -21 -8 -24
-19 -8 -35 4 -35 24 0 12 -3 13 -11 5 -7 -7 -8 -17 -3 -25 5 -7 7 -20 6 -30
-4 -24 16 -32 82 -34 43 -1 61 -6 68 -18 12 -22 32 -21 23 2 -4 9 -8 29 -9 45
-2 31 -26 60 -33 41 -2 -7 -13 -10 -23 -7 -16 4 -20 0 -21 -18 -1 -17 -4 -13
-11 14 -12 46 -9 51 27 37 21 -8 30 -8 36 1 4 6 12 8 18 5 6 -4 25 0 42 8 17
9 35 13 40 11 4 -3 10 -1 13 4 9 13 -17 31 -49 33 -16 2 -30 10 -32 19 -3 10
-13 19 -23 22 -13 3 -17 1 -13 -11 5 -12 0 -14 -26 -10 -27 4 -30 2 -25 -14 3
-10 2 -18 -3 -18 -24 1 -52 14 -57 27 -5 12 -1 14 14 10 11 -3 23 -1 26 4 3 5
15 9 27 9 16 0 18 3 9 12 -19 19 -14 28 13 28 27 0 34 17 10 26 -8 4 -12 10
-9 15 6 11 0 10 -43 -4z m-478 -114 c9 -12 28 -17 64 -18 32 0 53 -5 56 -13 3
-7 0 -10 -6 -7 -5 4 -16 2 -23 -4 -10 -8 -22 -8 -40 -1 -15 5 -38 10 -51 10
-21 0 -45 24 -45 44 0 13 34 5 45 -11z m295 -18 c11 -13 7 -15 -24 -15 -34 0
-44 8 -29 23 11 12 40 8 53 -8z m245 -5 c-3 -5 -12 -7 -20 -3 -21 7 -19 13 6
13 11 0 18 -4 14 -10z"/>
<path d="M9018 6993 c7 -3 16 -2 19 1 4 3 -2 6 -13 5 -11 0 -14 -3 -6 -6z"/>
<path d="M9115 6995 c-5 -2 -22 -6 -37 -9 -25 -6 -26 -9 -18 -32 6 -14 10 -27
10 -29 0 -2 -18 -1 -40 2 -26 4 -40 2 -40 -6 0 -6 10 -12 23 -13 36 -2 41 -3
55 -11 14 -10 17 -57 2 -57 -5 0 -14 9 -20 21 -19 35 -22 14 -3 -25 14 -29 20
-34 28 -24 5 8 18 17 29 21 16 6 18 4 13 -22 -7 -36 13 -61 49 -61 23 0 34 15
15 22 -5 2 -12 17 -15 34 -6 26 -4 32 13 37 23 6 29 37 8 37 -7 0 -23 9 -35
20 -12 11 -29 20 -39 20 -14 1 -12 4 8 15 26 14 99 10 99 -5 0 -5 15 -7 34 -5
19 2 43 -3 53 -11 25 -18 63 -18 63 1 0 19 -30 31 -96 40 -53 6 -123 24 -139
35 -5 4 -14 6 -20 5z m-10 -45 c3 -6 -1 -7 -9 -4 -18 7 -21 14 -7 14 6 0 13
-4 16 -10z m36 -173 c-8 -8 -11 -4 -11 14 0 33 14 47 18 19 2 -12 -1 -27 -7
-33z"/>
<path d="M8320 6945 c0 -17 2 -18 24 -9 18 7 12 24 -10 24 -8 0 -14 -7 -14
-15z"/>
<path d="M7538 6934 c-17 -16 36 -126 56 -118 26 10 25 32 -4 78 -28 44 -40
53 -52 40z"/>
<path d="M9511 6863 c-10 -18 -3 -53 10 -53 5 0 9 -7 9 -16 0 -11 6 -14 21 -9
15 5 22 2 26 -14 3 -12 13 -21 24 -21 10 0 21 -5 24 -11 5 -7 13 -5 25 6 13
12 23 13 44 5 36 -13 36 -13 36 10 0 13 -10 22 -32 28 -18 5 -48 22 -65 38
-18 15 -51 34 -73 40 -34 10 -41 10 -49 -3z m94 -33 c3 -5 -1 -10 -9 -10 -9 0
-16 5 -16 10 0 6 4 10 9 10 6 0 13 -4 16 -10z m35 -66 c0 -2 -9 -4 -20 -4 -11
0 -20 4 -20 9 0 5 9 7 20 4 11 -3 20 -7 20 -9z"/>
<path d="M9425 6857 c-4 -10 -5 -21 -1 -24 10 -10 18 4 13 24 -4 17 -4 17 -12
0z"/>
<path d="M7835 6840 c3 -5 10 -10 16 -10 5 0 9 5 9 10 0 6 -7 10 -16 10 -8 0
-12 -4 -9 -10z"/>
<path d="M8180 6764 c-14 -7 -29 -15 -35 -17 -13 -5 20 -37 38 -37 19 0 60 46
52 59 -8 14 -24 13 -55 -5z"/>
<path d="M9258 6767 c-28 -11 -36 -31 -19 -41 5 -4 11 -1 13 6 3 8 14 7 38 -5
37 -19 46 -16 35 10 -5 10 -9 22 -9 28 -1 14 -26 15 -58 2z"/>
<path d="M9803 6767 c2 -7 10 -12 18 -12 8 0 28 -6 46 -14 18 -7 38 -11 45 -8
7 3 4 6 -7 6 -12 1 -26 6 -31 11 -17 17 -76 31 -71 17z"/>
<path d="M9671 6734 c0 -11 3 -14 6 -6 3 7 2 16 -1 19 -3 4 -6 -2 -5 -13z"/>
<path d="M9480 6710 c0 -5 5 -10 10 -10 6 0 10 5 10 10 0 6 -4 10 -10 10 -5 0
-10 -4 -10 -10z"/>
<path d="M9970 6695 c0 -8 4 -15 10 -15 5 0 7 7 4 15 -4 8 -8 15 -10 15 -2 0
-4 -7 -4 -15z"/>
<path d="M7521 6684 c0 -11 3 -14 6 -6 3 7 2 16 -1 19 -3 4 -6 -2 -5 -13z"/>
<path d="M7551 6648 c-1 -38 4 -62 14 -72 8 -8 15 -19 15 -25 0 -22 18 -10 30
18 16 41 9 66 -18 65 -16 0 -24 6 -28 25 -11 48 -12 46 -13 -11z"/>
<path d="M9520 6690 c0 -5 7 -10 16 -10 8 0 12 5 9 10 -3 6 -10 10 -16 10 -5
0 -9 -4 -9 -10z"/>
<path d="M9440 6680 c0 -5 5 -10 11 -10 5 0 7 5 4 10 -3 6 -8 10 -11 10 -2 0
-4 -4 -4 -10z"/>
<path d="M9527 6664 c-9 -9 19 -34 37 -34 8 0 18 -5 22 -11 5 -9 -1 -10 -20
-5 -15 4 -26 2 -26 -4 0 -5 -11 -10 -25 -10 -19 0 -25 5 -25 21 0 14 -5 19
-17 17 -12 -3 -17 -12 -16 -26 2 -18 -2 -21 -25 -18 -15 2 -19 1 -9 -1 9 -2
17 -9 17 -14 0 -5 12 -6 26 -3 33 8 136 -16 131 -30 -4 -10 -37 -11 -127 -1
-19 2 -62 6 -95 10 -32 3 -64 10 -70 14 -17 14 -88 24 -80 12 3 -6 13 -11 21
-11 8 0 25 -11 37 -24 12 -13 36 -26 52 -29 90 -16 153 -31 182 -43 22 -9 41
-10 63 -4 25 7 36 6 47 -6 11 -10 25 -13 51 -8 21 4 38 8 40 9 7 6 -12 35 -23
35 -20 0 -38 28 -30 47 5 12 9 14 12 6 6 -16 25 -16 58 -1 31 14 32 22 3 36
-22 10 -21 11 12 13 47 2 60 0 94 -17 16 -7 32 -11 37 -8 5 3 12 -2 15 -11 4
-9 12 -14 19 -11 13 4 119 -22 195 -49 62 -22 171 -29 195 -11 17 12 16 13 -9
20 -19 5 -26 12 -22 21 7 20 -24 35 -70 35 -20 0 -53 4 -73 9 -20 5 -72 15
-116 21 -106 15 -125 20 -125 32 0 11 44 6 165 -17 90 -17 181 -25 163 -14
-10 7 -10 9 2 9 27 1 -33 27 -102 45 -53 13 -71 14 -89 5 -14 -8 -48 -10 -95
-7 -62 5 -74 3 -74 -9 0 -11 -9 -14 -39 -10 -22 2 -45 8 -52 12 -27 16 -96 22
-137 12 -32 -8 -46 -8 -55 1 -12 12 -40 15 -50 5z m113 -54 c0 -5 -4 -10 -9
-10 -6 0 -13 5 -16 10 -3 6 1 10 9 10 9 0 16 -4 16 -10z m45 -10 c-3 -5 -14
-10 -23 -10 -15 0 -15 2 -2 10 20 13 33 13 25 0z m-38 -62 c-3 -8 -6 -5 -6 6
-1 11 2 17 5 13 3 -3 4 -12 1 -19z"/>
<path d="M8680 6641 c0 -11 -5 -23 -11 -27 -8 -5 -7 -9 4 -15 19 -11 47 -1 47
17 0 8 5 14 11 14 8 0 8 5 -1 15 -18 22 -50 19 -50 -4z"/>
<path d="M8972 6646 c-56 -12 -69 -27 -30 -37 14 -3 28 1 35 10 11 14 12 14
13 -4 0 -17 2 -18 10 -5 9 13 13 12 26 -5 16 -20 16 -20 11 2 -4 19 -2 21 20
12 20 -7 24 -6 21 8 -4 24 -45 31 -106 19z"/>
<path d="M8790 6640 c-12 -8 -10 -10 8 -10 20 0 21 -2 10 -13 -7 -8 -20 -16
-27 -18 -8 -3 -15 -18 -17 -35 -3 -26 1 -32 30 -42 39 -14 57 -15 36 -2 -22
14 -3 25 24 12 20 -9 25 -7 35 14 6 14 19 24 31 24 19 0 19 2 -7 24 -15 14
-29 20 -31 15 -2 -5 -11 -9 -19 -9 -10 0 -14 6 -10 19 3 14 -2 21 -17 25 -27
7 -28 7 -46 -4z m90 -64 c0 -8 -6 -16 -14 -19 -10 -4 -12 0 -9 14 6 22 23 26
23 5z"/>
<path d="M9160 6630 c-25 -9 -54 -20 -65 -24 -11 -5 -27 -10 -35 -12 -12 -4
-12 -6 -1 -14 8 -4 24 -5 35 -1 12 4 40 7 63 6 25 0 42 3 42 9 -3 27 2 36 20
36 11 0 23 5 26 10 9 15 -33 10 -85 -10z"/>
<path d="M9345 6610 c-3 -5 -1 -10 4 -10 6 0 11 5 11 10 0 6 -2 10 -4 10 -3 0
-8 -4 -11 -10z"/>
<path d="M10254 6605 c8 -8 21 -15 28 -15 8 1 6 6 -6 15 -26 20 -42 19 -22 0z"/>
<path d="M8356 6579 c-20 -20 -31 -27 -36 -19 -5 8 -10 9 -14 2 -7 -12 64 -72
107 -90 15 -6 27 -19 27 -27 0 -11 9 -6 30 15 32 33 39 60 15 60 -8 0 -15 5
-15 11 0 5 4 8 9 5 5 -3 11 5 13 17 5 25 -16 39 -77 51 -25 5 -35 1 -59 -25z"/>
<path d="M7970 6572 c0 -7 -6 -12 -13 -12 -16 0 -51 -65 -44 -83 3 -8 21 -14
44 -15 21 -1 63 -6 92 -12 57 -11 72 -7 53 12 -7 7 -12 22 -12 34 0 25 -15 40
-25 24 -3 -5 -21 -10 -38 -9 -18 0 -26 3 -19 6 6 2 12 16 12 30 0 17 -4 23
-14 20 -7 -3 -19 0 -25 6 -8 8 -11 8 -11 -1z m63 -79 c-7 -2 -19 -2 -25 0 -7
3 -2 5 12 5 14 0 19 -2 13 -5z m-36 -19 c-3 -3 -12 -4 -19 -1 -8 3 -5 6 6 6
11 1 17 -2 13 -5z"/>
<path d="M10320 6560 c0 -6 10 -11 23 -11 45 -2 90 -9 150 -23 34 -8 63 -13
65 -12 1 2 -28 13 -65 26 -72 24 -173 36 -173 20z"/>
<path d="M9830 6545 c-10 -12 -10 -19 -2 -27 17 -17 41 -2 35 21 -6 25 -16 26
-33 6z"/>
<path d="M8272 6530 c-16 -26 -15 -30 7 -30 15 0 19 5 16 21 -6 30 -9 31 -23
9z"/>
<path d="M8514 6524 c2 -16 5 -31 6 -34 1 -3 2 -22 2 -42 0 -21 2 -38 5 -38 3
0 17 12 31 27 l25 27 -28 22 c-15 12 -25 26 -21 32 3 5 -1 16 -10 23 -13 11
-15 9 -10 -17z"/>
<path d="M8988 6543 c7 -3 16 -2 19 1 4 3 -2 6 -13 5 -11 0 -14 -3 -6 -6z"/>
<path d="M7862 6515 c0 -16 2 -22 5 -12 2 9 2 23 0 30 -3 6 -5 -1 -5 -18z"/>
<path d="M8116 6518 c8 -28 12 -33 20 -25 9 8 -6 47 -17 47 -6 0 -7 -10 -3
-22z"/>
<path d="M9030 6531 c0 -5 5 -11 11 -13 7 -2 7 -12 -1 -32 -6 -16 -8 -31 -6
-34 11 -10 35 21 33 41 -1 17 3 21 18 20 31 -3 59 -9 75 -16 26 -11 85 -12 86
-2 1 9 -35 17 -173 39 -25 3 -43 2 -43 -3z"/>
<path d="M7570 6500 c0 -11 2 -20 4 -20 2 0 6 9 9 20 3 11 1 20 -4 20 -5 0 -9
-9 -9 -20z"/>
<path d="M8745 6494 c-31 -29 -27 -42 10 -26 15 7 25 20 25 32 0 25 -1 25 -35
-6z"/>
<path d="M10570 6506 c0 -2 9 -6 20 -9 11 -3 18 -1 14 4 -5 9 -34 13 -34 5z"/>
<path d="M9745 6470 c-3 -5 -1 -10 4 -10 6 0 11 5 11 10 0 6 -2 10 -4 10 -3 0
-8 -4 -11 -10z"/>
<path d="M8255 6460 c-3 -6 -17 -7 -29 -4 -16 4 -25 0 -29 -10 -8 -19 -8 -19
104 -57 142 -47 176 -67 258 -146 42 -40 78 -73 80 -73 2 0 0 7 -3 16 -6 15
-4 15 18 1 18 -12 26 -13 29 -4 3 9 9 8 23 -4 10 -9 24 -14 31 -12 6 2 14 -1
18 -6 9 -15 68 -14 83 1 19 19 14 28 -30 49 -72 34 -88 43 -88 51 0 5 6 8 14
8 7 0 19 7 26 15 7 8 27 15 45 15 24 0 34 6 43 25 6 14 17 25 24 26 16 0 -25
18 -67 29 l-30 8 35 2 c34 2 34 3 -10 10 -37 6 -47 4 -57 -10 -11 -16 -61 -29
-125 -33 -16 -1 -28 -5 -28 -9 0 -4 27 -22 60 -40 59 -33 74 -48 45 -48 -8 0
-15 4 -15 8 0 5 -18 17 -41 27 -22 10 -49 29 -59 42 -10 13 -22 23 -27 23 -5
0 -15 6 -21 12 -7 7 -26 13 -43 14 -25 1 -30 -2 -27 -20 2 -16 10 -21 33 -20
30 1 48 -13 39 -28 -10 -16 -38 -7 -85 27 -27 19 -57 35 -67 36 -14 0 -14 2 3
8 19 8 19 8 -2 15 -13 4 -23 12 -23 17 0 5 -9 9 -21 9 -11 0 -17 -4 -14 -10 4
-6 -7 -10 -27 -9 -27 0 -30 2 -13 9 19 8 19 9 -2 9 -26 1 -29 11 -11 29 9 9 9
12 1 12 -7 0 -15 -5 -18 -10z"/>
<path d="M8676 6448 c-14 -15 -26 -19 -50 -14 -19 4 -26 3 -17 -3 11 -7 10
-11 -5 -20 -17 -9 -16 -10 8 -11 15 0 30 5 33 10 3 6 18 10 33 10 22 0 28 5
30 25 2 30 -6 31 -32 3z"/>
<path d="M9897 6464 c-12 -13 5 -24 36 -24 l31 0 -21 -22 c-18 -18 -32 -21
-74 -19 -31 2 -49 -1 -45 -7 11 -18 156 -38 156 -22 0 6 -11 10 -25 10 -14 0
-25 5 -25 10 0 6 8 10 18 10 10 0 25 9 35 20 16 19 15 20 -23 26 -22 4 -40 10
-40 15 0 10 -14 12 -23 3z"/>
<path d="M10183 6449 c-8 -8 -35 -12 -68 -10 -33 1 -55 -2 -55 -8 0 -10 27
-19 60 -20 28 -1 195 -29 235 -39 31 -9 46 -8 72 4 17 9 37 13 42 9 6 -3 11
-2 11 4 0 16 -71 25 -92 12 -17 -10 -23 -8 -43 13 -13 14 -39 27 -61 31 -22 3
-50 8 -64 11 -14 3 -31 -1 -37 -7z"/>
<path d="M9208 6443 c7 -3 16 -2 19 1 4 3 -2 6 -13 5 -11 0 -14 -3 -6 -6z"/>
<path d="M9520 6435 c0 -4 8 -14 17 -23 16 -16 15 -17 -3 -20 -29 -6 -41 -21
-24 -32 22 -14 28 -12 52 12 16 16 32 21 65 19 49 -2 57 14 16 31 -31 12 -123
22 -123 13z"/>
<path d="M7765 6420 c-3 -5 -2 -10 4 -10 5 0 13 5 16 10 3 6 2 10 -4 10 -5 0
-13 -4 -16 -10z"/>
<path d="M9440 6412 c0 -7 -7 -12 -15 -12 -8 0 -15 -4 -15 -10 0 -16 27 -11
34 6 4 9 4 19 1 22 -3 3 -5 0 -5 -6z"/>
<path d="M9683 6406 c2 -6 18 -12 36 -14 41 -4 33 14 -9 20 -19 3 -29 1 -27
-6z"/>
<path d="M7861 6403 c0 -7 -7 -12 -13 -10 -7 1 -12 -6 -12 -15 1 -10 -2 -15
-7 -12 -5 3 -9 1 -9 -5 0 -19 18 -20 35 -2 9 11 15 28 12 38 -3 10 -5 12 -6 6z"/>
<path d="M7749 6376 c-1 -3 -2 -11 -3 -17 0 -7 -10 -15 -21 -19 -18 -6 -17 -9
12 -23 52 -27 65 -23 61 21 -2 30 -7 38 -25 40 -13 2 -24 1 -24 -2z"/>
<path d="M10043 6372 c-24 -2 -43 -7 -43 -12 0 -5 -10 -11 -22 -13 -13 -2 13
-4 57 -4 45 0 96 -4 115 -8 33 -7 34 -6 15 9 -11 8 -32 16 -47 16 -14 0 -28 3
-30 8 -1 4 -22 6 -45 4z"/>
<path d="M10480 6360 c8 -5 22 -10 30 -10 13 0 13 1 0 10 -8 5 -22 10 -30 10
-13 0 -13 -1 0 -10z"/>
<path d="M10680 6359 c14 -6 33 -15 42 -20 24 -12 28 -11 28 6 0 9 -9 15 -22
15 -13 0 -34 3 -48 5 l-25 6 25 -12z"/>
<path d="M8960 6329 c0 -11 5 -17 10 -14 6 3 10 13 10 21 0 8 -4 14 -10 14 -5
0 -10 -9 -10 -21z"/>
<path d="M10225 6330 c3 -5 8 -10 11 -10 2 0 4 5 4 10 0 6 -5 10 -11 10 -5 0
-7 -4 -4 -10z"/>
<path d="M7720 6285 c7 -8 16 -12 21 -9 13 8 1 24 -18 24 -13 0 -13 -3 -3 -15z"/>
<path d="M8980 6266 c14 -8 29 -12 33 -9 12 8 -14 23 -38 22 -18 0 -17 -1 5
-13z"/>
<path d="M8877 6189 c7 -7 15 -10 18 -7 3 3 -2 9 -12 12 -14 6 -15 5 -6 -5z"/>
<path d="M8920 6189 c0 -5 5 -7 10 -4 6 3 10 8 10 11 0 2 -4 4 -10 4 -5 0 -10
-5 -10 -11z"/>
<path d="M8880 6142 c0 -5 14 -7 30 -4 17 2 30 6 30 8 0 2 -13 4 -30 4 -16 0
-30 -4 -30 -8z"/>
<path d="M7610 6130 c0 -8 5 -22 10 -30 9 -13 10 -13 10 0 0 8 -5 22 -10 30
-9 13 -10 13 -10 0z"/>
<path d="M8973 6134 c4 -4 37 -13 74 -19 38 -7 84 -16 103 -20 25 -4 30 -3 20
3 -8 6 -53 17 -99 26 -92 18 -107 19 -98 10z"/>
<path d="M9195 6090 c-3 -5 -1 -10 4 -10 6 0 11 5 11 10 0 6 -2 10 -4 10 -3 0
-8 -4 -11 -10z"/>
<path d="M9430 6063 c19 -2 170 -26 335 -53 165 -27 334 -55 375 -61 41 -6
122 -19 180 -29 58 -10 128 -22 155 -25 42 -6 167 -30 263 -51 17 -3 22 0 22
16 0 11 -3 20 -7 20 -14 1 -207 29 -270 40 -35 5 -91 15 -125 20 -114 20 -320
50 -468 70 -41 6 -115 17 -165 25 -172 28 -234 35 -282 33 -39 -1 -42 -2 -13
-5z"/>
<path d="M9648 4923 c7 -3 16 -2 19 1 4 3 -2 6 -13 5 -11 0 -14 -3 -6 -6z"/>
<path d="M1207 4469 c-8 -32 20 -128 55 -186 69 -114 216 -249 385 -355 29
-18 53 -36 53 -39 0 -13 -97 4 -160 28 -92 34 -146 68 -216 135 -33 32 -64 55
-67 51 -24 -23 5 -109 62 -187 88 -119 204 -200 344 -241 31 -9 59 -20 62 -24
7 -12 -73 -21 -181 -21 -51 0 -99 -3 -108 -6 -29 -11 -19 -57 22 -96 56 -55
130 -87 236 -103 35 -6 37 -7 20 -20 -11 -7 -44 -17 -74 -21 -69 -11 -76 -32
-28 -81 52 -55 76 -63 185 -63 130 0 138 -7 71 -58 -81 -62 -88 -70 -88 -97 0
-21 12 -30 87 -66 79 -38 92 -41 144 -36 l57 5 -25 -48 c-27 -52 -22 -83 14
-94 105 -29 164 -38 194 -27 48 17 50 15 23 -34 -27 -48 -25 -85 4 -85 9 0 57
21 106 45 49 25 90 44 92 42 1 -1 -17 -33 -42 -71 -48 -75 -50 -84 -31 -108
13 -18 40 -22 129 -20 71 2 102 27 154 122 32 60 39 50 8 -12 -8 -15 -14 -41
-14 -57 0 -24 6 -33 35 -47 30 -14 63 -15 227 -12 225 5 252 12 246 61 -3 17
-8 41 -12 52 -5 15 -3 14 11 -5 10 -14 32 -41 50 -60 31 -35 32 -35 109 -33
110 2 124 7 124 43 0 16 -5 32 -10 35 -12 8 -71 99 -99 154 l-21 40 28 -15
c15 -7 32 -14 37 -14 6 0 17 -12 26 -28 18 -31 201 -127 225 -118 21 8 17 48
-12 100 -24 44 -21 63 6 31 8 -9 30 -15 58 -15 48 0 158 26 180 43 18 14 15
48 -8 82 -11 17 -20 32 -20 35 0 3 28 5 63 5 53 0 74 6 142 40 112 57 111 72
-6 157 -33 24 -59 46 -59 50 0 3 53 8 118 10 112 3 121 5 161 32 45 31 74 75
63 93 -4 5 -25 13 -47 17 -60 10 -106 27 -100 35 2 5 30 11 61 15 113 13 260
111 252 167 -3 24 -5 24 -147 31 -79 4 -148 11 -153 16 -6 6 15 18 59 32 123
40 196 86 278 172 49 51 87 102 106 141 31 66 34 83 20 106 -8 12 -23 2 -74
-46 -66 -61 -114 -92 -203 -130 -52 -23 -164 -45 -164 -34 0 4 54 45 121 91
209 145 354 326 367 459 7 74 -10 73 -92 -6 -82 -80 -115 -102 -257 -173 -126
-64 -249 -111 -349 -136 -135 -32 -162 -45 -175 -84 -12 -35 -29 -48 -40 -31
-8 14 -76 14 -145 1 -30 -6 -143 -14 -253 -20 -253 -12 -247 -8 -247 -148 0
-53 -2 -93 -4 -91 -3 3 -9 46 -14 97 -14 135 -9 132 -202 132 -137 0 -159 -2
-173 -18 -13 -14 -34 -144 -38 -241 0 -9 -8 8 -18 36 -32 94 -114 189 -202
233 -50 26 -227 60 -310 60 -51 0 -60 -3 -81 -29 l-25 -28 -11 41 c-13 50 -24
56 -161 92 -130 33 -212 65 -365 141 -153 76 -193 103 -266 177 -59 61 -75 67
-83 35z m1097 -539 c37 -6 73 -13 80 -17 6 -4 22 -9 36 -11 49 -7 39 -18 -15
-16 -31 1 -59 5 -63 9 -4 5 -1 5 6 1 6 -4 12 -2 12 3 0 6 -8 12 -17 12 -28 2
-64 8 -113 18 -62 12 -12 13 74 1z m-49 -20 c14 -7 8 -8 -20 -3 -22 3 -42 7
-44 9 -9 8 45 2 64 -6z m1511 -16 c-3 -9 -6 -24 -6 -35 0 -10 -5 -19 -11 -19
-6 0 -9 9 -6 20 3 11 1 20 -4 20 -5 0 -9 -6 -10 -12 0 -10 -2 -10 -6 0 -10 25
-24 11 -18 -18 4 -19 3 -30 -4 -30 -13 0 -15 67 -2 75 5 3 12 1 15 -4 3 -5 15
-7 27 -4 16 4 17 8 7 14 -10 7 -8 9 6 9 12 0 16 -5 12 -16z m-1466 -12 c3 -2
-12 -3 -32 0 l-37 4 -4 -56 -3 -55 -2 62 -2 62 38 -6 c20 -3 39 -8 42 -11z
m1363 11 c-13 -2 -33 -2 -45 0 -13 2 -3 4 22 4 25 0 35 -2 23 -4z m-191 -356
c-3 -374 2 -419 46 -425 l22 -3 0 240 c0 154 4 241 10 241 6 0 10 15 10 33 0
22 3 28 9 18 5 -8 7 -20 5 -26 -3 -7 2 -15 10 -18 9 -4 16 -1 16 5 0 7 15 9
44 5 l45 -6 4 37 c4 34 4 34 3 -5 -1 -24 3 -44 8 -46 6 -2 10 -21 10 -43 -1
-21 -3 -158 -5 -304 l-5 -264 -52 -24 c-161 -73 -300 -16 -350 143 -12 39 -26
105 -32 149 -12 96 -26 564 -15 554 4 -3 6 -52 6 -107 -1 -66 3 -102 10 -107
8 -4 9 -3 5 4 -9 14 -11 14 89 17 65 1 81 -1 87 -14 4 -9 7 53 7 137 0 107 -4
150 -11 146 -7 -4 -8 -2 -4 4 4 6 12 9 19 6 9 -3 11 -85 9 -347z m100 268 c2
-47 0 -85 -4 -85 -5 0 -9 37 -10 83 -2 72 -3 67 -8 -43 l-6 -125 -2 121 c-1
66 1 124 5 127 17 17 22 1 25 -78z m-1057 13 c-14 -11 -29 -18 -32 -14 -4 3
-1 6 6 6 7 0 9 5 4 13 -4 6 -8 22 -8 34 l-1 21 28 -20 29 -20 -26 -20z m339
46 c3 -8 2 -12 -4 -9 -6 3 -10 10 -10 16 0 14 7 11 14 -7z m198 -36 c2 -20 0
-34 -4 -32 -4 3 -8 24 -7 47 1 47 6 41 11 -15z m195 0 c-3 -7 -5 -2 -5 12 0
14 2 19 5 13 2 -7 2 -19 0 -25z m20 0 c-3 -7 -5 -2 -5 12 0 14 2 19 5 13 2 -7
2 -19 0 -25z m-1052 -58 c4 -41 7 -96 7 -121 l0 -45 204 1 c112 1 209 -2 215
-6 8 -4 10 -43 7 -120 -8 -197 -72 -318 -184 -348 -29 -7 -29 -8 -32 -98 l-3
-90 -100 -12 c-55 -6 -105 -11 -112 -11 -9 0 -12 107 -12 464 0 255 1 464 1
463 1 -1 5 -36 9 -77z m628 -3 c2 -38 0 -70 -5 -73 -4 -3 -7 -31 -6 -62 l1
-57 7 50 6 50 5 -43 c4 -40 19 -57 28 -31 2 7 -1 9 -8 5 -7 -5 -11 1 -11 15 0
22 1 22 14 4 11 -15 28 -19 90 -20 75 -2 76 -1 77 24 1 19 4 15 10 -14 6 -30
7 -21 4 35 -2 41 -2 71 0 65 9 -20 48 -298 102 -717 5 -44 4 -47 -20 -53 -19
-5 -142 -2 -174 5 -2 0 -3 14 -3 30 0 26 -3 29 -18 21 -10 -5 -24 -21 -32 -35
-18 -35 -39 -33 -46 4 -8 38 -22 39 -26 3 -3 -25 -7 -28 -46 -31 -69 -5 -71 0
-52 140 10 68 27 202 40 298 12 96 24 182 27 190 9 26 21 145 22 224 1 69 9
53 14 -27z m-423 53 c0 -5 -4 -10 -10 -10 -5 0 -10 5 -10 10 0 6 5 10 10 10 6
0 10 -4 10 -10z m164 -41 c25 -44 58 -130 52 -136 -2 -2 -13 20 -25 49 -11 29
-20 45 -20 36 -1 -9 4 -29 9 -44 12 -30 11 -33 -17 -38 -19 -4 -19 -2 -7 50 7
31 8 56 3 60 -5 3 -9 14 -9 24 0 23 -20 37 -30 20 -5 -8 -10 -9 -14 -2 -6 11
12 22 29 18 5 -1 18 -18 29 -37z m286 30 c0 8 2 12 5 9 3 -3 2 -13 -1 -22 -5
-14 -9 -15 -15 -4 -5 7 -9 18 -9 23 0 6 5 3 10 -5 8 -12 10 -12 10 -1z m869
-74 c-5 -33 -11 -73 -14 -89 -2 -15 -7 -31 -10 -35 -8 -6 -2 63 9 114 15 71
16 81 7 60 -5 -11 -15 -35 -21 -53 -18 -47 -26 -30 -9 20 29 90 52 79 38 -17z
m-142 3 c-2 -13 -4 -3 -4 22 0 25 2 35 4 23 2 -13 2 -33 0 -45z m-545 6 c-9
-16 -10 -14 -9 8 1 15 6 23 11 18 4 -4 4 -16 -2 -26z m-815 -16 c-3 -8 -6 -5
-6 6 -1 11 2 17 5 13 3 -3 4 -12 1 -19z m635 -48 c3 -16 1 -30 -4 -30 -4 0 -8
14 -8 30 0 17 2 30 4 30 2 0 6 -13 8 -30z m728 -40 c0 -5 -4 -10 -10 -10 -5 0
-10 5 -10 10 0 6 5 10 10 10 6 0 10 -4 10 -10z"/>
<path d="M2490 3840 c0 -5 7 -10 15 -10 8 0 15 5 15 10 0 6 -7 10 -15 10 -8 0
-15 -4 -15 -10z"/>
<path d="M2440 3400 c0 -98 0 -100 20 -88 57 36 47 188 -12 188 -4 0 -8 -45
-8 -100z"/>
<path d="M2881 3224 c-7 -42 -10 -78 -7 -81 3 -3 17 -2 32 1 26 7 26 9 20 59
-16 121 -27 126 -45 21z"/>
<path d="M2580 3669 c0 -11 4 -18 10 -14 5 3 7 12 3 20 -7 21 -13 19 -13 -6z"/>
<path d="M8838 4283 c7 -3 16 -2 19 1 4 3 -2 6 -13 5 -11 0 -14 -3 -6 -6z"/>
<path d="M8775 4250 c-3 -5 -1 -10 4 -10 6 0 11 5 11 10 0 6 -2 10 -4 10 -3 0
-8 -4 -11 -10z"/>
<path d="M8684 4204 c-17 -7 -36 -20 -43 -28 -8 -9 -21 -16 -30 -16 -9 0 -24
-9 -34 -20 -21 -25 -20 -25 44 5 72 35 100 51 100 60 1 12 -6 12 -37 -1z"/>
<path d="M8518 4123 c-10 -2 -18 -8 -18 -13 0 -10 38 -1 46 11 5 9 1 10 -28 2z"/>
<path d="M8885 3990 c-3 -5 1 -10 9 -10 9 0 16 5 16 10 0 6 -4 10 -9 10 -6 0
-13 -4 -16 -10z"/>
<path d="M8851 3724 c0 -11 3 -14 6 -6 3 7 2 16 -1 19 -3 4 -6 -2 -5 -13z"/>
<path d="M3572 2583 c-45 -9 -55 -42 -50 -177 4 -129 13 -156 49 -156 29 0 88
58 100 99 16 52 8 196 -11 215 -18 17 -56 26 -88 19z m38 -159 c0 -56 -4 -94
-10 -94 -6 0 -10 40 -10 101 0 64 4 98 10 94 6 -3 10 -48 10 -101z"/>
<path d="M2270 2554 c0 -17 6 -28 20 -31 24 -6 24 -6 1 -84 -36 -121 -37 -113
26 -152 58 -37 65 -37 70 0 3 27 0 35 -20 44 l-24 11 23 74 c13 41 24 95 24
119 l0 45 -60 0 c-58 0 -60 -1 -60 -26z"/>
<path d="M2406 2534 c-10 -73 -7 -238 4 -270 20 -55 84 -85 120 -56 21 17 22
29 29 182 4 91 6 168 4 173 -2 4 -20 7 -39 7 l-34 0 -1 -87 c-1 -49 -5 -117
-9 -153 -6 -45 -7 -18 -4 88 4 145 4 152 -15 152 -11 0 -26 2 -34 6 -11 4 -16
-7 -21 -42z"/>
<path d="M3382 2573 c-30 -12 -42 -61 -41 -170 0 -136 11 -202 35 -220 25 -18
40 -16 64 9 11 12 23 19 26 15 4 -3 16 -1 27 4 18 10 19 19 15 100 -3 50 -8
93 -11 96 -4 3 -24 1 -47 -5 l-40 -10 0 54 c0 30 5 54 10 54 6 0 10 -16 10
-35 0 -36 15 -44 54 -29 19 7 21 61 5 97 -17 37 -68 56 -107 40z m58 -285 c0
-15 -4 -30 -10 -33 -6 -4 -10 12 -10 42 0 35 3 44 10 33 5 -8 10 -27 10 -42z"/>
<path d="M2586 2498 c-15 -198 -16 -329 -4 -333 52 -17 53 -16 59 85 4 67 6
79 7 39 1 -31 5 -77 8 -103 6 -39 10 -46 29 -46 21 0 23 7 33 88 l11 87 -3
-92 -3 -92 29 -6 c16 -4 31 -5 33 -3 2 1 6 101 10 221 l8 218 -49 -3 -49 -3
-6 -58 c-9 -81 -19 -83 -19 -5 0 71 -5 78 -60 78 -28 0 -28 -1 -34 -72z"/>
<path d="M3271 2563 c-23 -5 -23 -7 -17 -81 l5 -77 -13 50 c-8 28 -17 62 -20
78 -5 22 -12 27 -38 27 l-31 0 6 -217 c4 -119 9 -218 11 -220 2 -2 15 -1 30 3
25 6 26 10 27 73 l1 66 15 -63 15 -63 31 7 c18 3 33 7 34 8 7 6 -14 410 -22
411 -5 1 -21 0 -34 -2z"/>
<path d="M2822 2338 l3 -223 33 -3 32 -3 0 59 c0 94 8 122 36 122 35 0 44 28
44 134 0 120 -11 136 -95 136 l-55 0 2 -222z m88 81 c0 -27 -3 -48 -8 -45 -7
4 -4 96 4 96 2 0 4 -23 4 -51z"/>
<path d="M3009 2538 c0 -13 -8 -114 -17 -225 l-17 -203 42 0 c24 0 42 3 42 8
-1 4 -1 22 0 40 2 47 21 39 21 -9 l0 -41 38 7 c20 4 38 8 40 9 2 3 -35 349
-44 404 -5 31 -6 32 -54 32 -45 0 -50 -2 -51 -22z m58 -235 c-2 -21 -4 -6 -4
32 0 39 2 55 4 38 2 -18 2 -50 0 -70z"/>
<path d="M9640 1891 c0 -16 50 -26 63 -11 9 10 7 11 -11 5 -13 -4 -29 -2 -37
5 -10 9 -15 9 -15 1z"/>
<path d="M1440 1680 l0 -160 76 0 c41 0 84 5 94 10 43 23 47 130 6 146 -13 5
-12 11 6 35 18 24 20 35 12 66 -12 48 -41 63 -126 63 l-68 0 0 -160z m130 90
c17 -32 -4 -60 -45 -60 -34 0 -35 1 -35 40 0 39 1 40 35 40 24 0 37 -6 45 -20z
m2 -127 c10 -9 18 -22 18 -30 0 -23 -39 -53 -70 -53 -29 0 -30 1 -30 50 0 49
0 50 32 50 17 0 40 -7 50 -17z"/>
<path d="M1690 1810 c0 -27 3 -30 30 -30 27 0 30 3 30 30 0 27 -3 30 -30 30
-27 0 -30 -3 -30 -30z"/>
<path d="M2140 1796 l0 -44 -39 5 c-52 7 -87 -25 -96 -89 -15 -97 30 -168 97
-152 18 4 45 6 61 5 l27 -3 0 161 0 161 -25 0 c-23 0 -25 -4 -25 -44z m-16
-98 c30 -43 12 -138 -25 -138 -24 0 -39 30 -39 79 0 44 17 81 37 81 6 0 19
-10 27 -22z"/>
<path d="M2240 1810 c0 -28 3 -31 28 -28 21 2 27 8 27 28 0 20 -6 26 -27 28
-25 3 -28 0 -28 -28z"/>
<path d="M3040 1810 c0 -25 4 -30 25 -30 21 0 25 5 25 30 0 25 -4 30 -25 30
-21 0 -25 -5 -25 -30z"/>
<path d="M3267 1833 c-4 -3 -7 -23 -7 -44 0 -38 0 -38 -35 -32 -28 5 -41 1
-60 -17 -45 -43 -45 -161 0 -206 28 -28 61 -31 87 -7 11 9 18 11 18 5 0 -7 11
-12 25 -12 l25 0 0 160 0 160 -23 0 c-13 0 -27 -3 -30 -7z m-19 -125 c7 -7 12
-39 12 -75 0 -50 -4 -64 -18 -72 -29 -16 -45 3 -50 62 -6 77 21 120 56 85z"/>
<path d="M3710 1788 c0 -40 -3 -49 -12 -40 -13 13 -47 16 -73 6 -27 -11 -45
-60 -45 -126 1 -82 21 -112 76 -110 22 0 54 1 72 1 l32 0 0 161 0 160 -25 0
c-23 0 -25 -3 -25 -52z m-16 -90 c18 -26 21 -90 6 -119 -6 -10 -20 -19 -31
-19 -35 0 -52 82 -27 135 14 31 32 32 52 3z"/>
<path d="M4027 1834 c-4 -4 -7 -28 -7 -53 0 -35 -3 -42 -12 -33 -17 17 -64 15
-83 -5 -24 -24 -35 -58 -35 -111 0 -81 56 -141 107 -114 10 5 32 8 48 5 l30
-5 -2 159 c-2 145 -3 158 -20 161 -10 2 -22 0 -26 -4z m-17 -133 c11 -21 14
-100 4 -125 -3 -9 -16 -16 -29 -16 -13 0 -26 7 -29 16 -11 28 -6 120 6 132 18
18 36 15 48 -7z"/>
<path d="M4640 1681 l0 -161 28 0 27 0 -2 157 -2 158 -25 3 -26 3 0 -160z"/>
<path d="M1690 1641 l0 -121 30 0 31 0 -3 118 -3 117 -27 3 -28 3 0 -120z"/>
<path d="M1832 1753 c-25 -10 -44 -65 -43 -127 0 -55 3 -64 31 -88 32 -30 64
-35 103 -17 39 18 50 49 45 129 -3 61 -8 75 -27 91 -22 18 -79 24 -109 12z
m76 -64 c23 -43 3 -139 -28 -139 -24 0 -34 24 -35 78 0 86 33 118 63 61z"/>
<path d="M2240 1641 l0 -121 28 0 27 0 -1 117 -1 118 -27 3 -26 3 0 -120z"/>
<path d="M2320 1748 c0 -14 12 -59 41 -161 19 -63 22 -68 46 -65 24 3 28 11
55 108 34 127 34 132 6 128 -18 -2 -24 -15 -37 -70 -9 -36 -19 -69 -22 -72 -3
-3 -14 28 -24 69 -16 67 -21 75 -42 75 -13 0 -23 -6 -23 -12z"/>
<path d="M2538 1735 c-40 -39 -48 -142 -15 -186 17 -22 51 -39 80 -39 30 0 73
32 80 60 7 27 -32 27 -56 0 -9 -11 -21 -20 -26 -20 -18 0 -41 31 -41 56 0 23
3 24 66 24 l67 0 -6 41 c-11 84 -94 119 -149 64z m90 -46 c3 -25 0 -27 -32
-26 -38 1 -42 7 -25 38 15 30 53 21 57 -12z"/>
<path d="M2727 1753 c-4 -3 -7 -57 -7 -120 l0 -113 30 0 29 0 3 82 c3 77 5 83
28 95 14 7 26 9 27 5 1 -4 4 -19 7 -34 5 -20 19 -32 56 -49 40 -18 50 -27 48
-43 -4 -28 -33 -31 -57 -7 -38 38 -75 19 -47 -24 31 -48 128 -42 156 10 22 41
5 74 -50 98 -48 22 -66 40 -54 58 9 15 44 10 50 -6 7 -16 39 -20 48 -6 3 5 -4
20 -15 35 -27 34 -82 36 -116 4 l-23 -21 0 21 c0 29 -34 29 -54 0 l-16 -22 0
22 c0 21 -27 31 -43 15z"/>
<path d="M3040 1640 l0 -120 25 0 25 0 0 120 0 120 -25 0 -25 0 0 -120z"/>
<path d="M3392 1740 c-27 -26 -28 -46 -2 -53 13 -3 25 2 34 15 18 25 50 20 54
-9 3 -18 -3 -22 -36 -28 -56 -9 -82 -37 -82 -85 0 -42 26 -70 65 -70 11 0 31
7 43 16 12 8 22 10 22 5 0 -6 11 -11 25 -11 25 0 25 1 25 84 0 85 -11 134 -33
148 -25 16 -93 8 -115 -12z m88 -134 c0 -23 -23 -56 -39 -56 -11 0 -31 23 -31
36 0 19 29 44 51 44 13 0 19 -7 19 -24z"/>
<path d="M4159 1747 c-28 -22 -41 -58 -41 -120 0 -56 3 -64 31 -89 42 -38 83
-37 122 1 36 36 36 47 4 53 -14 3 -25 2 -25 -3 0 -10 -29 -39 -40 -39 -17 0
-40 32 -40 56 0 23 3 24 66 24 l67 0 -6 41 c-7 55 -40 89 -86 89 -20 0 -43 -6
-52 -13z m80 -49 c12 -31 5 -39 -30 -36 -37 3 -43 11 -29 38 14 27 49 26 59
-2z"/>
<path d="M4445 1735 c-31 -30 -31 -41 -3 -48 15 -4 26 0 35 13 17 24 49 26 57
4 10 -27 7 -31 -33 -38 -77 -12 -112 -76 -71 -129 24 -30 55 -35 88 -11 12 8
22 10 22 5 0 -6 12 -11 28 -11 l27 0 -5 106 c-6 120 -14 134 -82 134 -28 0
-46 -7 -63 -25z m95 -124 c0 -29 -34 -65 -53 -58 -22 8 -22 53 1 66 28 17 52
13 52 -8z"/>
<path d="M1230 1240 l0 -160 85 0 c84 0 85 0 85 25 0 24 -3 25 -55 25 l-55 0
0 135 0 135 -30 0 -30 0 0 -160z"/>
<path d="M2710 1355 c0 -43 -1 -45 -25 -39 -43 11 -75 -4 -91 -41 -20 -50 -18
-124 6 -162 17 -28 26 -33 58 -33 21 0 43 5 50 12 9 9 12 9 12 0 0 -7 11 -12
25 -12 l25 0 0 160 0 160 -30 0 c-29 0 -30 -2 -30 -45z m-11 -89 c18 -22 10
-126 -11 -139 -30 -19 -48 8 -48 72 0 72 28 104 59 67z"/>
<path d="M3099 1390 c-5 -33 -2 -35 57 -40 l62 -5 -64 -105 c-36 -60 -64 -117
-64 -132 l0 -28 100 0 100 0 0 25 c0 24 -2 25 -65 25 -36 0 -65 3 -65 7 0 3
29 55 65 114 36 59 65 117 65 128 0 20 -5 21 -95 21 -56 0 -96 -4 -96 -10z"/>
<path d="M1780 1340 c-13 -13 -33 -20 -60 -20 -53 0 -80 -27 -80 -79 0 -22 4
-43 10 -46 6 -4 3 -16 -7 -32 -13 -20 -14 -29 -5 -44 7 -11 8 -20 2 -24 -15
-9 -12 -71 3 -84 37 -30 133 -25 168 10 40 40 13 109 -43 109 -80 0 -120 33
-43 36 62 2 105 67 75 114 -7 11 -4 19 12 31 13 10 19 23 15 33 -8 21 -23 20
-47 -4z m-32 -98 c4 -38 -20 -54 -45 -29 -23 23 -9 69 20 65 17 -2 23 -11 25
-36z m30 -167 c3 -3 1 -14 -4 -23 -14 -22 -64 -27 -89 -9 -17 13 -18 17 -5 32
11 13 24 16 53 12 21 -3 41 -8 45 -12z"/>
<path d="M4660 1340 c-12 -12 -33 -20 -55 -20 -51 0 -89 -39 -81 -83 4 -18 6
-41 6 -52 -2 -52 -8 -92 -15 -108 -4 -9 -4 -28 -1 -41 12 -47 114 -59 172 -21
18 11 24 25 24 50 0 44 -22 65 -70 65 -47 0 -70 8 -70 25 0 8 15 12 42 12 59
0 82 30 75 96 -5 37 -3 49 8 54 20 7 19 43 0 43 -8 0 -24 -9 -35 -20z m-24
-87 c8 -29 -16 -59 -40 -50 -19 7 -22 57 -5 74 16 16 38 5 45 -24z m8 -169
c25 -10 19 -43 -9 -50 -37 -9 -75 3 -75 25 0 10 3 21 7 24 8 9 56 9 77 1z"/>
<path d="M1446 1299 c-14 -11 -26 -27 -26 -35 0 -19 56 -19 64 1 7 20 42 19
50 -1 11 -27 7 -34 -20 -34 -44 0 -92 -29 -99 -60 -10 -44 4 -77 37 -91 26
-11 35 -10 59 4 16 9 29 12 29 7 0 -6 12 -10 28 -10 l27 0 -3 105 c-3 94 -5
106 -25 120 -31 22 -89 19 -121 -6z m90 -136 c-9 -37 -35 -57 -53 -42 -30 25
-7 69 35 69 21 0 23 -3 18 -27z"/>
<path d="M1852 1208 c3 -109 4 -113 29 -127 22 -12 29 -12 57 2 18 8 32 11 32
6 0 -5 11 -9 25 -9 l26 0 -3 118 -3 117 -25 0 c-24 0 -25 -2 -28 -75 -3 -106
-8 -122 -35 -118 -21 3 -22 8 -25 101 -3 96 -3 97 -28 97 l-25 0 3 -112z"/>
<path d="M2070 1200 l0 -120 25 0 c25 0 25 1 25 83 0 89 14 125 44 114 13 -5
16 -23 16 -102 l0 -96 28 3 27 3 0 101 c0 71 -4 106 -14 117 -16 20 -71 23
-89 5 -9 -9 -12 -9 -12 0 0 7 -11 12 -25 12 l-25 0 0 -120z"/>
<path d="M2305 1295 c-14 -13 -25 -29 -25 -35 0 -17 57 -12 64 6 9 23 50 14
54 -12 3 -18 -3 -22 -38 -27 -23 -3 -50 -13 -60 -22 -67 -61 3 -168 77 -120
18 12 28 14 31 7 2 -7 13 -12 25 -12 21 0 22 3 19 102 -4 122 -13 138 -79 138
-33 0 -50 -6 -68 -25z m95 -125 c0 -11 -9 -29 -21 -41 -16 -16 -23 -18 -35 -8
-30 25 -9 69 33 69 16 0 23 -6 23 -20z"/>
<path d="M2846 1304 c-29 -28 -38 -56 -37 -111 1 -86 45 -132 113 -118 29 7
71 51 65 69 -7 20 -39 18 -53 -3 -19 -26 -50 -27 -64 -2 -23 43 -14 51 55 51
62 0 65 1 65 24 0 32 -14 69 -35 89 -21 22 -88 22 -109 1z m85 -51 c8 -21 6
-23 -31 -23 -44 0 -45 2 -29 31 14 26 49 21 60 -8z"/>
<path d="M3313 1305 c-3 -9 -3 -57 -1 -107 4 -81 7 -93 28 -110 25 -20 68 -17
82 5 6 9 8 9 8 0 0 -7 11 -13 25 -13 l25 0 0 120 0 120 -25 0 c-25 0 -25 -1
-25 -81 0 -88 -10 -119 -40 -119 -19 0 -20 7 -20 100 l0 100 -25 0 c-14 0 -28
-7 -32 -15z"/>
<path d="M3530 1200 l0 -120 30 0 29 0 3 97 c3 86 5 98 22 101 29 6 36 -16 36
-110 0 -87 0 -88 25 -88 25 0 25 1 25 83 0 89 14 125 44 114 13 -5 16 -22 16
-102 0 -95 0 -95 25 -95 l25 0 0 101 c0 55 -5 109 -10 120 -13 23 -71 26 -93
4 -13 -13 -16 -13 -27 0 -14 17 -53 19 -81 5 -13 -7 -19 -7 -19 0 0 5 -11 10
-25 10 l-25 0 0 -120z"/>
<path d="M3867 1313 c-4 -3 -7 -75 -7 -160 l0 -153 30 0 c29 0 30 2 30 45 0
41 1 44 22 36 54 -20 92 12 104 86 13 86 -19 153 -76 153 -16 0 -36 -7 -44
-16 -15 -14 -16 -14 -16 0 0 16 -30 22 -43 9z m111 -45 c7 -7 12 -38 12 -69 0
-62 -15 -85 -50 -74 -17 5 -20 15 -20 69 0 59 11 86 35 86 6 0 16 -5 23 -12z"/>
<path d="M4110 1300 c-27 -27 -26 -50 4 -50 13 0 26 7 30 15 9 23 45 18 55 -7
5 -13 6 -24 2 -25 -3 -1 -23 -4 -44 -8 -48 -8 -77 -36 -77 -76 0 -64 45 -93
101 -65 16 8 29 10 29 5 0 -5 11 -9 25 -9 25 0 25 1 25 91 0 125 -14 149 -87
149 -30 0 -49 -6 -63 -20z m89 -142 c-13 -46 -37 -59 -59 -33 -21 26 3 65 39
65 28 0 29 -1 20 -32z"/>
<path d="M4310 1200 l0 -120 25 0 c25 0 25 1 25 83 0 89 14 125 44 114 13 -5
16 -22 16 -102 0 -95 0 -95 25 -95 l25 0 0 108 c0 71 -4 112 -12 120 -15 15
-70 16 -85 1 -8 -8 -13 -8 -17 0 -4 6 -16 11 -27 11 -18 0 -19 -8 -19 -120z"/>
<path d="M4749 1294 c-20 -21 -24 -36 -24 -88 0 -74 17 -111 57 -125 76 -27
128 22 128 121 0 46 -5 62 -26 87 -35 42 -98 44 -135 5z m89 -26 c12 -12 17
-104 6 -132 -7 -19 -35 -21 -52 -4 -15 15 -16 102 -2 129 12 22 30 25 48 7z"/>
</g>
</svg>
