<?xml version="1.0" standalone="no"?>
<!DOCTYPE svg PUBLIC "-//W3C//DTD SVG 20010904//EN"
 "http://www.w3.org/TR/2001/REC-SVG-20010904/DTD/svg10.dtd">
<svg version="1.0" xmlns="http://www.w3.org/2000/svg"
 width="63.931" height="63.931" viewBox="0 0 1017.000000 1017.000000"
 preserveAspectRatio="xMidYMid meet">

<g transform="translate(0.000000,1017.000000) scale(0.100000,-0.100000)"
fill="#000000" stroke="none">
<path d="M0 5085 l0 -5085 5085 0 5085 0 0 5085 0 5085 -5085 0 -5085 0 0
-5085z m5926 4358 c12 -7 25 -20 29 -30 24 -58 10 -1107 -15 -1152 -14 -26
-18 15 -29 354 -22 652 -23 675 -34 675 -19 0 24 -1143 45 -1186 7 -16 6 -29
-6 -53 -22 -41 -49 -58 -132 -80 -113 -30 -118 -31 -105 -18 23 23 13 37 -21
30 -30 -6 -32 -5 -19 10 7 9 20 17 27 17 8 0 14 5 14 10 0 6 -9 10 -20 10 -18
0 -19 5 -13 102 l6 101 -24 -7 c-13 -3 -46 -11 -74 -16 -82 -16 -135 -32 -135
-41 0 -5 -8 -9 -19 -9 -10 0 -35 -7 -55 -15 -27 -11 -36 -21 -32 -33 2 -9 7
-35 11 -56 4 -22 17 -61 30 -87 l24 -46 65 15 c36 9 67 21 68 28 2 9 5 9 14 0
9 -10 -18 -21 -120 -50 -72 -21 -141 -41 -152 -46 -12 -5 -43 -11 -70 -14 -45
-5 -46 -5 -15 5 46 14 35 19 -19 9 -92 -18 -90 -19 -90 63 0 85 -32 276 -54
330 -11 25 -23 37 -36 37 -18 0 -20 7 -20 60 0 54 -2 61 -27 77 -16 9 -36 26
-45 37 -23 29 -31 16 -14 -25 15 -38 12 -59 -10 -59 -8 0 -14 -5 -14 -10 0 -6
-11 -15 -25 -20 -24 -9 -24 -10 -10 -44 8 -20 15 -53 15 -75 0 -36 -3 -41 -35
-52 l-35 -13 20 -34 c14 -23 17 -38 11 -46 -13 -15 -17 -93 -8 -158 8 -53 17
-78 29 -78 5 0 8 7 4 15 -6 17 12 75 24 75 6 0 17 -56 25 -132 1 -13 -15 -20
-74 -33 -42 -10 -139 -32 -216 -50 -77 -18 -141 -28 -143 -24 -2 5 6 22 18 39
l21 30 -26 24 c-15 14 -25 31 -22 38 2 7 -4 29 -13 48 -9 19 -20 54 -24 76 -7
49 2 54 84 46 57 -5 70 3 70 47 0 23 -73 132 -94 140 -18 7 -191 175 -194 188
-4 14 -120 7 -136 -8 -15 -13 -26 -11 -26 5 0 17 -40 10 -56 -10 -6 -7 -22
-18 -35 -23 l-24 -9 25 -10 c22 -9 23 -11 8 -17 -10 -4 -16 -11 -13 -15 12
-20 -9 -40 -42 -40 -24 0 -34 -4 -30 -12 7 -21 17 -64 11 -51 -4 8 -11 9 -22
3 -9 -5 -37 -15 -62 -23 -25 -8 -52 -18 -61 -21 -12 -5 -18 4 -27 45 -7 29
-11 53 -10 54 2 2 26 10 54 18 66 19 143 75 143 103 1 25 28 33 109 31 51 -2
52 -1 33 15 -12 9 -21 25 -21 35 0 12 -12 25 -32 34 -21 9 -34 22 -36 37 -4
23 13 31 21 10 2 -7 7 -10 11 -6 11 9 -5 118 -17 118 -5 0 -15 7 -21 15 -7 10
-34 18 -68 22 -54 5 -116 -2 -105 -13 3 -3 -3 -14 -14 -25 -10 -10 -19 -30
-19 -44 0 -34 43 -129 80 -175 36 -45 37 -50 8 -50 -36 0 -96 -19 -113 -36 -8
-9 -15 -24 -15 -34 0 -16 5 -19 33 -14 l32 5 -30 -14 c-16 -8 -33 -12 -36 -8
-15 15 -139 669 -139 733 0 17 6 29 18 32 44 13 488 88 662 112 107 14 197 28
200 31 7 7 -106 -5 -315 -33 -99 -14 -270 -36 -379 -49 -226 -28 -240 -31
-232 -51 3 -8 17 -70 31 -137 13 -67 38 -185 55 -262 85 -386 120 -551 130
-622 6 -43 15 -91 20 -107 5 -16 6 -35 2 -42 -5 -9 -14 9 -25 49 -9 34 -40
134 -67 222 -28 88 -61 214 -75 280 -13 66 -39 185 -59 265 -45 186 -74 323
-82 381 -6 41 -4 48 17 63 13 9 39 16 59 17 19 0 44 4 55 9 15 7 9 9 -25 9
-60 2 -38 16 55 36 64 14 358 55 531 75 39 5 114 15 165 24 52 8 184 22 294
31 110 8 247 24 305 34 58 11 193 29 300 40 107 12 227 26 265 31 100 12 395
7 421 -7z m513 -589 c61 -21 108 -41 105 -46 -7 -11 24 -48 39 -48 13 0 57
-40 57 -52 0 -21 -41 -4 -67 27 -24 30 -40 38 -111 56 -75 19 -91 20 -150 9
-37 -6 -74 -14 -83 -16 -23 -6 -13 -44 11 -44 10 0 26 -3 35 -6 10 -4 15 -2
13 7 -2 11 9 14 45 12 26 -1 47 3 47 8 0 5 10 9 23 9 46 0 96 -22 140 -60 40
-36 52 -57 97 -171 70 -180 76 -215 54 -286 -18 -58 -57 -114 -70 -101 -3 4 1
20 11 35 22 33 32 161 17 213 -9 30 -10 23 -11 -56 -1 -95 -21 -183 -50 -218
-25 -30 -103 -76 -129 -76 -14 0 -39 15 -59 35 l-36 36 6 76 c5 70 18 105 33
91 3 -4 7 -37 8 -75 4 -97 32 -141 80 -129 29 7 93 107 101 157 6 32 4 31 -21
-16 -27 -50 -40 -65 -59 -65 -5 1 -2 7 7 14 10 7 29 37 43 67 21 45 25 69 25
146 0 91 -22 216 -42 241 -17 20 -20 7 -9 -35 47 -176 50 -216 14 -162 -9 13
-38 45 -66 72 -58 55 -82 59 -152 22 -40 -22 -46 -23 -41 -8 6 16 6 16 -12 -1
-11 -9 -27 -44 -36 -76 -16 -57 -34 -85 -37 -58 -2 13 -6 -14 -27 -153 -7 -48
-25 -95 -71 -183 l-62 -118 43 -42 c103 -99 222 -198 382 -319 176 -134 209
-160 286 -231 94 -86 166 -144 205 -164 22 -12 91 -70 153 -130 126 -124 136
-146 80 -180 -302 -180 -428 -252 -441 -252 -22 0 -18 -19 8 -42 19 -17 18
-17 -42 -11 -35 3 -63 3 -63 0 0 -3 36 -25 79 -47 44 -23 82 -48 85 -56 8 -20
4 -19 -88 27 -49 24 -93 39 -107 37 -21 -3 -14 -10 49 -51 44 -29 76 -57 83
-74 14 -36 3 -98 -42 -233 -20 -63 -35 -117 -33 -119 7 -8 44 45 70 99 14 30
32 67 40 82 8 15 14 55 14 98 0 67 1 71 21 68 31 -4 59 -46 76 -114 26 -98 26
-145 3 -255 -27 -125 -50 -191 -91 -253 -34 -51 -219 -256 -231 -256 -4 0 -8
21 -8 48 0 53 24 112 64 159 27 33 47 103 29 103 -6 0 -18 -17 -27 -38 -10
-21 -30 -52 -46 -68 -18 -20 -34 -54 -44 -95 -35 -135 -68 -230 -82 -236 -23
-9 -24 -1 -8 61 8 32 13 61 10 64 -7 7 -56 -98 -56 -120 0 -12 -8 -18 -24 -18
-29 0 -39 21 -25 57 13 35 90 150 126 188 90 95 113 138 152 288 32 124 33
127 18 121 -16 -6 -20 26 -37 266 -12 167 -16 194 -35 210 -26 21 -37 -31 -24
-111 12 -76 6 -96 -18 -64 -15 19 -15 19 -8 -5 4 -14 18 -50 32 -80 20 -43 27
-77 31 -153 7 -147 -6 -195 -75 -264 -68 -67 -164 -130 -263 -171 -41 -17 -76
-29 -77 -28 -2 1 6 27 17 58 31 90 70 295 76 403 4 63 15 129 30 178 27 88 28
97 13 97 -6 0 -27 -35 -47 -77 -34 -75 -36 -84 -43 -223 -5 -104 -15 -171 -32
-235 -13 -49 -27 -102 -31 -118 -4 -15 -22 -45 -42 -67 -30 -34 -43 -40 -92
-46 -78 -9 -95 -17 -97 -43 -1 -18 2 -21 24 -17 14 3 44 8 66 12 22 3 58 14
80 24 22 10 72 25 110 34 93 22 197 72 268 131 32 26 60 46 62 43 8 -8 -50
-91 -90 -130 -22 -21 -54 -45 -72 -53 -36 -17 -45 -41 -13 -32 29 7 25 -17 -6
-42 -32 -25 -69 -26 -182 -5 -156 29 -113 -13 48 -47 50 -11 53 -13 30 -21
-27 -10 -283 -14 -298 -4 -6 3 -35 1 -65 -5 -51 -11 -64 -9 -139 15 -46 14
-105 26 -131 26 l-48 0 14 26 c11 21 23 27 57 30 79 7 72 44 -8 44 -24 0 -80
9 -124 21 -44 11 -90 19 -102 17 -18 -3 -15 -7 19 -26 l40 -22 -82 2 c-50 2
-81 -1 -80 -7 1 -5 -12 -11 -28 -13 -26 -3 -34 3 -59 42 -16 25 -35 51 -42 57
-22 18 -67 1 -165 -62 -51 -32 -108 -63 -126 -68 -36 -10 -81 -1 -119 24 -25
16 -27 20 -159 260 -101 184 -135 240 -186 310 -20 28 -84 145 -144 260 -59
116 -127 244 -150 285 -96 170 -275 528 -275 549 0 29 68 60 159 73 146 20
345 78 440 127 42 22 133 56 202 76 123 35 187 56 674 216 138 45 291 93 340
106 102 27 259 100 292 135 16 18 25 49 38 137 9 62 19 120 23 129 4 11 1 14
-10 10 -13 -6 -14 -1 -6 35 5 23 16 49 24 57 12 12 14 11 15 -15 l0 -30 11 25
c6 14 24 54 41 90 21 47 32 88 37 149 7 80 9 86 41 112 38 32 26 40 -13 9 -19
-14 -30 -39 -43 -95 -17 -70 -23 -79 -51 -76 -6 1 -24 -24 -39 -55 -33 -66
-45 -59 -45 30 0 45 3 57 14 53 16 -6 22 17 32 120 3 37 15 83 25 101 24 42
24 45 -1 32 -27 -15 -27 9 1 44 26 33 64 53 136 70 87 21 112 19 232 -20z
m-1499 -502 c0 -21 -2 -24 -10 -12 -13 20 -13 53 0 45 6 -3 10 -18 10 -33z
m-63 -29 c-3 -10 -5 -2 -5 17 0 19 2 27 5 18 2 -10 2 -26 0 -35z m-1007 29 c0
-5 -11 -14 -25 -20 -51 -23 -91 -8 -42 16 27 13 67 15 67 4z m-380 -29 c0 -5
-14 -34 -31 -67 -39 -74 -18 -70 35 7 40 57 55 60 56 11 0 -35 -81 -115 -168
-167 -129 -76 -223 -199 -237 -307 -4 -30 -22 -118 -41 -195 -19 -76 -34 -149
-34 -162 0 -38 -17 -35 -52 9 -29 37 -33 50 -33 99 0 49 4 63 31 95 52 65 77
124 53 124 -21 0 -116 -123 -124 -162 -4 -18 -13 -42 -21 -52 -11 -16 -10 -24
3 -50 8 -17 27 -43 41 -58 37 -40 11 -34 -28 6 -44 45 -60 101 -60 213 0 92 0
93 52 195 63 122 148 215 246 266 62 33 79 49 42 39 -31 -8 -15 9 36 37 53 30
66 32 58 11 -5 -11 -2 -13 10 -9 19 7 19 8 7 -34 -17 -57 5 -37 92 85 48 66
67 85 67 66z m457 -79 c-3 -3 -12 -4 -19 -1 -8 3 -5 6 6 6 11 1 17 -2 13 -5z
m987 -10 c9 -22 8 -24 -9 -18 -8 4 -15 12 -15 20 0 19 16 18 24 -2z m-956 -27
c2 -12 -1 -15 -12 -11 -19 7 -22 38 -3 32 6 -3 13 -12 15 -21z m2300 -25 c7
-5 15 -26 18 -48 3 -21 7 -48 9 -60 5 -22 104 -94 129 -94 19 0 26 -22 26 -79
0 -40 7 -56 50 -116 28 -38 58 -73 68 -77 9 -3 39 -7 67 -7 45 -1 53 3 92 41
24 23 43 37 43 30 0 -6 23 -23 50 -37 39 -20 55 -23 70 -15 27 14 51 12 72 -7
14 -12 23 -14 40 -6 18 8 32 5 68 -15 51 -29 370 -339 402 -392 12 -19 54 -72
92 -116 102 -118 267 -388 359 -589 94 -206 187 -488 227 -691 18 -88 37 -235
47 -360 16 -197 16 -227 0 -460 -14 -223 -21 -271 -61 -454 -66 -301 -144
-511 -297 -802 -100 -189 -125 -228 -143 -228 -31 0 -83 -35 -106 -72 -11 -18
-27 -58 -36 -88 -32 -115 -42 -129 -253 -338 -192 -191 -216 -211 -431 -361
-125 -88 -256 -174 -291 -191 l-63 -33 -42 46 c-23 25 -50 65 -61 89 -20 43
-48 147 -42 152 2 1 64 38 137 81 608 360 1076 960 1268 1628 38 132 84 351
84 399 0 22 10 39 41 66 75 67 97 145 62 219 -9 19 -28 44 -43 55 -27 19 -28
23 -34 151 -22 426 -123 806 -314 1170 -281 540 -695 945 -1257 1230 -82 42
-156 81 -163 85 -11 7 -3 35 37 132 28 68 51 133 51 146 0 25 7 29 28 16z
m-2368 -11 c0 -11 -34 -41 -47 -41 -7 0 -13 -4 -13 -9 0 -5 -9 -13 -20 -16
-13 -4 -20 -14 -19 -28 4 -41 -1 -67 -12 -67 -6 0 -9 6 -6 14 3 7 2 17 -3 22
-5 5 -12 28 -16 50 l-6 42 51 13 c28 7 51 15 51 19 0 3 9 6 20 6 11 0 20 -2
20 -5z m-304 -36 c9 -14 19 -45 21 -69 5 -38 1 -48 -32 -92 -40 -52 -175 -316
-175 -341 0 -9 -14 -42 -32 -74 -18 -32 -29 -62 -24 -66 17 -17 85 81 112 162
32 97 62 158 121 248 83 125 86 65 4 -78 -28 -48 -51 -97 -51 -108 0 -12 -5
-46 -11 -76 -11 -51 -9 -66 20 -174 32 -116 33 -137 7 -137 -20 0 -82 67 -101
110 -20 44 -45 44 -45 0 0 -41 9 -60 26 -53 21 8 113 -88 195 -201 37 -50 71
-90 77 -89 20 5 52 -49 74 -121 11 -39 31 -91 44 -116 27 -56 42 -144 22 -138
-7 3 -21 26 -30 51 -10 25 -30 64 -46 86 -16 22 -43 78 -61 124 -21 56 -40 91
-56 101 -14 9 -58 45 -99 81 -78 68 -96 77 -96 47 0 -10 -7 -27 -15 -38 -13
-18 -14 -16 -15 26 0 84 -17 117 -97 198 -41 42 -82 92 -89 110 -14 31 -13 37
11 89 25 56 32 93 17 93 -13 0 -32 47 -32 79 0 40 17 57 91 90 64 28 87 46 76
58 -10 9 -142 -36 -170 -58 -22 -16 -27 -29 -27 -64 0 -24 5 -47 10 -50 15 -9
11 -85 -6 -130 -37 -94 -32 -107 91 -245 67 -75 90 -113 79 -131 -3 -5 -17 0
-32 12 -24 18 -37 21 -117 17 l-90 -3 -18 35 c-15 29 -18 53 -14 137 3 74 8
108 19 120 10 12 17 47 21 108 6 107 36 193 83 240 38 38 170 89 271 105 86
14 103 19 103 32 0 19 -158 1 -239 -27 -85 -29 -81 -28 -81 -16 0 13 78 61
138 86 36 15 50 25 42 30 -9 6 -3 13 21 26 49 26 85 24 105 -6z m1355 -80 c27
-68 42 -152 35 -190 -5 -27 -12 -34 -38 -39 -21 -4 -35 -2 -40 6 -5 7 -7 73
-6 146 1 108 4 132 16 130 8 -2 23 -25 33 -53z m-876 -17 c5 -18 3 -28 -4 -28
-6 0 -11 9 -11 19 0 11 -3 28 -6 38 -5 12 -4 15 4 8 6 -5 14 -22 17 -37z m282
-2 c-4 -12 -37 -9 -51 4 -5 5 5 8 23 8 18 -1 30 -6 28 -12z m-311 -51 c6 -23
0 -45 -10 -34 -10 12 -15 59 -6 59 5 0 12 -11 16 -25z m302 6 c3 -8 -1 -12 -9
-9 -7 2 -15 10 -17 17 -3 8 1 12 9 9 7 -2 15 -10 17 -17z m2312 -6 c22 -14 40
-28 40 -31 0 -9 -63 -84 -70 -84 -13 0 -33 88 -26 115 4 14 9 25 11 25 3 0 23
-11 45 -25z m-1840 -4 c0 -6 -4 -13 -10 -16 -5 -3 -10 1 -10 9 0 9 5 16 10 16
6 0 10 -4 10 -9z m787 -7 c-3 -3 -12 -4 -19 -1 -8 3 -5 6 6 6 11 1 17 -2 13
-5z m-40 -10 c-3 -3 -12 -4 -19 -1 -8 3 -5 6 6 6 11 1 17 -2 13 -5z m974 -83
c7 11 9 11 9 -2 0 -9 14 -33 30 -54 17 -21 30 -39 30 -40 0 -1 -9 -1 -19 0
-23 1 -53 24 -46 35 3 5 1 10 -4 12 -5 1 -12 17 -15 33 -4 17 -3 24 0 16 5
-11 8 -11 15 0z m-2861 -57 c0 -25 -4 -43 -9 -40 -10 6 -54 -88 -71 -153 -16
-59 0 -169 46 -314 37 -117 39 -132 24 -122 -23 14 -61 107 -55 134 4 18 -6
66 -29 137 -53 169 -53 169 -2 247 24 37 52 87 62 112 11 25 22 45 27 45 4 0
7 -21 7 -46z m117 24 c-3 -8 -6 -5 -6 6 -1 11 2 17 5 13 3 -3 4 -12 1 -19z
m253 2 c0 -5 -4 -10 -10 -10 -5 0 -10 5 -10 10 0 6 5 10 10 10 6 0 10 -4 10
-10z m2950 -40 c0 -5 -5 -10 -11 -10 -5 0 -7 5 -4 10 3 6 8 10 11 10 2 0 4 -4
4 -10z m-1900 -44 c0 -14 -68 -52 -105 -58 -42 -7 -18 26 35 48 66 27 70 28
70 10z m-1400 -34 c0 -15 -9 -40 -20 -57 -23 -34 -24 -26 -9 45 11 52 29 59
29 12z m444 -204 c-5 -7 -9 -17 -9 -23 0 -5 -18 -16 -40 -25 -23 -8 -62 -27
-87 -42 -61 -37 -71 -36 -63 5 4 17 9 34 11 36 6 7 189 69 193 66 1 -2 -1 -10
-5 -17z m-1371 -286 c-15 -15 -32 -35 -38 -45 -9 -17 -13 -17 -63 -2 -58 18
-82 14 -128 -21 -17 -13 -34 -24 -38 -24 -15 0 103 160 168 228 l70 73 29 -91
28 -91 -28 -27z m182 128 c25 -26 27 -33 15 -40 -16 -10 -70 33 -70 57 0 22
25 14 55 -17z m1205 12 c0 -12 -95 -42 -129 -42 -25 1 -25 1 -6 12 20 12 99
36 123 37 6 1 12 -3 12 -7z m-1270 -162 c0 -31 -61 -122 -119 -180 -45 -44
-74 -83 -91 -122 -28 -64 -40 -73 -40 -28 0 42 40 118 87 165 22 22 52 58 68
80 57 78 95 113 95 85z m448 -7 c5 -10 12 -149 15 -310 3 -236 2 -296 -9 -312
-27 -38 -223 -83 -265 -61 -11 6 -56 44 -100 84 -75 68 -85 74 -162 94 -122
31 -159 48 -148 70 5 9 16 38 25 63 34 97 87 150 231 236 62 36 309 143 332
143 17 0 17 -4 -7 -50 -23 -45 -27 -71 -8 -52 7 7 16 12 20 12 11 0 10 -343
-2 -414 -7 -43 -19 -71 -45 -104 -19 -25 -33 -47 -31 -49 2 -3 22 7 44 21 69
43 74 71 80 379 2 147 8 267 13 267 5 0 12 -8 17 -17z m516 -242 c61 -147 84
-223 68 -229 -6 -2 -12 -13 -12 -25 -1 -38 -17 2 -24 59 -3 28 -17 78 -30 110
-13 33 -27 75 -31 95 -4 20 -26 69 -50 109 -24 41 -41 78 -38 83 9 15 69 -88
117 -202z m-252 102 c28 -30 99 -164 123 -234 20 -54 20 -182 1 -198 -11 -9
-18 -3 -35 32 -12 24 -21 54 -21 68 -1 13 -9 60 -20 104 -20 84 -32 101 -135
179 -33 25 -36 31 -22 41 12 8 14 22 10 55 l-6 44 39 -31 c21 -17 51 -44 66
-60z m-952 44 c0 -7 -13 -26 -30 -42 -16 -16 -42 -46 -56 -67 -15 -21 -30 -38
-35 -38 -11 0 7 56 31 95 33 53 90 86 90 52z m-170 -64 c0 -34 -52 -174 -66
-180 -8 -3 -21 -18 -30 -34 -13 -26 -13 -30 4 -47 10 -10 58 -28 107 -41 146
-38 241 -70 266 -89 13 -10 45 -26 71 -36 90 -33 187 -163 214 -285 9 -42 22
-87 30 -101 7 -15 29 -75 49 -134 46 -132 44 -167 -13 -285 -65 -133 -150
-231 -265 -306 l-29 -18 8 38 c11 62 -13 34 -62 -71 -56 -121 -62 -124 -254
-136 -80 -4 -201 -17 -270 -28 -179 -29 -303 -41 -340 -33 -44 8 -87 54 -144
152 -26 44 -51 79 -55 77 -13 -9 -28 9 -74 89 -56 97 -77 166 -58 189 12 14
19 7 55 -56 64 -112 115 -188 156 -232 20 -23 53 -63 74 -91 21 -27 47 -55 59
-62 31 -17 205 -16 302 3 44 8 131 24 194 34 148 26 172 41 236 156 19 34 52
84 73 111 65 81 62 122 -13 157 -39 19 -537 146 -572 146 -12 0 -24 4 -27 9
-9 14 36 78 59 86 11 3 72 8 135 11 l115 6 75 -35 c41 -20 106 -42 145 -50
l69 -14 58 -104 c31 -57 65 -117 75 -134 l17 -30 4 28 c2 18 -11 58 -35 109
-29 62 -38 95 -38 134 0 29 3 56 8 60 4 4 29 0 55 -9 83 -30 137 -21 190 33
27 27 32 39 32 79 0 26 -7 56 -15 67 -13 17 -14 15 -15 -32 0 -61 -21 -93 -75
-113 -79 -28 -135 10 -135 94 0 39 -42 172 -68 217 -20 34 -72 60 -132 66 -51
5 -63 -4 -152 -107 l-46 -53 -103 40 c-57 22 -149 54 -204 71 -97 29 -159 60
-125 61 24 0 249 -66 303 -89 52 -23 87 -27 87 -11 0 20 -53 43 -182 77 -165
44 -182 53 -206 106 -22 48 -107 137 -155 161 l-32 16 28 0 c31 0 127 -38 127
-50 0 -15 133 -103 189 -127 56 -23 106 -30 113 -15 2 4 32 31 66 60 65 53
106 65 142 42 13 -9 13 -12 -2 -21 -10 -5 -18 -20 -18 -32 -1 -39 -85 -117
-126 -117 -14 0 -22 -4 -19 -10 3 -5 22 -10 40 -10 26 0 46 10 85 45 71 63 75
64 165 55 119 -12 214 -53 253 -110 l22 -33 0 30 c0 65 -77 113 -214 135 -88
13 -99 32 -31 49 57 15 49 29 -18 29 -86 0 -121 16 -191 83 -49 47 -67 73 -76
107 -21 78 12 204 63 245 37 29 67 33 67 8z m180 -10 c0 -17 -86 -163 -113
-192 -27 -31 -47 -40 -47 -22 0 28 63 142 99 179 38 39 61 52 61 35z m873 -88
c55 -36 88 -77 74 -91 -3 -3 -30 7 -59 24 -29 16 -63 33 -75 37 -21 6 -23 3
-23 -29 0 -24 -5 -36 -14 -36 -17 0 -26 31 -26 96 0 62 15 82 44 55 12 -10 47
-35 79 -56z m-1336 -51 c2 -6 -7 -15 -19 -21 -22 -9 -20 -11 23 -30 65 -29
109 -98 109 -173 0 -35 -5 -43 -37 -64 -43 -27 -67 -18 -39 13 38 41 -9 123
-95 166 -60 31 -69 44 -40 64 12 9 32 26 44 39 21 23 47 26 54 6z m387 -78
c-3 -14 -13 -26 -20 -26 -12 0 -12 5 1 31 19 36 29 33 19 -5z m947 -48 c22
-54 -16 -120 -82 -139 -21 -7 -41 -10 -43 -8 -8 8 25 164 40 187 14 22 16 22
44 5 16 -9 34 -29 41 -45z m69 40 c19 -21 21 -30 15 -88 -4 -36 -7 -94 -7
-130 l-1 -65 -19 45 c-17 39 -19 54 -10 115 7 54 6 78 -4 104 -17 40 -17 41
-4 41 5 0 19 -10 30 -22z m-1871 -82 c60 -13 86 -30 75 -48 -3 -4 -13 -8 -22
-8 -17 0 -91 -45 -103 -63 -15 -22 -93 44 -112 95 -14 38 51 47 162 24z m2085
-47 c20 -22 41 -51 46 -65 12 -32 13 -131 1 -138 -4 -3 -11 -32 -15 -63 -4
-32 -14 -67 -23 -78 -14 -18 -15 -11 -9 97 6 112 5 120 -24 198 -16 45 -30 83
-30 86 0 14 22 -1 54 -37z m-1440 -20 c15 -26 16 -33 5 -40 -21 -13 -29 -11
-29 9 0 9 -3 27 -6 40 -9 32 9 27 30 -9z m1291 -8 c3 -10 19 -33 35 -50 30
-31 38 -74 24 -128 -11 -41 -24 -24 -24 32 0 59 -17 75 -27 25 -3 -17 -9 -32
-12 -35 -10 -6 -35 141 -28 160 9 21 24 19 32 -4z m-2018 -203 c106 -170 126
-205 121 -220 -2 -6 -27 25 -54 68 -28 44 -75 116 -104 162 -29 45 -55 81 -57
78 -7 -7 37 -86 78 -143 55 -74 52 -99 -7 -68 -24 12 -31 12 -44 1 -19 -17
-118 -46 -157 -46 -38 0 -53 16 -53 56 0 30 19 60 114 182 12 15 21 46 24 80
l5 55 21 -28 c11 -16 62 -96 113 -177z m2320 180 c8 -14 30 -146 40 -240 5
-51 3 -59 -19 -80 -13 -13 -32 -44 -42 -71 -15 -41 -47 -77 -67 -77 -11 0 3
212 16 250 l13 35 7 -42 c4 -24 13 -50 20 -60 11 -15 13 -13 20 15 7 34 -1 89
-17 109 -5 7 -12 48 -15 93 -6 76 -5 80 15 80 11 0 24 -6 29 -12z m-2213 -34
c25 -10 19 -27 -22 -67 l-38 -37 -23 41 c-13 22 -21 43 -18 46 5 4 54 18 79
22 3 1 13 -2 22 -5z m1782 -11 c3 -10 10 -26 15 -35 17 -33 10 -69 -20 -99
-26 -25 -37 -29 -88 -29 -81 0 -146 -21 -227 -75 -38 -25 -75 -45 -82 -45 -26
0 -14 39 20 67 41 32 38 45 -7 32 -48 -14 -57 -11 -57 15 0 21 10 27 73 50
108 38 190 56 242 54 38 -3 50 1 61 17 13 20 12 20 -26 17 -31 -3 -40 -1 -40
11 0 11 16 18 53 25 75 14 77 14 83 -5z m-1637 -42 c16 -10 8 -16 -41 -29 -44
-12 -47 -8 -15 19 25 21 36 23 56 10z m1881 -101 c-13 -11 -24 -20 -26 -20 -2
0 14 62 24 90 3 10 8 4 15 -18 9 -28 7 -35 -13 -52z m-1933 6 c-7 -17 39 -62
122 -120 60 -42 66 -49 98 -127 18 -46 33 -88 33 -95 0 -12 29 -28 37 -20 7 7
-38 108 -64 143 -12 17 -23 38 -23 46 0 8 -9 26 -20 40 -24 30 -25 37 -6 37
17 0 265 -81 321 -105 71 -30 94 -64 59 -90 -14 -10 -14 -15 -3 -33 7 -12 11
-23 8 -26 -3 -3 -67 -11 -143 -18 l-138 -12 -44 -49 c-51 -57 -76 -58 -110 -5
-11 18 -46 71 -76 118 -75 115 -135 221 -142 251 -5 19 1 29 31 52 39 29 69
36 60 13z m1712 -120 c57 -19 108 -42 113 -50 5 -9 18 -16 28 -16 27 0 25 -10
-8 -56 -16 -21 -50 -81 -77 -132 -26 -51 -61 -106 -77 -122 -35 -35 -103 -57
-219 -70 -136 -16 -128 -18 -113 39 13 52 6 108 -20 160 -22 43 -37 128 -26
155 13 35 57 72 125 107 75 38 124 36 274 -15z m508 -48 c-3 -21 -13 -58 -24
-83 -14 -35 -22 -43 -36 -39 -13 4 -21 -4 -33 -31 -8 -21 -24 -39 -34 -42 -10
-3 -24 -18 -31 -35 -21 -50 -103 -128 -136 -128 -15 0 -39 -3 -52 -7 -21 -5
-22 -4 -13 13 6 10 27 37 47 59 50 55 66 88 60 127 -3 18 3 6 12 -26 19 -63
43 -86 43 -42 0 13 -5 37 -10 52 -15 38 -5 41 23 8 l25 -28 7 51 c7 52 18 65
63 72 4 0 14 18 21 39 19 52 38 79 57 79 13 0 15 -8 11 -39z m-2367 -80 c0
-38 -1 -39 -32 -36 -41 4 -48 33 -17 71 27 36 49 21 49 -35z m2046 -32 c-9
-26 -16 -53 -16 -62 0 -20 -46 -111 -77 -152 -23 -31 -89 -72 -115 -72 -6 0 4
17 24 38 41 42 166 233 181 275 5 15 11 26 14 23 2 -2 -3 -25 -11 -50z m-1236
18 c0 -8 -5 -12 -10 -9 -6 4 -8 11 -5 16 9 14 15 11 15 -7z m1595 -50 c4 -31
4 -58 2 -61 -10 -9 -47 37 -47 58 0 24 17 59 29 59 5 0 12 -25 16 -56z m-34
-82 c4 -78 -5 -181 -18 -210 -8 -17 -13 -41 -10 -52 3 -14 -7 -35 -34 -68 -22
-26 -55 -74 -74 -107 -36 -64 -115 -149 -115 -125 0 8 11 39 25 68 14 30 25
62 25 72 0 25 35 65 70 80 41 17 38 29 -8 26 -66 -5 -80 -14 -107 -71 -14 -30
-36 -61 -48 -69 -29 -18 -82 -29 -105 -22 -26 9 -25 64 2 95 27 31 134 80 172
79 37 0 138 38 156 59 7 9 13 30 14 47 0 17 4 48 8 69 5 24 5 37 -2 37 -11 0
-13 -5 -32 -78 -10 -39 -16 -46 -63 -67 -29 -12 -64 -26 -79 -29 -25 -6 -28
-4 -28 21 0 39 25 80 104 170 38 43 76 95 84 115 l15 38 23 -26 c13 -14 25
-37 25 -52z m-2252 12 c26 -33 27 -51 2 -59 -27 -8 -71 5 -71 21 0 18 29 64
40 64 5 0 18 -12 29 -26z m223 -218 c29 -8 69 -17 88 -21 19 -3 49 -17 65 -30
l30 -25 -46 0 c-38 0 -58 -8 -115 -46 -38 -25 -78 -54 -90 -65 -48 -44 -137
-7 -137 58 0 30 24 175 31 183 2 3 16 -11 32 -30 39 -48 45 -34 9 19 -16 24
-29 53 -29 65 0 17 11 10 54 -36 44 -46 65 -60 108 -72z m-326 25 c29 -22 46
-28 67 -24 l28 6 -2 -79 c-4 -153 54 -200 178 -144 29 13 56 21 59 17 4 -3 1
-21 -6 -38 -13 -30 -12 -33 14 -56 31 -26 47 -23 38 9 -6 24 -4 23 79 -8 44
-17 51 -17 115 -2 81 20 113 15 151 -20 15 -14 45 -31 66 -37 l38 -11 -21 -19
c-18 -16 -44 -20 -178 -26 -86 -4 -205 -11 -263 -15 -130 -8 -154 -3 -175 39
-9 17 -42 66 -73 107 -31 42 -76 109 -99 150 -24 41 -54 90 -67 109 -50 69
-20 94 51 42z m2074 -26 c0 -43 -24 -85 -49 -85 -5 0 -17 -3 -27 -7 -15 -5
-16 -2 -11 24 5 24 2 33 -11 38 -14 5 -10 12 23 40 57 49 75 46 75 -10z m-170
-15 c0 -5 -9 -10 -21 -10 -11 0 -17 5 -14 10 3 6 13 10 21 10 8 0 14 -4 14
-10z m-203 -15 c19 -8 63 -15 97 -15 33 0 72 -3 85 -7 23 -6 23 -7 5 -14 -28
-11 -138 -11 -150 1 -5 5 -37 15 -69 21 -33 6 -67 15 -75 20 -27 15 68 10 107
-6z m678 -41 c-9 -13 -20 -22 -25 -19 -15 9 -12 19 12 51 19 24 23 25 26 11 2
-10 -4 -29 -13 -43z m-1564 20 c142 -27 145 -44 4 -24 -103 15 -126 21 -119
31 7 12 18 12 115 -7z m804 -25 c63 -11 245 -95 253 -117 2 -7 -23 -4 -65 8
-37 11 -120 34 -183 50 -155 42 -150 40 -150 56 0 17 56 19 145 3z m-955 -39
c0 -11 -48 -30 -76 -30 -37 0 -28 33 11 40 33 7 65 2 65 -10z m227 -15 c7 -21
2 -25 -39 -32 -32 -5 -36 -3 -40 21 -5 24 -3 26 34 26 26 0 41 -5 45 -15z
m-797 -183 c0 -7 -4 -10 -10 -7 -16 10 -110 168 -110 185 0 18 119 -159 120
-178z m1623 115 c186 -48 224 -67 136 -67 -131 0 -235 20 -341 65 -11 4 4 -33
46 -112 67 -125 83 -163 68 -163 -5 0 -37 11 -71 26 -35 14 -65 23 -67 21 -2
-2 5 -16 17 -31 12 -15 19 -29 16 -32 -13 -14 -149 -44 -198 -44 -49 0 -59 4
-95 36 -21 20 -55 50 -74 66 l-35 29 49 44 c26 23 66 51 87 60 35 16 41 17 57
3 9 -9 51 -39 92 -68 69 -49 72 -51 45 -19 -29 34 -106 102 -135 119 -12 8
-10 13 10 35 39 42 93 66 131 58 28 -5 31 -4 25 12 -6 16 -2 17 31 12 21 -4
114 -26 206 -50z m-1126 29 c47 -7 -12 -46 -71 -48 -44 0 -126 35 -126 55 0 7
130 3 197 -7z m4374 -104 c-5 -9 -19 -26 -32 -37 -26 -23 -17 -2 14 33 25 27
31 28 18 4z m-3176 -31 c65 -12 90 -21 90 -31 0 -40 -191 -13 -250 36 l-30 25
50 -7 c28 -4 91 -14 140 -23z m279 -9 c7 -12 -20 -49 -44 -62 -16 -9 -18 -8
-13 6 5 14 2 16 -15 12 -25 -7 -40 8 -24 24 6 6 25 14 44 18 46 11 46 11 52 2z
m1703 -26 c12 -12 -12 -40 -54 -62 -44 -24 -145 -48 -238 -59 -145 -15 -536
-95 -745 -152 -243 -66 -623 -182 -695 -212 -11 -5 -78 -30 -150 -56 -71 -26
-143 -53 -160 -60 -16 -7 -65 -27 -107 -44 -172 -69 -447 -203 -588 -284 -134
-78 -252 -160 -362 -253 -74 -63 -94 -75 -135 -81 l-48 -6 16 24 c23 34 248
194 424 299 156 94 418 231 571 298 49 22 109 49 134 60 36 16 201 84 395 162
44 18 112 42 169 61 34 11 70 24 81 29 20 9 176 60 295 98 492 157 1148 287
1197 238z m-2044 -58 c32 -12 33 -16 6 -48 l-21 -25 -29 33 c-16 18 -29 39
-29 48 0 16 14 15 73 -8z m2358 -68 c26 0 24 -31 -2 -37 -12 -4 -42 -17 -66
-30 -61 -32 -73 -30 -73 11 0 51 24 70 78 62 25 -3 53 -6 63 -6z m489 0 c0
-18 -36 -29 -123 -36 -75 -6 -87 -5 -87 9 0 11 16 18 53 25 70 13 157 14 157
2z m-3496 -71 c-3 -5 3 -9 13 -9 26 0 115 -58 111 -72 -6 -17 -130 -78 -159
-78 -28 0 -89 58 -89 84 0 8 -10 16 -22 19 -16 5 -35 -7 -81 -53 -91 -89 -143
-90 -193 -4 -26 44 -26 48 -10 59 21 16 189 30 245 20 43 -7 79 8 145 63 l30
24 8 -22 c4 -12 6 -26 2 -31z m115 12 c73 -57 110 -63 231 -36 74 16 114 19
106 7 -11 -18 -144 -47 -213 -47 l-73 0 -52 53 c-58 57 -57 69 1 23z m4093 -1
c263 -17 379 -40 429 -86 65 -58 -60 -152 -230 -172 -46 -5 -114 -3 -207 7
-176 18 -796 20 -1009 2 -1054 -86 -1954 -296 -2795 -652 -116 -49 -440 -219
-549 -288 -192 -122 -315 -219 -483 -381 -37 -35 -75 -68 -85 -71 -41 -17
-123 -7 -152 17 -2 2 6 18 17 36 35 55 169 162 405 322 388 264 761 454 1257
643 936 355 1913 568 2875 626 123 8 386 6 527 -3z m850 -106 c81 -64 87 -113
24 -182 -32 -36 -70 -52 -124 -52 -40 0 -54 5 -76 26 -61 61 -56 158 11 221
51 49 92 46 165 -13z m-4710 -21 c9 -2 17 -12 16 -21 0 -9 3 -33 7 -53 7 -34
5 -37 -26 -50 -19 -7 -53 -14 -76 -14 -38 0 -47 6 -99 58 -75 76 -68 86 64 85
54 0 105 -2 114 -5z m-948 -85 c20 -247 76 -536 132 -682 3 -8 -26 -36 -78
-73 -102 -75 -143 -116 -135 -137 10 -26 118 -20 202 9 39 14 71 25 72 25 8 0
32 -75 26 -80 -45 -38 -257 -170 -263 -163 -27 26 -107 240 -160 422 -44 155
-65 250 -80 363 -31 231 -44 357 -39 362 3 3 222 29 300 35 14 1 18 -13 23
-81z m793 -49 c51 -29 60 -31 124 -27 37 3 71 3 74 0 10 -11 -33 -31 -81 -37
-71 -10 -147 24 -175 77 -13 25 -5 23 58 -13z m3128 -222 c8 -12 15 -32 15
-45 0 -14 -29 -113 -65 -221 -123 -366 -226 -750 -266 -981 -7 -41 -13 -138
-13 -215 l-1 -140 26 -3 c19 -2 36 9 75 50 55 58 154 249 234 450 45 114 66
143 95 132 29 -12 13 -78 -54 -219 -168 -351 -275 -495 -367 -495 -64 0 -138
121 -160 259 l-6 45 -24 -60 c-57 -138 -114 -223 -190 -283 -41 -31 -54 -36
-98 -35 -28 0 -66 8 -84 18 -84 44 -161 162 -183 281 -23 121 12 334 80 494
17 41 30 76 28 78 -2 2 -26 -9 -53 -24 -27 -16 -79 -42 -117 -58 l-68 -31 -3
-124 c-4 -150 -30 -251 -107 -404 -90 -180 -183 -287 -297 -343 -47 -23 -70
-28 -127 -27 -144 1 -233 89 -286 281 -40 146 -11 333 81 521 90 182 244 309
403 333 142 21 241 -26 295 -137 l15 -33 49 20 c61 24 145 70 219 120 31 21
68 41 83 45 14 3 26 10 26 14 0 13 122 88 169 105 24 8 74 15 111 15 79 0 123
-23 155 -83 20 -38 35 -48 35 -24 0 25 90 332 152 521 64 191 86 231 131 238
32 5 75 -11 92 -35z m1068 18 c225 -58 361 -251 361 -510 -1 -153 -36 -253
-139 -390 -73 -96 -105 -118 -181 -123 -57 -4 -63 -2 -88 24 -59 65 -44 149
41 221 113 96 148 140 193 235 86 183 52 327 -92 397 -142 68 -314 15 -479
-149 -102 -102 -169 -200 -212 -312 -27 -73 -31 -96 -31 -188 -1 -90 2 -113
23 -157 29 -66 101 -134 166 -158 120 -44 114 -73 -29 -145 -85 -43 -124 -70
-175 -121 -238 -237 -309 -673 -150 -920 34 -54 80 -94 149 -130 41 -22 57
-24 180 -23 117 0 143 3 194 23 224 89 377 252 536 570 59 119 133 304 155
391 29 113 72 157 121 125 13 -8 24 -23 24 -33 0 -21 -63 -189 -114 -307 -98
-221 -130 -284 -212 -406 -232 -347 -570 -533 -839 -464 -187 49 -321 166
-415 360 -66 137 -85 221 -84 370 2 247 89 433 254 543 62 42 214 102 256 102
36 0 29 12 -23 40 -101 53 -164 133 -208 263 -30 89 -34 232 -10 334 61 257
275 477 524 538 76 18 234 18 304 0z m-3474 -600 c160 -87 251 -271 251 -507
0 -167 -33 -305 -106 -437 -85 -155 -222 -281 -306 -281 -76 0 -128 50 -128
122 0 47 32 94 86 126 118 69 179 136 235 257 87 185 91 422 11 554 -66 109
-203 119 -335 25 -50 -36 -158 -158 -214 -243 -172 -259 -318 -667 -385 -1081
-29 -183 -32 -475 -5 -600 23 -106 79 -249 124 -317 136 -206 413 -190 691 40
148 121 329 433 447 767 51 145 72 180 106 180 63 0 63 -54 0 -205 -67 -161
-225 -473 -282 -560 -64 -95 -249 -284 -338 -344 -227 -154 -458 -171 -638
-47 -27 18 -74 64 -106 101 -142 169 -230 418 -258 734 -37 420 102 960 338
1315 118 177 249 297 404 370 109 52 171 66 269 63 72 -3 93 -8 139 -32z
m-1156 -348 c20 -34 63 -104 96 -155 34 -51 61 -96 61 -101 0 -5 -12 -35 -26
-67 -15 -33 -43 -107 -63 -166 l-37 -108 -46 48 c-43 44 -257 360 -265 392 -2
8 15 34 39 56 58 56 189 164 199 164 4 0 23 -28 42 -63z m552 -688 c169 -153
344 -278 541 -388 109 -61 323 -161 344 -161 22 0 3 -59 -69 -214 -37 -80 -42
-87 -63 -81 -139 42 -515 248 -699 383 -80 59 -169 127 -198 152 l-52 45 29
115 c41 161 62 230 70 230 4 0 48 -37 97 -81z m2886 -140 c10 -19 1 -31 -89
-123 -103 -104 -178 -189 -271 -310 l-54 -69 17 -101 c10 -56 28 -125 41 -153
47 -103 96 -63 181 147 27 66 55 120 61 120 19 0 16 -15 -14 -84 -78 -174
-118 -241 -154 -260 -34 -18 -39 -19 -60 -4 -32 20 -69 95 -94 192 l-21 78
-117 -145 c-118 -146 -161 -191 -181 -184 -19 6 -17 25 3 32 26 8 117 119 209
256 l72 105 -20 145 c-11 79 -21 151 -23 159 -3 19 -81 -94 -114 -167 -21 -46
-25 -65 -20 -112 7 -59 2 -74 -25 -84 -31 -11 -50 16 -50 70 0 74 34 137 158
290 23 29 45 67 49 84 8 37 46 59 70 39 12 -10 15 -37 16 -129 0 -64 4 -138 7
-165 l7 -48 54 78 c206 298 325 411 362 343z m-803 -117 c2 -12 -19 -71 -46
-130 -131 -283 -210 -598 -155 -619 28 -11 106 85 163 200 57 114 66 125 80
111 17 -17 -98 -221 -168 -296 -95 -102 -147 -40 -122 144 14 99 70 327 105
422 14 38 24 70 22 72 -9 9 -113 -172 -212 -366 -131 -259 -166 -313 -198
-308 -26 4 -39 57 -31 128 18 150 95 440 145 544 10 22 17 41 15 44 -11 10
-69 -44 -101 -94 -52 -81 -87 -153 -165 -344 -39 -96 -86 -201 -105 -234 -76
-136 -201 -210 -265 -158 -37 30 -20 59 40 64 99 10 169 94 302 368 50 102
108 215 129 252 22 36 39 69 39 73 0 3 -35 -24 -77 -60 -147 -124 -253 -266
-253 -339 0 -31 -24 -66 -46 -66 -8 0 -21 12 -31 26 -45 70 50 209 247 361
105 80 258 181 295 193 71 24 115 -7 82 -57 -81 -125 -217 -523 -217 -635 0
-62 18 -38 112 150 162 326 236 451 317 535 35 36 52 47 71 45 17 -2 26 -10
28 -26z m942 -358 c19 -37 61 -98 94 -137 39 -46 54 -72 47 -77 -17 -10 -482
-152 -486 -148 -2 2 15 41 38 88 68 137 101 213 106 249 6 31 11 35 81 61 41
16 77 29 80 29 3 0 21 -29 40 -65z m-1880 -30 c0 -3 -9 -22 -19 -42 -29 -58
-35 -103 -17 -145 16 -41 47 -58 88 -50 38 7 59 35 65 85 6 46 38 118 52 118
5 0 16 -3 25 -6 13 -5 10 -17 -20 -77 -58 -117 -126 -217 -148 -217 -27 0
-186 52 -186 61 0 4 18 46 41 94 22 48 51 111 64 141 18 40 28 52 39 48 9 -3
16 -8 16 -10z m1560 -8 c0 -18 -94 -224 -109 -240 -20 -20 -20 -20 -31 10 -18
47 -41 155 -38 177 2 17 17 24 78 38 80 18 100 21 100 15z m-1200 -68 c0 -7
-7 -60 -15 -118 -12 -77 -13 -118 -6 -149 l9 -43 -46 6 c-26 4 -59 9 -74 12
l-28 6 20 38 c11 21 38 84 61 141 23 57 43 107 46 112 7 12 33 8 33 -5z m785
-35 c-45 -70 -112 -152 -162 -200 -49 -47 -54 -56 -48 -83 l7 -30 -71 2 -72 2
34 35 c47 50 89 112 139 206 42 78 44 80 82 82 21 1 41 5 44 8 3 3 19 5 35 5
l29 0 -17 -27z m-644 -10 c-8 -15 -10 -15 -11 -2 0 17 10 32 18 25 2 -3 -1
-13 -7 -23z m150 -80 c-12 -102 -8 -153 15 -190 10 -15 10 -24 3 -29 -10 -6
-199 4 -199 11 0 1 16 29 36 61 19 33 55 100 79 151 39 80 61 108 74 97 2 -2
-2 -47 -8 -101z m224 80 c-9 -25 -72 -134 -90 -157 -8 -11 -18 -17 -21 -13 -6
6 22 163 32 179 3 4 23 8 46 8 34 0 39 -3 33 -17z m442 -172 c9 -14 27 -38 40
-52 l24 -26 -162 -22 c-88 -12 -163 -20 -165 -18 -3 2 9 19 26 37 17 18 65 75
107 128 l77 95 18 -58 c11 -31 26 -69 35 -84z m713 -222 c314 -22 752 -112
821 -168 22 -18 22 -19 6 -44 -21 -32 -78 -45 -121 -27 -297 121 -537 164
-911 164 -369 0 -686 -39 -1100 -135 -601 -139 -1221 -391 -1602 -651 -125
-85 -221 -113 -297 -88 -64 21 -68 64 -10 126 94 99 452 298 734 407 624 243
1224 372 1960 421 113 7 388 5 520 -5z"/>
<path d="M4590 9210 c-58 -10 -94 -18 -80 -19 31 -1 221 27 228 34 9 8 -37 4
-148 -15z"/>
<path d="M5401 9032 c-6 -10 -10 -11 -15 -3 -4 6 -34 11 -70 11 l-63 0 -16
-40 c-8 -22 -14 -40 -12 -40 1 0 22 9 46 20 63 28 97 26 110 -6 9 -25 13 -26
52 -21 23 4 60 12 82 18 l40 11 -40 34 c-43 36 -98 44 -114 16z"/>
<path d="M5100 8950 c0 -5 -12 -10 -27 -10 -65 0 -99 -32 -86 -79 8 -30 26
-26 21 4 -3 14 -1 25 3 25 5 0 9 -4 9 -10 0 -5 12 -10 26 -10 14 0 23 -4 20
-9 -7 -10 22 -25 42 -22 6 1 12 -6 12 -15 0 -13 -7 -15 -32 -11 -18 2 -43 0
-55 -6 -29 -13 -31 -37 -2 -30 25 7 39 -11 39 -50 0 -22 -4 -28 -17 -25 -13 3
-18 13 -17 35 2 30 1 31 -28 21 -66 -23 -81 -111 -33 -192 16 -27 31 -44 33
-37 3 8 8 7 16 -4 10 -13 21 -15 58 -10 l45 7 6 56 c5 49 11 62 41 90 20 18
36 38 36 44 0 6 9 22 21 34 l20 21 -26 39 c-23 33 -26 46 -22 90 l5 52 -36 6
c-53 8 -72 7 -72 -4z m7 -82 c-3 -8 -6 -5 -6 6 -1 11 2 17 5 13 3 -3 4 -12 1
-19z m-30 -245 c-3 -10 -5 -4 -5 12 0 17 2 24 5 18 2 -7 2 -21 0 -30z"/>
<path d="M5407 8880 c7 -65 11 -72 58 -90 19 -8 34 -18 32 -23 -2 -6 -25 -21
-52 -35 -26 -14 -43 -28 -36 -30 7 -2 21 4 32 14 18 16 19 16 19 -7 0 -23 1
-23 26 9 14 17 32 32 40 32 20 0 18 5 -22 71 -20 33 -48 66 -64 74 -15 8 -31
20 -34 27 -3 7 -2 -12 1 -42z"/>
<path d="M4616 8783 c-31 -33 -32 -40 -8 -45 13 -3 8 -10 -20 -27 -42 -25 -47
-36 -21 -45 11 -4 22 -1 29 8 13 19 25 20 59 4 25 -11 36 -32 12 -22 -8 3 -13
-4 -14 -17 -3 -35 -22 -47 -39 -25 -13 19 -14 19 -34 1 -18 -16 -20 -17 -14
-2 12 33 -21 17 -38 -19 -23 -45 -23 -80 2 -140 10 -27 24 -69 30 -92 9 -35
15 -42 28 -37 38 17 60 16 77 -1 18 -18 18 -18 11 11 -14 63 -24 156 -19 178
3 12 31 46 62 75 52 50 58 53 98 50 42 -3 43 -3 43 28 0 57 -56 102 -97 76 -6
-4 -14 -23 -18 -43 -6 -34 -8 -36 -30 -25 -20 9 -21 12 -8 21 14 10 12 17 -9
51 -41 65 -52 70 -82 37z m37 -210 c-7 -2 -21 -2 -30 0 -10 3 -4 5 12 5 17 0
24 -2 18 -5z m-20 -30 c-7 -2 -19 -2 -25 0 -7 3 -2 5 12 5 14 0 19 -2 13 -5z"/>
<path d="M5330 8690 c0 -5 -9 -10 -19 -10 -11 0 -26 -8 -33 -18 -7 -11 -20
-21 -28 -25 -10 -4 -8 -6 7 -6 13 -1 27 8 33 19 8 15 21 20 50 20 40 0 53 13
24 24 -23 9 -34 7 -34 -4z"/>
<path d="M5485 8661 c-3 -11 -11 -21 -16 -21 -5 0 -9 -8 -9 -19 0 -10 -9 -21
-20 -24 -17 -4 -43 -46 -35 -55 8 -9 45 11 45 24 0 8 5 14 11 14 6 0 9 -8 7
-17 -2 -11 -24 -24 -63 -35 -32 -10 -62 -23 -65 -29 -4 -5 -2 -33 3 -62 8 -38
7 -52 -1 -55 -7 -2 -12 -14 -12 -27 0 -14 -8 -29 -19 -34 -29 -16 -32 -57 -7
-86 18 -21 31 -25 73 -25 65 0 151 17 181 37 22 13 23 20 20 96 -2 48 -8 88
-15 95 -7 7 -13 26 -13 41 0 45 -31 175 -45 190 -11 11 -14 10 -20 -8z m60
-222 c6 -19 0 -38 -9 -28 -10 12 -16 49 -7 49 5 0 13 -9 16 -21z"/>
<path d="M5238 8653 c7 -3 16 -2 19 1 4 3 -2 6 -13 5 -11 0 -14 -3 -6 -6z"/>
<path d="M5308 8633 c7 -3 16 -2 19 1 4 3 -2 6 -13 5 -11 0 -14 -3 -6 -6z"/>
<path d="M5318 8622 c-33 -4 -34 -9 -11 -57 21 -43 35 -46 26 -4 -4 20 -1 34
7 39 20 12 7 25 -22 22z"/>
<path d="M5190 8572 c0 -21 7 -65 15 -97 9 -33 14 -69 11 -80 -2 -11 4 -36 14
-55 17 -31 19 -32 20 -11 0 13 -7 49 -15 80 -8 31 -14 84 -13 117 0 34 -2 66
-6 73 -14 22 -26 10 -26 -27z"/>
<path d="M5240 8556 c0 -14 5 -26 10 -26 6 0 10 9 10 19 0 11 -4 23 -10 26 -6
4 -10 -5 -10 -19z"/>
<path d="M5263 8503 c9 -2 23 -2 30 0 6 3 -1 5 -18 5 -16 0 -22 -2 -12 -5z"/>
<path d="M4716 8247 c1 -17 2 -48 3 -67 l3 -35 9 30 c5 17 7 41 5 55 -3 14 -5
31 -5 38 -2 28 -16 9 -15 -21z"/>
<path d="M3845 8235 c-23 -10 -26 -14 -10 -14 29 -1 65 10 65 20 0 13 -20 10
-55 -6z"/>
<path d="M4623 8075 c-43 -29 -51 -39 -50 -62 2 -17 8 -28 17 -28 15 0 97 111
89 120 -3 2 -28 -11 -56 -30z"/>
<path d="M6149 8710 c-34 -18 -56 -46 -45 -58 3 -2 24 14 48 37 48 46 48 48
-3 21z"/>
<path d="M6327 8626 c-64 -17 -126 -72 -126 -111 0 -14 4 -10 14 13 8 18 22
35 32 38 10 3 52 21 93 40 77 35 72 43 -13 20z"/>
<path d="M6420 8619 c0 -5 -11 -11 -25 -15 -13 -3 -30 -13 -37 -22 -12 -13 -8
-15 33 -10 31 4 52 1 65 -9 10 -8 27 -19 37 -24 26 -15 22 14 -8 49 -24 29
-65 49 -65 31z"/>
<path d="M6111 8256 c-11 -29 -27 -82 -36 -117 -9 -35 -23 -86 -32 -112 -19
-62 -11 -70 21 -19 20 32 86 256 86 293 0 27 -21 2 -39 -45z"/>
<path d="M5780 7639 c-14 -5 -43 -13 -66 -19 -41 -10 -108 -60 -81 -60 8 0 40
9 73 21 32 11 77 24 99 27 25 5 40 13 40 22 0 18 -30 22 -65 9z"/>
<path d="M5700 7540 c-40 -17 -100 -40 -210 -79 -19 -7 -57 -22 -85 -32 -131
-52 -295 -112 -339 -124 -27 -8 -54 -19 -59 -24 -6 -6 -25 -11 -41 -11 -17 0
-49 -12 -71 -25 -22 -14 -52 -25 -67 -25 -15 0 -31 -6 -35 -14 -13 -22 -49
-36 -91 -36 -57 0 -64 26 -12 40 22 6 42 15 45 20 3 6 18 10 33 10 42 0 72 11
72 26 0 10 14 14 52 14 36 0 58 6 72 18 18 16 144 62 170 62 4 0 22 6 39 14
18 7 66 26 107 42 41 16 95 40 120 55 25 14 59 31 75 37 l30 10 -37 1 c-20 1
-74 -13 -120 -30 -46 -17 -166 -60 -268 -95 -102 -35 -256 -91 -342 -124 -87
-33 -164 -60 -172 -60 -8 0 -16 -7 -20 -15 -3 -8 -15 -15 -26 -15 -11 0 -20
-4 -20 -10 0 -5 -13 -10 -29 -10 -17 0 -32 -4 -35 -9 -4 -5 -25 -12 -49 -16
-23 -4 -58 -16 -77 -26 -19 -10 -53 -23 -75 -28 -22 -5 -53 -14 -70 -20 -16
-6 -47 -13 -67 -16 -28 -4 -38 -11 -38 -24 0 -35 81 -43 121 -13 13 11 44 22
69 26 24 4 52 14 61 22 9 8 40 17 68 21 36 4 55 12 62 24 17 33 86 19 73 -14
-5 -13 -19 -17 -64 -17 -39 0 -62 -5 -70 -15 -7 -8 -37 -22 -67 -31 -29 -9
-65 -26 -78 -39 -14 -12 -43 -25 -65 -29 -37 -6 -57 -25 -27 -27 48 -2 211 3
222 7 8 3 15 15 17 27 2 18 11 22 43 25 71 4 105 13 105 26 0 9 19 16 53 20
30 4 61 16 73 27 11 10 41 23 67 28 26 5 55 15 65 24 9 8 33 18 52 22 19 4 49
15 65 25 17 10 48 22 70 25 22 4 47 13 55 20 8 7 41 20 72 29 31 9 59 20 63
25 3 5 23 12 44 16 22 3 47 15 57 26 9 10 25 19 36 19 10 0 62 18 115 41 54
23 108 43 121 46 13 3 26 12 29 19 2 7 26 16 51 20 70 11 98 26 132 72 35 49
25 53 -50 22z m-1068 -386 c4 -3 8 -14 8 -24 0 -16 -4 -17 -37 -8 -53 14 -75
27 -67 40 6 10 76 4 96 -8z"/>
<path d="M5780 7462 c0 -14 65 -72 80 -72 8 0 -3 18 -25 40 -38 39 -55 49 -55
32z"/>
<path d="M5700 7412 c0 -9 25 -33 48 -46 19 -11 14 8 -8 32 -21 22 -40 29 -40
14z"/>
<path d="M5605 7391 c-6 -5 -35 -19 -65 -31 -30 -12 -77 -31 -105 -42 -27 -11
-72 -26 -100 -34 -27 -8 -63 -20 -80 -28 -83 -41 -146 -66 -162 -66 -10 0 -40
-11 -68 -25 -27 -13 -57 -25 -65 -25 -9 0 -24 -6 -35 -14 -11 -8 -44 -21 -74
-30 -29 -9 -60 -21 -67 -27 -8 -7 -40 -18 -71 -25 -31 -7 -60 -20 -65 -28 -4
-8 -26 -17 -48 -21 -22 -4 -44 -13 -48 -22 -9 -16 -69 -32 -119 -33 -26 0 -33
-4 -33 -19 0 -22 -12 -27 -85 -36 -79 -10 -97 -15 -92 -28 2 -7 19 -15 38 -18
28 -5 24 -7 -23 -8 -61 -1 -70 -10 -44 -46 10 -14 25 -18 58 -17 38 2 46 -1
44 -15 -1 -14 8 -19 42 -21 24 -2 40 -7 37 -13 -4 -5 -32 -7 -69 -3 -74 8 -90
-5 -55 -42 16 -18 33 -24 62 -24 42 0 135 38 156 64 7 8 37 20 66 26 30 6 65
20 78 30 14 11 48 25 77 31 29 6 60 19 70 29 11 11 36 22 57 26 42 7 71 20 90
40 7 7 33 16 58 19 26 4 55 17 70 31 15 14 38 24 54 24 16 0 39 8 52 19 13 10
50 26 82 35 31 9 57 21 57 25 0 5 15 12 33 16 17 4 61 22 97 40 36 18 112 52
169 74 117 47 132 56 124 78 -10 26 -45 32 -78 13 -16 -10 -46 -21 -65 -25
-19 -4 -81 -27 -137 -51 -57 -24 -107 -44 -112 -44 -9 0 -93 -36 -166 -70 -22
-10 -55 -21 -73 -24 -18 -3 -42 -15 -54 -26 -12 -11 -35 -20 -51 -20 -16 0
-46 -10 -66 -22 -20 -13 -56 -28 -81 -33 -29 -6 -45 -16 -45 -25 0 -16 -37
-27 -97 -29 -26 -1 -42 -8 -56 -26 -17 -21 -28 -25 -71 -25 -39 0 -51 4 -51
15 0 8 -7 15 -17 15 -9 0 -14 2 -11 5 3 4 37 7 76 9 59 3 76 7 102 30 22 18
43 26 69 26 26 0 46 7 63 24 14 13 45 26 68 30 24 4 54 15 67 26 13 10 44 22
69 26 28 4 48 13 54 25 6 11 27 20 55 25 25 3 56 15 69 25 13 11 30 19 37 19
7 0 31 9 53 19 93 44 265 113 398 160 26 9 48 21 48 27 0 32 -72 58 -95 35z
m-1116 -570 c9 -16 6 -19 -21 -25 -17 -3 -48 -6 -69 -6 -32 0 -37 3 -32 18 10
25 23 32 70 32 31 0 45 -5 52 -19z"/>
<path d="M6499 7386 c13 -16 51 -41 51 -33 0 2 -15 14 -32 27 -21 15 -28 17
-19 6z"/>
<path d="M6430 7324 c8 -8 23 -20 34 -26 19 -10 18 -8 -3 16 -26 27 -53 37
-31 10z"/>
<path d="M6015 7279 c-39 -12 -73 -17 -98 -13 -31 5 -36 3 -31 -10 7 -19 -26
-22 -57 -6 -14 8 -19 7 -19 -3 0 -29 75 -76 93 -58 6 6 23 11 38 11 15 0 68
16 118 35 49 19 98 35 107 35 13 0 14 3 4 15 -17 21 -82 18 -155 -6z"/>
<path d="M4214 7275 c-29 -8 -67 -21 -85 -29 l-34 -14 31 -1 c30 -1 126 28
161 48 17 10 16 10 -2 10 -11 0 -43 -7 -71 -14z"/>
<path d="M5700 7281 c0 -11 40 -41 54 -41 5 0 -1 11 -14 25 -24 26 -40 32 -40
16z"/>
<path d="M6233 7236 c15 -18 23 -37 19 -41 -7 -8 87 2 113 11 13 5 22 34 11
34 -2 0 -40 7 -83 15 -43 8 -80 15 -82 15 -2 0 8 -15 22 -34z"/>
<path d="M4232 7179 c-19 -4 -39 -12 -45 -19 -10 -10 -3 -11 28 -5 37 6 64 20
54 28 -2 2 -19 0 -37 -4z"/>
<path d="M6055 7180 c-3 -6 1 -7 9 -4 18 7 21 14 7 14 -6 0 -13 -4 -16 -10z"/>
<path d="M6187 7180 c-16 -5 -34 -13 -40 -18 -19 -16 -130 -58 -173 -66 -21
-4 -45 -12 -52 -18 -7 -6 -32 -8 -57 -6 -25 3 -45 4 -45 1 0 -13 46 -63 58
-63 17 0 305 123 338 145 14 9 22 20 19 25 -7 11 -10 11 -48 0z"/>
<path d="M5670 7166 c-104 -41 -150 -60 -209 -91 -36 -19 -89 -39 -118 -45
-28 -6 -54 -17 -57 -25 -2 -7 -18 -16 -35 -19 -17 -3 -44 -9 -60 -12 -20 -3
-28 -10 -25 -19 6 -15 -3 -18 -81 -30 -22 -4 -47 -15 -57 -24 -9 -10 -35 -21
-58 -25 -23 -4 -56 -17 -74 -30 -17 -14 -48 -27 -68 -31 -20 -4 -44 -15 -53
-25 -9 -10 -36 -22 -58 -25 -23 -4 -58 -17 -78 -30 -20 -13 -54 -28 -75 -34
-22 -6 -48 -17 -59 -24 -11 -8 -45 -21 -75 -31 -70 -22 -117 -43 -126 -58 -4
-6 7 -24 25 -40 37 -33 61 -32 141 5 l45 21 -60 6 -60 5 67 18 c37 9 81 17 98
17 50 0 200 56 333 125 26 14 52 25 58 25 7 0 50 18 98 41 150 71 164 77 261
118 52 22 119 52 147 66 29 14 56 25 59 25 3 0 17 9 31 20 14 11 34 20 44 20
9 0 31 12 48 26 18 15 49 28 73 32 24 3 49 12 57 19 11 12 11 16 -5 28 -24 18
-49 18 -94 1z"/>
<path d="M5840 7095 c9 -8 24 -12 38 -9 35 10 26 24 -15 24 -33 0 -36 -2 -23
-15z"/>
<path d="M5660 7010 c0 -5 15 -10 34 -10 42 0 56 -17 22 -26 -31 -7 -56 -7
-121 1 -38 5 -62 2 -100 -13 -71 -28 -427 -183 -505 -220 -111 -52 -227 -102
-237 -102 -5 0 -29 -13 -54 -28 -24 -15 -62 -33 -84 -40 -22 -6 -53 -23 -68
-36 -16 -13 -47 -28 -69 -31 -82 -14 -132 -46 -94 -61 8 -3 16 -19 20 -35 10
-53 64 -57 152 -10 22 11 65 31 97 45 31 14 57 29 57 35 0 5 19 12 43 16 23 4
67 20 97 35 30 16 89 44 130 63 41 19 203 95 360 170 157 74 296 138 310 142
44 13 140 65 140 76 0 14 -63 39 -100 39 -16 0 -30 -4 -30 -10z m-670 -360 c0
-5 -4 -10 -10 -10 -5 0 -10 5 -10 10 0 6 5 10 10 10 6 0 10 -4 10 -10z m-160
-60 c0 -27 -42 -43 -83 -32 -17 4 -32 13 -34 19 -5 14 41 31 85 32 26 1 32 -3
32 -19z m-192 -72 c-3 -7 -15 -15 -28 -16 -21 -3 -22 -2 -11 12 16 19 44 21
39 4z m-70 -45 c-2 -11 -18 -20 -43 -25 -49 -11 -82 -4 -40 7 16 5 36 14 43
22 19 19 44 16 40 -4z"/>
<path d="M4170 6890 c-12 -8 -12 -10 5 -10 11 0 27 5 35 10 12 8 12 10 -5 10
-11 0 -27 -5 -35 -10z"/>
<path d="M6419 6345 c28 -30 51 -57 51 -62 -1 -4 -7 -35 -15 -68 -19 -77 -19
-106 -1 -99 28 11 90 -105 76 -142 -5 -12 -35 -43 -67 -69 -60 -49 -89 -82
-80 -92 10 -9 110 51 154 93 63 60 59 105 -15 186 -23 25 -24 31 -18 100 11
116 10 127 -10 149 -23 26 -71 51 -102 55 -20 2 -16 -5 27 -51z"/>
<path d="M6090 6212 c0 -10 13 -44 30 -77 16 -33 30 -67 30 -76 0 -8 -11 -49
-25 -89 -14 -40 -25 -90 -25 -110 0 -54 -18 -72 -86 -81 -32 -5 -72 -6 -87 -3
-36 7 -73 -21 -56 -43 9 -10 25 -12 60 -7 41 6 49 4 49 -10 0 -25 -74 -57
-138 -58 -42 -1 -85 8 -167 36 -126 43 -170 72 -95 62 25 -3 60 -9 78 -12 53
-10 120 5 155 35 18 16 43 34 56 41 21 11 26 10 37 -5 12 -16 16 -17 46 -2 18
9 43 25 55 36 12 12 29 21 37 21 21 0 27 25 33 131 6 101 -9 199 -30 199 -7 0
-24 -16 -40 -35 -15 -19 -57 -51 -95 -71 -37 -20 -114 -65 -172 -99 -58 -34
-152 -89 -210 -122 -58 -32 -106 -65 -107 -73 -2 -8 18 -30 44 -47 27 -18 64
-44 84 -58 22 -16 60 -29 100 -36 89 -14 129 -28 129 -46 0 -13 11 -15 60 -11
52 4 69 10 118 46 31 23 78 53 104 67 25 13 55 37 66 52 26 38 67 203 53 212
-6 4 -12 39 -14 77 -3 54 -10 82 -32 122 -29 53 -45 66 -45 34z m-69 -229 c-9
-15 -10 -12 -10 17 0 29 1 32 10 18 7 -12 7 -24 0 -35z"/>
<path d="M6852 6208 c4 -27 35 -32 41 -8 6 23 0 30 -25 30 -14 0 -19 -6 -16
-22z"/>
<path d="M6816 5999 c14 -64 3 -101 -61 -189 -42 -59 -68 -110 -60 -118 15
-14 142 156 165 220 11 31 11 40 -6 74 -25 51 -49 59 -38 13z"/>
<path d="M6348 6013 c-22 -5 -24 -63 -4 -108 16 -35 21 -26 30 52 7 54 3 62
-26 56z"/>
<path d="M5247 5723 c-27 -27 33 -49 156 -56 53 -4 97 -4 97 -2 0 13 -75 40
-145 51 -93 16 -99 16 -108 7z"/>
<path d="M5885 5500 c-3 -5 -2 -10 4 -10 5 0 13 5 16 10 3 6 2 10 -4 10 -5 0
-13 -4 -16 -10z"/>
<path d="M3252 8070 c-75 -62 -86 -98 -14 -49 64 44 111 99 84 99 -4 0 -35
-23 -70 -50z"/>
<path d="M3122 8050 c-69 -47 -132 -112 -131 -138 0 -9 4 -26 8 -36 6 -16 10
-13 24 22 12 29 40 61 97 109 44 38 80 71 80 76 0 14 -19 6 -78 -33z"/>
<path d="M3401 7805 c-23 -50 -21 -66 6 -49 21 13 32 52 23 78 -5 16 -10 10
-29 -29z"/>
<path d="M3165 7413 c10 -89 24 -133 41 -133 10 0 14 6 11 18 -3 9 -8 35 -12
57 -18 113 -53 162 -40 58z"/>
<path d="M3132 7010 c-12 -12 -50 -62 -84 -112 -33 -51 -79 -111 -100 -134
-35 -38 -43 -64 -19 -64 5 0 35 18 68 39 32 22 91 52 130 66 69 26 113 58 99
72 -8 8 -85 -28 -138 -64 -20 -13 -44 -23 -53 -21 -12 2 1 27 55 106 38 57 70
110 70 118 0 18 -2 18 -28 -6z"/>
<path d="M3094 6635 c11 -8 27 -15 35 -15 10 1 7 6 -9 15 -33 19 -50 18 -26 0z"/>
<path d="M2877 6353 c-24 -23 13 -184 49 -214 25 -21 28 -1 6 49 -12 26 -26
74 -32 106 -11 64 -13 70 -23 59z"/>
<path d="M3118 5971 c-10 -25 -17 -46 -15 -47 1 -1 10 4 20 11 13 9 17 23 15
47 l-3 33 -17 -44z"/>
<path d="M3477 6509 c-21 -11 -36 -26 -34 -32 6 -16 38 -9 61 13 30 29 15 40
-27 19z"/>
<path d="M3291 6091 c-7 -5 -12 -14 -10 -20 3 -7 15 -3 34 9 25 16 27 20 10
20 -11 0 -26 -4 -34 -9z"/>
<path d="M5491 4102 c-59 -59 -110 -150 -178 -314 -72 -177 -93 -257 -100
-374 -7 -117 9 -179 57 -232 32 -35 57 -40 98 -18 113 59 216 288 306 678 38
164 39 182 5 250 -23 45 -45 58 -99 58 -36 0 -47 -6 -89 -48z"/>
<path d="M4652 3998 c-27 -27 -9 -83 35 -106 33 -18 113 -16 113 3 0 26 -29
87 -48 101 -21 17 -84 18 -100 2z"/>
<path d="M4531 3935 c-164 -138 -314 -625 -260 -841 14 -56 51 -84 109 -84
128 0 251 146 330 395 32 103 73 273 85 358 l6 47 -48 0 c-55 1 -115 20 -144
46 -11 10 -25 37 -32 62 l-13 44 -33 -27z"/>
</g>
</svg>
