<?xml version="1.0" standalone="no"?>
<!DOCTYPE svg PUBLIC "-//W3C//DTD SVG 20010904//EN"
 "http://www.w3.org/TR/2001/REC-SVG-20010904/DTD/svg10.dtd">
<svg version="1.0" xmlns="http://www.w3.org/2000/svg"
 width="120" height="120" viewBox="0 0 200.000000 200.000000"
 preserveAspectRatio="xMidYMid meet">

<g transform="translate(0.000000,200.000000) scale(0.100000,-0.100000)"
fill="#000000" stroke="none">
<path d="M826 1970 c-65 -12 -199 -57 -261 -87 -282 -141 -489 -421 -536 -726
-15 -95 -6 -325 16 -397 49 -164 114 -289 207 -397 133 -156 288 -253 513
-320 88 -26 371 -26 470 1 364 98 623 357 721 721 27 99 27 382 1 470 -114
380 -354 620 -722 721 -69 19 -331 28 -409 14z m-22 -509 c27 -14 58 -40 70
-57 l20 -32 116 2 116 1 33 37 c113 129 322 97 394 -62 26 -57 25 -145 -1
-197 -18 -35 -19 -41 -5 -66 22 -44 33 -126 22 -178 -21 -97 -116 -164 -276
-195 -191 -36 -490 -27 -642 21 -175 56 -240 183 -175 344 14 36 14 42 -1 71
-52 101 -13 239 87 305 74 49 158 51 242 6z m-444 -548 c-24 -44 -25 -74 -6
-111 74 -142 419 -229 794 -201 284 21 501 110 533 218 10 33 8 45 -10 86 -13
29 -16 43 -8 36 27 -22 50 -88 43 -125 -22 -114 -207 -223 -456 -267 -123 -22
-394 -16 -520 10 -316 67 -486 230 -379 364 29 38 33 34 9 -10z"/>
<path d="M599 1367 c-48 -32 -73 -86 -64 -142 12 -84 76 -131 165 -123 134 13
176 172 70 262 -42 35 -121 37 -171 3z m153 -74 c37 -33 14 -123 -32 -123 -45
0 -69 82 -35 120 22 24 42 25 67 3z"/>
<path d="M1263 1370 c-88 -53 -83 -208 7 -255 38 -19 113 -19 151 0 43 23 69
71 69 128 0 93 -54 147 -145 147 -32 0 -62 -7 -82 -20z m157 -80 c36 -36 15
-120 -31 -120 -29 0 -59 36 -59 70 0 32 30 70 55 70 8 0 24 -9 35 -20z"/>
</g>
</svg>
