<?xml version="1.0" standalone="no"?>
<!DOCTYPE svg PUBLIC "-//W3C//DTD SVG 20010904//EN"
 "http://www.w3.org/TR/2001/REC-SVG-20010904/DTD/svg10.dtd">
<svg version="1.0" xmlns="http://www.w3.org/2000/svg"
 width="63.931" height="63.931" viewBox="0 0 512.000000 512.000000"
 preserveAspectRatio="xMidYMid meet">

<g transform="translate(0.000000,512.000000) scale(0.100000,-0.100000)"
fill="#000000" stroke="none">
<path d="M0 2560 l0 -2560 2560 0 2560 0 0 2560 0 2560 -2560 0 -2560 0 0
-2560z m1440 2038 c0 -13 -127 -1380 -134 -1440 -3 -31 1 -41 33 -71 99 -97
235 -149 386 -149 150 0 271 47 373 145 l42 41 0 743 0 743 420 0 420 0 0
-654 0 -654 -32 -53 c-18 -30 -43 -68 -54 -84 -47 -66 -115 -220 -177 -402
-56 -164 -75 -206 -125 -280 -75 -111 -119 -160 -133 -146 -16 16 14 187 45
257 32 72 32 90 4 110 -31 22 -52 20 -87 -10 l-31 -25 -16 41 c-16 39 -54 70
-88 70 -27 0 -116 -81 -146 -133 -17 -29 -57 -86 -90 -127 -33 -41 -73 -91
-88 -111 -30 -41 -117 -109 -138 -109 -8 0 -20 12 -26 26 -32 71 78 452 135
462 22 4 22 -25 2 -91 -13 -43 -13 -48 2 -54 39 -15 76 41 70 106 -9 88 -72
124 -141 82 -39 -25 -75 -74 -111 -153 -30 -66 -27 -64 -82 -73 l-41 -7 14 49
c20 67 20 145 -1 177 -22 33 -75 66 -108 66 -35 0 -92 -51 -114 -101 -11 -27
-28 -45 -48 -53 -55 -23 -96 -68 -136 -147 -57 -115 -52 -181 21 -242 43 -37
92 -44 143 -21 45 21 130 103 174 168 37 56 51 66 91 66 31 0 34 -2 28 -22
-12 -41 -19 -164 -12 -211 5 -31 17 -57 37 -78 26 -28 34 -31 68 -26 22 3 59
18 83 35 44 31 133 121 179 181 l25 34 0 -51 c0 -66 27 -106 74 -110 27 -3 40
4 78 40 24 24 67 77 94 118 37 56 48 68 43 45 -24 -115 -17 -204 20 -241 52
-52 109 -24 191 96 26 38 49 68 51 66 2 -2 -1 -23 -6 -47 -17 -73 -13 -179 8
-226 24 -52 68 -78 119 -68 50 9 148 111 238 247 l71 107 22 -29 c28 -38 76
-63 107 -56 13 4 42 29 64 57 22 28 40 47 40 42 0 -4 -9 -46 -20 -93 -36 -155
-25 -221 41 -255 25 -13 34 -14 56 -3 30 14 130 135 226 271 59 83 62 86 68
60 20 -100 117 -155 202 -117 47 22 135 107 179 176 33 51 37 53 109 63 56 7
89 28 72 45 -8 9 -24 9 -63 1 -71 -15 -70 -16 -54 37 20 66 20 144 -1 176 -22
33 -75 66 -108 66 -34 0 -91 -51 -114 -101 -12 -28 -29 -45 -60 -60 -45 -22
-72 -50 -143 -150 -66 -93 -210 -271 -265 -330 -60 -63 -73 -56 -56 33 26 133
196 601 225 620 6 4 29 7 51 7 106 -1 145 8 145 34 0 10 -22 12 -90 9 -106 -5
-112 6 -27 51 29 15 75 47 102 71 l49 43 -67 724 c-37 398 -68 734 -67 747 l0
22 229 0 c220 0 229 -1 262 -23 27 -18 93 -126 329 -537 l295 -515 -2 -73 c-3
-167 -96 -336 -237 -433 l-36 -24 -2 -225 -3 -224 -65 -38 c-36 -21 -68 -38
-71 -38 -3 0 -15 48 -27 106 -19 99 -20 108 -4 149 13 36 14 46 3 59 -21 25
-50 19 -88 -19 l-36 -36 7 -89 c4 -49 13 -111 21 -137 24 -79 22 -84 -60 -141
-96 -67 -139 -123 -130 -172 3 -19 19 -48 35 -64 23 -23 40 -30 84 -34 69 -6
96 1 136 34 54 46 74 97 73 194 l0 85 63 37 64 36 0 -772 c0 -656 -2 -780 -15
-823 -19 -63 -82 -136 -146 -168 l-48 -25 -1008 1 c-554 0 -1002 3 -995 6 22
9 13 21 -21 27 -48 9 -74 30 -60 47 37 46 65 335 54 554 -5 83 -8 151 -7 152
0 1 13 -1 28 -4 26 -5 27 -9 30 -67 l3 -61 66 -3 66 -3 1 161 1 160 -50 0
c-72 0 -89 -12 -89 -61 0 -33 -3 -40 -17 -37 -21 4 -40 40 -48 88 -5 36 -16
42 -127 77 -11 3 -21 -5 -32 -26 -18 -34 -20 -126 -7 -308 7 -90 13 -118 32
-149 20 -33 24 -54 27 -159 2 -78 -2 -153 -12 -215 -11 -67 -12 -96 -4 -101 6
-4 8 -18 4 -34 -5 -19 -3 -31 6 -37 7 -4 -298 -7 -678 -5 l-692 2 -53 37 c-58
40 -93 85 -115 145 -11 31 -13 232 -14 1078 l-1 1040 -55 38 c-99 69 -183 199
-210 326 -30 142 -47 100 286 683 258 452 304 528 332 541 27 14 72 17 261 17
170 0 227 -3 227 -12z m1480 -1448 c-6 -11 -13 -20 -16 -20 -2 0 0 9 6 20 6
11 13 20 16 20 2 0 0 -9 -6 -20z m94 -113 c-26 -51 -168 -287 -171 -283 -4 4
60 191 100 294 l32 83 28 -31 c27 -30 27 -31 11 -63z m174 -70 c-2 -2 3 -11
10 -20 11 -13 10 -16 -7 -22 -24 -7 -28 -25 -6 -25 12 0 13 -5 3 -27 -7 -16
-18 -35 -26 -45 -16 -19 -13 -70 5 -75 6 -2 30 13 53 34 23 20 38 39 32 41 -6
2 -4 14 6 31 13 24 25 30 67 35 60 7 115 8 115 1 0 -4 -56 -160 -83 -229 -6
-16 -26 -51 -44 -77 -18 -27 -33 -53 -33 -58 0 -14 -109 -101 -126 -101 -8 0
-17 6 -20 14 -7 18 31 130 62 184 14 23 22 46 19 51 -11 19 -73 33 -94 22 -18
-10 -61 -105 -61 -135 0 -20 -136 -234 -197 -309 -62 -77 -93 -97 -118 -77
-13 10 -15 33 -14 109 2 137 44 283 103 360 46 60 234 343 242 366 4 10 18 7
60 -15 30 -16 53 -31 52 -33z m-1605 -197 c0 -36 -9 -90 -20 -120 -17 -51 -21
-55 -51 -58 -18 -2 -40 2 -48 9 -47 39 40 246 101 237 18 -3 20 -10 18 -68z
m2460 0 c0 -36 -9 -90 -20 -120 -17 -51 -21 -55 -51 -58 -18 -2 -40 2 -48 9
-47 39 40 246 101 237 18 -3 20 -10 18 -68z m-1699 -113 l8 -58 -73 -96 c-41
-53 -80 -99 -88 -101 -23 -8 -7 83 34 185 59 148 103 174 119 70z m-937 -40
c11 -24 67 -57 97 -57 22 0 20 -9 -12 -61 -54 -84 -136 -141 -178 -125 -26 10
-13 89 31 184 21 45 41 82 45 82 4 0 12 -11 17 -23z m2460 0 c11 -24 67 -57
97 -57 22 0 20 -9 -12 -61 -54 -84 -136 -141 -178 -125 -26 10 -13 89 31 184
21 45 41 82 45 82 4 0 12 -11 17 -23z m-438 -36 c-6 -18 -13 -30 -15 -28 -2 2
1 18 7 36 6 18 13 30 15 28 2 -2 -1 -18 -7 -36z m828 -339 c-20 -39 -32 -49
-66 -59 -48 -14 -71 -8 -71 16 0 31 35 73 95 115 l60 42 3 -34 c2 -21 -6 -51
-21 -80z m73 -66 c0 -2 -8 -10 -17 -17 -16 -13 -17 -12 -4 4 13 16 21 21 21
13z"/>
<path d="M1030 3231 c-19 -10 -47 -36 -61 -57 -34 -51 -83 -180 -75 -200 3 -9
-1 -22 -9 -30 -19 -20 -50 -127 -70 -244 -9 -52 -24 -124 -35 -160 -10 -36
-21 -82 -24 -102 -6 -31 -13 -40 -51 -58 -90 -43 -125 -160 -51 -168 39 -5 76
6 76 21 0 43 133 115 270 147 95 22 170 55 177 76 10 30 -153 23 -276 -12 -29
-8 -55 -13 -57 -11 -4 4 18 85 117 417 62 207 129 330 179 330 15 0 20 -7 20
-28 0 -38 -31 -124 -70 -196 -27 -47 -30 -60 -19 -67 20 -12 36 -11 67 5 92
48 142 200 92 281 -21 34 -99 75 -142 75 -13 0 -39 -8 -58 -19z m-88 -171
c-20 -43 -38 -77 -40 -75 -5 5 65 155 72 155 2 0 -12 -36 -32 -80z"/>
<path d="M2200 2050 c-73 -25 -93 -50 -84 -109 6 -45 20 -112 30 -140 4 -11 8
-10 24 4 16 14 18 26 13 61 -4 35 -3 44 9 44 8 0 20 -10 25 -22 11 -23 11 -23
18 6 l8 28 68 -6 c117 -12 192 22 88 39 -31 5 -38 11 -43 38 -8 41 -43 77 -75
77 -14 -1 -51 -9 -81 -20z"/>
<path d="M2755 2017 c-23 -19 -26 -28 -23 -72 l4 -50 8 42 8 42 62 -64 62 -64
11 29 c17 46 37 38 30 -11 -3 -23 0 -63 7 -90 l13 -50 -35 -14 c-48 -21 -52
-19 -46 14 6 28 5 29 -39 32 -43 4 -44 3 -36 -20 5 -13 18 -35 28 -50 14 -20
17 -37 12 -76 l-6 -50 -65 -16 c-58 -15 -65 -19 -62 -40 1 -12 4 -25 6 -27 2
-2 34 5 71 16 58 18 67 18 72 5 3 -8 -4 -70 -16 -137 -11 -67 -21 -161 -21
-209 l0 -87 104 0 c98 0 105 1 111 21 9 29 -3 195 -22 294 -13 68 -13 97 -3
198 14 126 8 314 -10 363 -6 16 -25 44 -43 62 -28 29 -36 32 -93 32 -51 0 -68
-4 -89 -23z"/>
<path d="M2520 1594 c0 -61 4 -79 17 -89 16 -12 16 -14 0 -38 -10 -15 -17 -46
-17 -72 l0 -45 59 0 c66 0 71 5 71 75 0 39 -2 43 -30 49 -38 7 -42 43 -6 52
17 4 23 11 19 22 -4 10 -2 13 5 8 9 -5 12 7 12 43 0 59 -14 71 -84 71 l-46 0
0 -76z"/>
<path d="M2828 750 c-16 -8 -28 -18 -28 -22 0 -4 21 -10 47 -14 60 -9 138 6
138 26 0 16 -4 16 -49 6 -22 -5 -27 -4 -23 6 7 20 -50 18 -85 -2z"/>
</g>
</svg>
