<?xml version="1.0" standalone="no"?>
<!DOCTYPE svg PUBLIC "-//W3C//DTD SVG 20010904//EN"
 "http://www.w3.org/TR/2001/REC-SVG-20010904/DTD/svg10.dtd">
<svg version="1.0" xmlns="http://www.w3.org/2000/svg"
 width="93.931" height="93.931" viewBox="0 0 1500.000000 1500.000000"
 preserveAspectRatio="xMidYMid meet">

<g transform="translate(0.000000,1500.000000) scale(0.100000,-0.100000)"
fill="#000000" stroke="none">
<path d="M0 7500 l0 -7500 7500 0 7500 0 0 7500 0 7500 -7500 0 -7500 0 0
-7500z m8984 634 c34 -12 46 -20 42 -31 -3 -8 -6 -17 -6 -19 0 -3 -13 2 -30
11 -16 8 -48 15 -70 15 -33 0 -48 -6 -72 -30 -27 -28 -30 -36 -26 -78 4 -37
24 -78 97 -197 51 -82 97 -154 102 -159 5 -6 9 26 9 82 l0 92 65 0 c58 0 65
-2 65 -20 0 -17 -7 -20 -44 -20 l-44 0 -4 -102 c-4 -95 -3 -106 19 -145 15
-26 20 -44 13 -48 -14 -9 -28 2 -46 36 l-15 30 -29 -25 c-62 -52 -138 -57
-206 -13 -73 48 -98 159 -51 228 20 31 70 71 100 82 9 3 7 12 -6 33 -10 16
-30 53 -44 82 -42 88 -18 162 62 198 40 18 62 17 119 -2z m-1334 -9 c0 -13 29
-15 205 -15 201 0 205 0 205 -21 0 -17 -86 -133 -403 -546 -7 -10 32 -13 192
-13 l201 0 0 70 c0 63 2 70 20 70 19 0 20 -7 20 -90 l0 -90 -245 0 c-241 0
-245 0 -245 21 0 11 91 138 205 287 l206 267 -201 3 -200 2 0 35 c0 28 4 35
20 35 11 0 20 -7 20 -15z m-3606 -295 l124 -295 36 -3 c28 -3 36 -8 36 -23 0
-17 -8 -19 -86 -19 -76 0 -85 2 -82 18 2 10 14 18 31 20 15 2 27 5 27 6 0 2
-20 50 -44 107 l-43 104 -128 0 -129 0 -42 -100 c-23 -55 -43 -103 -43 -107
-1 -4 11 -8 26 -10 17 -2 29 -10 31 -20 3 -16 -6 -18 -82 -18 -79 0 -86 2 -86
20 0 16 7 20 34 20 l34 0 128 300 c70 165 129 299 130 297 2 -1 59 -135 128
-297z m-1307 233 c22 -27 90 -114 152 -195 62 -82 117 -146 122 -143 4 3 74
91 154 195 l146 190 44 0 c38 0 45 -3 45 -20 0 -16 -7 -20 -35 -20 l-35 0 0
-270 0 -270 35 0 c28 0 35 -4 35 -20 0 -18 -7 -20 -85 -20 -78 0 -85 2 -85 20
0 16 7 20 30 20 l30 0 0 246 0 247 -117 -154 c-65 -84 -130 -166 -144 -182
l-25 -30 -138 182 c-76 99 -140 181 -142 181 -2 0 -4 -110 -4 -245 l0 -245 35
0 c28 0 35 -4 35 -20 0 -19 -7 -20 -91 -20 -81 0 -90 2 -87 18 2 11 14 18 36
20 l32 3 0 270 0 269 -35 0 c-22 0 -35 5 -35 13 0 21 11 27 51 27 32 0 42 -6
76 -47z m1923 36 c86 -18 140 -80 140 -159 0 -66 -47 -133 -101 -145 -16 -4
-29 -8 -29 -9 0 -2 27 -60 60 -129 l60 -127 40 0 c34 0 40 -3 40 -21 0 -18 -5
-20 -52 -17 l-51 3 -66 142 -66 142 -57 1 -58 0 0 -124 0 -125 42 -3 c31 -2
44 -8 46 -20 3 -16 -6 -18 -87 -18 -84 0 -91 1 -91 20 0 15 7 20 25 20 l25 0
0 270 0 270 -25 0 c-18 0 -25 5 -25 20 0 19 7 20 90 20 49 0 112 -5 140 -11z
m880 -59 c0 -56 -3 -70 -15 -70 -11 0 -15 12 -15 50 l0 50 -95 0 -95 0 0 -269
0 -270 32 -3 c22 -2 34 -9 36 -20 3 -16 -6 -18 -88 -18 -82 0 -91 2 -88 18 2
11 14 18 36 20 l32 3 0 270 0 269 -95 0 -95 0 0 -50 c0 -38 -4 -50 -15 -50
-12 0 -15 14 -15 70 l0 70 240 0 240 0 0 -70z m370 50 c0 -16 -7 -20 -35 -20
l-35 0 0 -270 0 -270 35 0 c28 0 35 -4 35 -20 0 -19 -7 -20 -91 -20 -81 0 -90
2 -87 18 2 11 14 18 36 20 l32 3 0 270 0 269 -35 0 c-22 0 -35 5 -35 13 0 24
12 27 97 27 76 0 83 -2 83 -20z m519 -261 l241 -280 0 260 0 261 -36 0 c-28 0
-35 3 -32 18 3 14 17 17 91 20 82 3 87 2 87 -18 0 -17 -6 -20 -40 -20 l-40 0
-2 -299 -3 -299 -220 255 c-121 139 -232 268 -247 286 l-27 32 -1 -257 0 -258
35 0 c28 0 35 -4 35 -20 0 -18 -7 -20 -85 -20 -78 0 -85 2 -85 20 0 16 7 20
35 20 l35 0 0 270 0 270 -35 0 c-28 0 -35 4 -35 20 0 17 7 20 44 20 l43 0 242
-281z m961 211 c0 -56 -3 -70 -15 -70 -11 0 -15 12 -15 50 l0 50 -145 0 -145
0 0 -125 0 -125 145 0 c138 0 145 -1 145 -20 0 -19 -7 -20 -145 -20 l-145 0 0
-125 0 -125 149 0 150 0 3 48 c2 34 7 47 18 47 12 0 16 -15 18 -67 l3 -68
-221 0 c-213 0 -220 1 -220 20 0 16 7 20 30 20 l30 0 0 270 0 270 -30 0 c-23
0 -30 4 -30 20 0 19 7 20 210 20 l210 0 0 -70z m2588 -205 c3 -295 -3 -356
-45 -405 -29 -35 -54 -50 -100 -61 -28 -6 -33 -4 -33 11 0 11 10 20 27 25 44
11 80 42 97 85 13 34 16 85 16 310 l0 270 -70 0 c-64 0 -70 2 -70 20 0 20 5
21 88 18 l87 -3 3 -270z m362 255 c0 -16 -7 -20 -35 -20 l-35 0 0 -270 0 -270
35 0 c28 0 35 -4 35 -20 0 -18 -7 -20 -85 -20 -78 0 -85 2 -85 20 0 16 7 20
30 20 l30 0 0 270 0 270 -30 0 c-23 0 -30 4 -30 20 0 18 7 20 85 20 78 0 85
-2 85 -20z m496 -232 c119 -139 227 -264 240 -278 l24 -25 0 258 0 257 -36 0
c-28 0 -35 3 -32 18 3 14 17 17 91 20 82 3 87 2 87 -18 0 -16 -6 -20 -35 -20
l-35 0 -2 -302 -3 -303 -229 265 c-126 146 -237 274 -248 285 -18 19 -18 13
-18 -232 l0 -252 32 -3 c22 -2 34 -9 36 -20 3 -16 -6 -18 -87 -18 -84 0 -91 1
-91 20 0 16 7 20 35 20 l35 0 0 270 0 270 -35 0 c-28 0 -35 4 -35 20 0 17 7
20 44 20 l45 0 217 -252z m994 182 c0 -63 -2 -70 -20 -70 -17 0 -20 7 -20 50
l0 50 -145 0 -145 0 0 -125 0 -124 148 -3 c123 -3 147 -5 147 -18 0 -13 -24
-15 -147 -18 l-148 -3 0 -124 0 -125 155 0 155 0 0 50 c0 38 4 50 15 50 12 0
15 -14 15 -70 l0 -70 -221 0 c-205 0 -220 1 -217 18 2 10 14 18 31 20 l27 3 0
270 0 269 -30 0 c-23 0 -30 4 -30 20 0 19 7 20 215 20 l215 0 0 -70z m488 46
c29 -15 32 -21 32 -66 0 -38 -4 -50 -15 -50 -10 0 -15 10 -15 34 0 48 -28 66
-103 66 -54 0 -62 -3 -93 -34 -29 -29 -34 -41 -34 -81 0 -62 32 -92 131 -124
41 -13 89 -32 107 -43 83 -51 92 -183 16 -254 -66 -63 -189 -66 -276 -8 -36
23 -38 28 -38 74 0 38 4 50 15 50 11 0 15 -11 15 -39 0 -34 5 -42 36 -62 73
-45 175 -35 230 22 25 26 29 38 29 84 0 76 -30 105 -150 145 -116 39 -147 67
-152 142 -8 105 66 174 178 165 31 -3 70 -12 87 -21z m-5934 -1483 c12 -25 22
-32 48 -35 22 -2 34 -9 36 -20 3 -16 -6 -18 -82 -18 -78 0 -86 2 -86 19 0 14
8 21 29 23 l29 3 -45 108 -45 107 -127 0 -126 0 -42 -103 c-24 -56 -43 -106
-43 -109 0 -4 12 -8 27 -10 17 -2 29 -10 31 -20 3 -16 -6 -18 -82 -18 -79 0
-86 2 -86 20 0 16 7 20 33 20 l33 0 109 258 c60 141 118 277 128 301 l19 44
114 -269 c63 -148 120 -283 128 -301z m-3163 526 l49 -21 0 -49 c0 -42 -3 -49
-20 -49 -17 0 -20 7 -20 40 0 39 0 39 -56 56 -133 38 -283 -41 -328 -174 -76
-221 130 -431 349 -357 44 15 65 14 65 -5 0 -18 -96 -45 -161 -44 -121 1 -225
69 -281 184 -31 63 -31 186 -2 251 39 85 117 153 204 180 52 15 150 10 201
-12z m681 -7 c60 -30 120 -90 150 -150 32 -66 33 -208 1 -268 -50 -94 -114
-144 -215 -170 -106 -27 -207 2 -290 83 -64 63 -92 129 -92 218 0 138 81 253
211 301 58 21 177 14 235 -14z m464 20 c8 -5 304 -348 456 -527 16 -19 17 -7
18 238 l0 257 -30 0 c-23 0 -30 4 -30 20 0 18 7 20 85 20 78 0 85 -2 85 -20 0
-16 -7 -20 -35 -20 l-35 0 -2 -302 -3 -301 -243 281 c-134 155 -246 282 -248
282 -2 0 -4 -112 -4 -249 l0 -250 32 -3 c22 -2 34 -9 36 -20 3 -16 -6 -18 -88
-18 -82 0 -91 2 -88 18 2 11 14 18 36 20 l32 3 0 270 0 269 -35 0 c-28 0 -35
4 -35 20 0 17 7 20 43 20 23 0 47 -4 53 -8z m1262 -64 c3 -63 1 -68 -18 -68
-17 0 -20 6 -20 50 l0 50 -95 0 -95 0 0 -270 0 -270 35 0 c28 0 35 -4 35 -20
0 -19 -7 -20 -91 -20 -81 0 -90 2 -87 18 2 12 14 18 41 20 l37 3 0 270 0 269
-95 0 -95 0 0 -50 c0 -43 -3 -50 -20 -50 -18 0 -20 7 -20 70 l0 70 243 -2 242
-3 3 -67z m1344 40 c67 -31 117 -80 149 -144 33 -67 34 -197 3 -265 -29 -61
-85 -116 -153 -147 -49 -23 -73 -27 -183 -30 -125 -4 -128 -4 -128 17 0 16 6
21 25 21 l25 0 0 270 0 270 -25 0 c-19 0 -25 5 -25 21 0 22 2 22 129 17 109
-5 137 -9 183 -30z m788 13 c206 -78 270 -338 124 -500 -65 -73 -139 -106
-234 -106 -95 0 -169 33 -234 106 -60 66 -80 129 -74 228 6 91 30 144 94 207
82 79 215 106 324 65z m677 -9 c59 -31 87 -74 87 -137 0 -65 -27 -114 -79
-140 -22 -11 -42 -21 -44 -22 -2 -2 22 -59 55 -127 l58 -125 41 -3 c29 -2 41
-8 43 -20 3 -15 -4 -18 -50 -18 l-53 0 -69 145 -69 145 -58 0 -59 0 0 -125 0
-125 45 0 c38 0 45 -3 45 -20 0 -19 -7 -20 -91 -20 -81 0 -90 2 -87 18 2 10
14 18 31 20 l27 3 0 270 0 269 -30 0 c-29 0 -40 17 -22 34 4 5 59 6 122 4 91
-4 124 -9 157 -26z m773 -42 c0 -56 -3 -70 -15 -70 -11 0 -15 12 -15 50 l0 50
-150 0 -150 0 0 -125 0 -125 150 0 c143 0 150 -1 150 -20 0 -19 -7 -20 -150
-20 l-150 0 0 -125 0 -125 155 0 155 0 0 50 c0 38 4 50 15 50 12 0 15 -14 15
-70 l0 -70 -221 0 c-205 0 -220 1 -217 18 2 11 14 18 36 20 l32 3 0 270 0 269
-35 0 c-33 0 -46 16 -28 33 3 4 100 7 215 7 l208 0 0 -70z m488 46 c29 -15 32
-21 32 -66 0 -38 -4 -50 -15 -50 -11 0 -15 11 -15 38 0 48 -25 62 -105 62 -72
0 -113 -34 -122 -98 -10 -76 24 -110 148 -145 103 -30 159 -90 159 -169 0
-104 -72 -171 -185 -172 -62 -1 -109 13 -157 46 -24 17 -28 26 -28 69 0 42 3
49 20 49 17 0 20 -7 20 -44 0 -42 2 -45 43 -65 84 -41 198 -16 232 49 21 40
19 99 -4 136 -14 23 -35 38 -78 53 -32 12 -77 28 -100 37 -60 22 -91 50 -104
94 -22 73 15 155 86 187 38 17 130 11 173 -11z m1240 0 c29 -15 32 -21 32 -66
0 -38 -4 -50 -15 -50 -10 0 -15 10 -15 34 0 48 -28 66 -103 66 -54 0 -62 -3
-93 -34 -29 -29 -34 -41 -34 -81 0 -62 32 -92 131 -124 41 -13 89 -32 107 -43
83 -51 92 -183 16 -254 -66 -63 -189 -66 -276 -8 -36 23 -38 28 -38 74 0 38 4
50 15 50 11 0 15 -11 15 -39 0 -34 5 -42 36 -62 73 -45 175 -35 230 22 25 26
29 38 29 84 0 76 -30 105 -150 145 -116 39 -147 67 -152 142 -8 105 66 174
178 165 31 -3 70 -12 87 -21z m952 6 c45 -17 45 -18 48 -70 2 -41 0 -52 -12
-52 -10 0 -16 12 -18 37 -4 49 -39 68 -128 67 -110 0 -202 -59 -252 -163 -33
-67 -31 -168 4 -237 28 -54 77 -103 130 -130 49 -26 146 -30 208 -9 44 15 54
15 61 4 15 -24 -65 -52 -151 -53 -63 -1 -84 4 -132 27 -72 35 -141 111 -164
179 -23 69 -16 187 15 247 32 61 103 126 164 150 65 25 165 26 227 3z m-1841
-529 c-1 -23 -76 -177 -86 -181 -20 -6 -16 20 18 107 24 62 35 81 50 81 10 0
19 -3 18 -7z m1210 -27 c13 -16 4 -46 -14 -46 -7 0 -18 7 -25 15 -10 12 -10
18 0 30 15 19 24 19 39 1z m925 8 c20 -8 21 -43 1 -50 -24 -10 -47 14 -34 37
11 21 11 21 33 13z m776 -749 l0 -55 -5460 0 -5460 0 0 55 0 55 5460 0 5460 0
0 -55z"/>
<path d="M8829 7767 c-75 -50 -86 -137 -25 -204 27 -29 41 -36 82 -40 40 -4
55 0 84 19 21 14 35 32 34 44 -1 26 -112 204 -128 204 -7 0 -28 -10 -47 -23z"/>
<path d="M3903 8024 c-3 -10 -26 -66 -50 -123 -24 -57 -43 -106 -43 -107 0 -2
47 -4 105 -4 58 0 105 2 105 4 0 6 -101 240 -105 245 -3 2 -8 -5 -12 -15z"/>
<path d="M4520 7945 l0 -125 79 0 c97 0 139 23 159 88 12 37 12 46 -5 79 -27
55 -81 83 -165 83 l-68 0 0 -125z"/>
<path d="M6138 7074 c-15 -25 -99 -237 -95 -240 2 -3 50 -3 105 -2 l101 3 -45
105 c-24 58 -48 114 -52 124 -5 11 -11 16 -14 10z"/>
<path d="M3682 7102 c-190 -68 -253 -304 -119 -449 55 -60 107 -85 188 -91 56
-4 75 -1 120 20 76 35 114 70 146 135 54 112 28 241 -67 327 -77 70 -175 91
-268 58z"/>
<path d="M6750 6841 l0 -271 78 0 c68 0 87 4 140 31 103 51 148 133 140 259
-9 154 -103 240 -270 248 l-88 4 0 -271z"/>
<path d="M7564 7102 c-204 -73 -256 -336 -93 -475 111 -96 269 -89 374 17 106
106 110 266 11 383 -63 74 -197 109 -292 75z"/>
<path d="M8240 6984 l0 -126 90 4 c85 3 91 5 121 34 46 46 51 108 13 153 -37
45 -80 61 -159 61 l-65 0 0 -126z"/>
</g>
</svg>
