<?xml version="1.0" standalone="no"?>
<!DOCTYPE svg PUBLIC "-//W3C//DTD SVG 20010904//EN"
 "http://www.w3.org/TR/2001/REC-SVG-20010904/DTD/svg10.dtd">
<svg version="1.0" xmlns="http://www.w3.org/2000/svg"
 width="63.931" height="63.931" viewBox="0 0 499.000000 333.000000"
 preserveAspectRatio="xMidYMid meet">

<g transform="translate(0.000000,333.000000) scale(0.100000,-0.100000)"
fill="#000000" stroke="none">
<path d="M3897 2948 c-59 -78 -100 -192 -112 -303 -11 -113 33 -278 102 -377
45 -66 52 -63 184 68 l119 119 0 150 0 151 -113 112 c-73 71 -122 112 -135
112 -12 0 -31 -14 -45 -32z"/>
<path d="M4107 2302 c-64 -66 -117 -124 -117 -129 0 -19 67 -71 132 -102 35
-16 104 -37 155 -47 86 -17 98 -17 183 -2 141 25 290 103 290 152 0 15 -36 57
-113 134 l-114 112 -149 0 -150 0 -117 -118z"/>
<path d="M40 1905 l0 -94 128 -3 127 -3 3 -417 2 -418 105 0 105 0 2 418 3
417 133 3 132 3 0 94 0 95 -370 0 -370 0 0 -95z"/>
<path d="M2690 1905 l0 -94 133 -3 132 -3 3 -417 2 -418 105 0 105 0 2 418 3
417 133 3 132 3 0 94 0 95 -375 0 -375 0 0 -95z"/>
<path d="M1107 1700 c-108 -27 -201 -106 -251 -210 -28 -59 -31 -74 -31 -160
1 -86 4 -100 32 -155 38 -74 109 -142 188 -181 56 -27 67 -29 180 -29 121 0
181 13 242 53 l22 14 -29 59 c-17 32 -31 59 -33 59 -1 0 -24 -7 -51 -15 -65
-20 -186 -19 -234 0 -36 15 -112 81 -112 97 0 4 116 9 258 10 l257 3 0 95 c0
87 -3 101 -32 161 -60 121 -174 199 -302 205 -36 2 -83 -1 -104 -6z m150 -180
c29 -13 52 -34 73 -66 16 -27 30 -52 30 -56 0 -4 -76 -8 -170 -8 -93 0 -170 3
-170 7 0 18 52 92 76 108 58 38 102 42 161 15z"/>
<path d="M1919 1697 c-108 -31 -210 -123 -250 -225 -17 -43 -23 -78 -23 -142
0 -75 4 -93 31 -152 64 -137 174 -210 323 -216 103 -4 173 18 251 80 l51 40
-59 60 -60 60 -46 -33 c-53 -37 -136 -50 -187 -29 -43 18 -98 83 -106 125 -21
112 21 210 109 254 45 22 53 23 100 12 28 -6 66 -23 84 -37 l33 -25 63 47 c34
26 64 49 66 51 12 9 -71 78 -125 104 -73 36 -181 47 -255 26z"/>
<path d="M3739 1692 c-112 -38 -198 -120 -239 -230 -32 -83 -26 -205 13 -284
37 -76 102 -140 185 -180 65 -32 70 -33 192 -33 120 0 128 1 193 32 l69 33
-32 57 c-18 32 -33 59 -34 60 -1 1 -26 -4 -56 -12 -81 -22 -192 -19 -239 5
-40 20 -101 75 -101 91 0 5 106 9 255 9 l254 0 7 36 c18 99 -26 239 -101 323
-85 93 -242 133 -366 93z m202 -187 c20 -13 46 -43 58 -67 l21 -43 -166 -3
c-92 -1 -169 0 -172 3 -4 3 2 21 12 40 53 99 158 128 247 70z"/>
<path d="M4587 1700 c-203 -52 -329 -268 -272 -466 31 -109 96 -189 198 -241
73 -37 207 -44 285 -15 56 22 137 77 147 101 4 9 -14 35 -48 69 l-54 54 -46
-33 c-62 -43 -143 -51 -205 -20 -113 58 -130 245 -30 338 64 60 141 64 223 12
l47 -30 64 52 65 52 -33 34 c-54 56 -143 94 -229 98 -41 2 -91 0 -112 -5z"/>
<path d="M2048 469 c-11 -6 -18 -22 -18 -40 0 -26 6 -32 45 -49 49 -21 64 -43
48 -69 -15 -25 -49 -25 -72 0 -11 12 -24 19 -28 15 -12 -12 36 -46 64 -46 40
0 63 18 63 49 0 32 -19 51 -64 66 -48 16 -47 74 2 75 6 0 21 -9 33 -21 26 -26
39 -16 14 11 -19 21 -59 26 -87 9z"/>
<path d="M2280 380 c0 -60 4 -100 10 -100 6 0 10 20 10 45 l0 45 55 0 55 0 0
-45 c0 -25 5 -45 10 -45 6 0 10 40 10 100 0 60 -4 100 -10 100 -5 0 -10 -20
-10 -45 l0 -45 -55 0 -55 0 0 45 c0 25 -4 45 -10 45 -6 0 -10 -40 -10 -100z"/>
<path d="M2593 465 c-30 -21 -44 -75 -32 -120 18 -65 93 -87 145 -42 23 20 28
32 28 76 1 46 -3 56 -27 77 -33 28 -82 32 -114 9z m87 -5 c11 -6 24 -26 29
-46 23 -83 -39 -150 -98 -107 -21 16 -27 29 -29 70 -3 45 0 53 24 72 30 23 46
26 74 11z"/>
<path d="M2860 380 c0 -99 16 -141 22 -57 3 42 3 42 48 47 34 4 47 11 56 28
25 51 -8 82 -87 82 l-39 0 0 -100z m110 60 c18 -34 -4 -60 -50 -60 -40 0 -40
0 -40 40 0 40 0 40 40 40 29 0 42 -5 50 -20z"/>
</g>
</svg>
