<?xml version="1.0" standalone="no"?>
<!DOCTYPE svg PUBLIC "-//W3C//DTD SVG 20010904//EN"
 "http://www.w3.org/TR/2001/REC-SVG-20010904/DTD/svg10.dtd">
<svg version="1.0" xmlns="http://www.w3.org/2000/svg"
 width="63.931" height="63.931" viewBox="0 0 1000.000000 1000.000000"
 preserveAspectRatio="xMidYMid meet">

<g transform="translate(0.000000,1000.000000) scale(0.100000,-0.100000)"
fill="#000000" stroke="none">
<path d="M4655 9989 c-387 -30 -784 -105 -1145 -216 -297 -92 -716 -272 -940
-403 -488 -286 -737 -476 -1100 -840 -323 -322 -534 -589 -744 -940 -109 -181
-119 -199 -178 -315 -379 -747 -566 -1564 -545 -2390 9 -322 38 -590 98 -885
237 -1166 888 -2214 1829 -2946 136 -106 124 -97 320 -227 541 -359 1123 -600
1770 -731 125 -25 318 -54 525 -78 147 -17 762 -17 910 0 639 73 1106 197
1620 431 1010 458 1868 1276 2374 2266 295 576 450 1110 533 1830 17 148 17
763 0 910 -24 207 -53 400 -78 525 -131 647 -372 1229 -731 1770 -130 196
-121 184 -227 320 -732 941 -1779 1591 -2946 1829 -145 29 -355 61 -545 81
-136 15 -652 21 -800 9z m765 -3534 c430 -65 796 -411 874 -825 9 -46 18 -86
21 -88 3 -3 5 27 5 67 0 197 86 407 233 566 125 136 267 219 467 271 57 16
140 18 715 21 436 3 677 1 733 -7 241 -32 468 -161 606 -344 114 -152 173
-313 183 -499 l6 -107 -334 2 -334 3 -6 60 c-3 33 -10 72 -17 86 -19 46 -75
101 -127 125 l-50 24 -608 0 c-499 0 -614 -3 -641 -14 -84 -35 -166 -147 -166
-227 0 -85 53 -168 135 -212 40 -22 47 -22 730 -27 l690 -5 85 -29 c329 -109
558 -364 625 -695 23 -110 16 -292 -14 -404 -24 -86 -81 -209 -132 -284 -72
-105 -211 -224 -334 -285 -68 -35 -196 -75 -275 -88 -84 -13 -1311 -13 -1402
0 -415 60 -739 402 -765 807 -3 51 -9 90 -13 88 -4 -2 -10 -29 -14 -59 -3 -30
-19 -92 -35 -138 -132 -373 -467 -646 -856 -699 -51 -6 -270 -9 -610 -7 l-530
4 -99 27 c-307 86 -542 279 -680 560 -99 202 -109 291 -104 932 4 420 7 513
21 578 92 427 461 771 887 826 36 5 283 9 550 10 378 1 506 -2 580 -14z
m-3975 -55 c20 -51 239 -592 477 -1180 54 -135 135 -337 180 -450 45 -113 84
-208 87 -212 3 -4 177 423 386 948 l380 954 358 0 c197 0 356 -3 354 -7 -3 -5
-48 -118 -102 -253 -53 -135 -194 -488 -312 -785 -118 -297 -307 -772 -420
-1055 -112 -283 -232 -585 -267 -670 l-62 -155 -311 -3 c-241 -2 -312 1 -320
10 -5 7 -37 83 -70 168 -166 418 -941 2366 -1015 2550 -28 69 -56 142 -64 163
l-13 37 356 -2 357 -3 21 -55z"/>
<path d="M4311 6359 c-355 -38 -679 -312 -790 -672 -38 -124 -43 -209 -39
-742 l4 -510 26 -96 c28 -102 77 -210 138 -299 149 -220 393 -368 660 -400
132 -16 984 -13 1100 4 375 54 680 331 780 706 21 78 24 112 28 413 l4 327
-661 0 -661 0 0 -235 0 -235 425 0 c366 0 426 -2 431 -15 3 -8 1 -48 -4 -90
-26 -195 -171 -354 -363 -400 -95 -22 -997 -22 -1084 0 -184 48 -329 206 -355
387 -12 81 -12 901 0 992 25 196 197 371 400 406 45 8 216 10 540 8 461 -4
477 -4 534 -26 81 -30 144 -72 205 -137 56 -59 110 -161 118 -225 l6 -40 233
0 233 0 -5 38 c-37 263 -168 494 -366 645 -151 115 -310 179 -487 197 -123 12
-930 11 -1050 -1z"/>
<path d="M7125 6359 c-91 -10 -145 -24 -225 -58 -267 -114 -453 -367 -479
-651 -36 -398 198 -747 574 -857 54 -15 133 -18 745 -23 650 -5 687 -6 733
-25 73 -30 148 -94 182 -156 28 -50 30 -62 30 -154 0 -97 -1 -103 -35 -159
-41 -68 -119 -134 -188 -159 -43 -16 -104 -17 -692 -15 l-645 3 -46 23 c-84
42 -189 168 -189 230 l0 22 -235 0 -235 0 0 -33 c0 -51 37 -184 70 -256 82
-174 235 -322 408 -395 143 -60 130 -59 837 -63 722 -5 776 -1 918 56 252 100
438 320 493 583 22 102 14 288 -16 383 -77 241 -243 424 -470 518 -133 55
-151 57 -835 57 -536 0 -640 2 -690 15 -98 26 -169 83 -221 178 -25 46 -29 63
-29 137 0 73 4 93 28 142 36 72 107 143 177 177 l55 26 645 0 645 0 55 -27
c91 -45 173 -141 189 -221 l7 -32 237 -3 237 -2 0 22 c-1 46 -29 158 -60 231
-111 267 -362 454 -655 487 -106 12 -1216 11 -1320 -1z"/>
<path d="M4348 5799 c-117 -28 -236 -129 -281 -239 -22 -54 -22 -60 -22 -560
0 -500 0 -506 22 -560 44 -109 147 -196 268 -229 55 -15 975 -15 1030 0 79 21
145 61 195 117 45 51 90 139 90 177 0 13 -59 15 -425 15 l-425 0 0 335 0 335
760 0 760 0 0 -352 -1 -353 330 -3 331 -2 0 -39 c0 -86 43 -156 129 -212 l45
-29 625 0 c585 0 629 2 666 19 86 39 144 126 145 217 0 90 -44 159 -134 207
-41 22 -43 22 -736 27 l-695 6 -80 27 c-98 34 -203 88 -270 137 -59 44 -160
150 -205 215 -53 77 -111 213 -130 304 -17 80 -25 96 -20 44 l1 -23 -328 0
-329 0 -10 78 c-20 145 -97 252 -226 313 l-73 34 -485 2 c-267 1 -502 -3 -522
-8z"/>
<path d="M860 6356 c0 -3 36 -94 79 -203 158 -396 515 -1292 745 -1873 130
-327 241 -605 246 -617 10 -23 10 -23 260 -23 230 0 251 1 257 18 16 45 1017
2562 1070 2690 4 9 -49 12 -244 12 l-249 0 -413 -1036 c-227 -569 -417 -1032
-421 -1027 -5 4 -79 184 -165 398 -87 215 -195 485 -242 600 -47 116 -150 370
-228 565 -79 195 -156 387 -172 425 l-28 70 -248 3 c-136 1 -247 0 -247 -2z"/>
</g>
</svg>
