<?xml version="1.0" standalone="no"?>
<!DOCTYPE svg PUBLIC "-//W3C//DTD SVG 20010904//EN"
 "http://www.w3.org/TR/2001/REC-SVG-20010904/DTD/svg10.dtd">
<svg version="1.0" xmlns="http://www.w3.org/2000/svg"
 width="120" height="120" viewBox="0 0 200.000000 200.000000"
 preserveAspectRatio="xMidYMid meet">

<g transform="translate(0.000000,200.000000) scale(0.100000,-0.100000)"
fill="#000000" stroke="none">
<path d="M0 1000 l0 -1000 1000 0 1000 0 0 1000 0 1000 -1000 0 -1000 0 0
-1000z m1054 548 l25 -23 -15 -140 c-15 -143 -24 -165 -64 -165 -41 0 -49 21
-64 164 -7 77 -12 145 -9 152 14 36 92 43 127 12z m-273 -349 c208 -138 227
-158 214 -217 -3 -16 -16 -39 -28 -50 -29 -26 -386 -262 -397 -262 -18 0 -68
51 -72 73 -10 50 6 62 194 156 101 51 186 96 191 100 4 4 -79 50 -184 102
-209 103 -220 113 -195 173 14 34 39 55 66 56 8 0 103 -59 211 -131z m681 120
c11 -6 26 -26 34 -44 24 -59 11 -74 -133 -138 -71 -32 -136 -55 -145 -52 -20
8 -42 50 -35 68 7 17 227 177 245 177 7 0 22 -5 34 -11z m-98 -456 c87 -39
132 -65 139 -80 14 -30 -19 -95 -55 -107 -23 -8 -35 -5 -75 24 -148 105 -193
142 -193 158 0 18 34 62 48 62 4 0 65 -26 136 -57z m-331 -95 c12 -10 20 -47
30 -153 8 -77 13 -145 10 -151 -6 -15 -49 -34 -78 -34 -13 0 -35 10 -49 23
l-25 22 15 140 c15 144 23 165 64 165 9 0 24 -6 33 -12z"/>
</g>
</svg>
